<?xml version="1.0" encoding="utf-8"?>
<!-- Generator: Adobe Illustrator 26.3.1, SVG Export Plug-In . SVG Version: 6.00 Build 0)  -->
<svg version="1.1" id="Layer_1" xmlns="http://www.w3.org/2000/svg" xmlns:xlink="http://www.w3.org/1999/xlink" x="0px" y="0px"
	 viewBox="0 0 348.5 152" style="enable-background:new 0 0 348.5 152;" xml:space="preserve">
<style type="text/css">
	.st0{fill:#EAE5D8;}
	.st1{enable-background:new    ;}
	.st2{fill:#25566F;}
</style>
<g id="Artwork_1" transform="translate(181.798 75.5)">
	<g id="Group_12" transform="translate(-168.705 -75.5)">
		<g id="Group_11" transform="translate(-13.093)">
			<g id="Path_6">
				<path class="st0" d="M336.1,64.6c-0.1-16.4-0.2-32.7-0.2-49.1c-0.9-0.5-1.9-1.1-3-1.7C322.5,8,308.3,0,282.8,0S243,8,232.6,13.9
					c-7.4,4.2-10.8,6.1-20.6,6.1s-13.2-1.9-20.6-6.1C181.1,8,167,0,141.4,0s-39.8,8-50.1,13.9C83.8,18.1,80.5,20,70.7,20
					s-13.2-1.9-20.6-6.1C39.8,8,25.6,0,0,0v60c9.8,0,13.2,1.9,20.6,6.1C30.9,72,45.1,80,70.7,80s39.8-8,50.1-13.9
					c7.4-4.2,10.8-6.1,20.6-6.1s13.2,1.9,20.6,6.1C172.3,72,186.5,80,212.1,80s39.8-8,50.1-13.9c7.4-4.2,10.8-6.1,20.6-6.1
					s13.2,1.9,20.6,6.1c7.8,4.4,17.7,10,32.9,12.5C336.2,74,336.1,69.3,336.1,64.6z"/>
			</g>
		</g>
		<g class="st1">
			<path class="st2" d="M62.5,66.1c0,9.3-6,13.9-17.9,13.9H18.5c-0.5,0-0.9-0.2-1.2-0.5c-0.3-0.3-0.5-0.7-0.5-1.2V37.4
				c0-0.5,0.2-0.9,0.5-1.2c0.3-0.3,0.7-0.5,1.2-0.5H44c6,0,10.4,1.1,13.3,3.3c2.9,2.2,4.3,5.5,4.3,9.9v0.2c0,2-0.5,3.8-1.6,5.2
				c-1.1,1.4-2.2,2.3-3.4,2.7c1.6,0.5,3.1,1.6,4.2,3.3C61.9,61.9,62.5,63.9,62.5,66.1z M43.7,51.4c0.4-0.6,0.7-1.3,0.7-2.1
				s-0.2-1.4-0.7-2c-0.4-0.5-1.1-0.8-1.9-0.8h-8.5v5.8h8.5C42.6,52.3,43.3,52,43.7,51.4z M33.3,62.9v6.2h9.2c1,0,1.7-0.3,2.2-1
				c0.5-0.7,0.7-1.4,0.7-2.2v-0.1c0-0.8-0.3-1.5-0.8-2.1c-0.5-0.6-1.2-0.9-2.1-0.9H33.3z"/>
			<path class="st2" d="M112.3,48.6h-11.5V67h11.5c0.5,0,0.9,0.2,1.2,0.5c0.3,0.3,0.5,0.7,0.5,1.2v9.6c0,0.5-0.2,0.9-0.5,1.2
				c-0.3,0.3-0.7,0.5-1.2,0.5H72.1c-0.5,0-0.9-0.2-1.2-0.5c-0.3-0.3-0.5-0.7-0.5-1.2v-9.6c0-0.5,0.2-0.9,0.5-1.2
				c0.3-0.3,0.7-0.5,1.2-0.5h11.6V48.6H72.1c-0.5,0-0.9-0.2-1.2-0.5c-0.3-0.3-0.5-0.7-0.5-1.2v-9.6c0-0.5,0.2-0.9,0.5-1.2
				c0.3-0.3,0.7-0.5,1.2-0.5h40.2c0.5,0,0.9,0.2,1.2,0.5c0.3,0.3,0.5,0.7,0.5,1.2v9.6c0,0.5-0.2,0.9-0.5,1.2
				C113.2,48.5,112.8,48.6,112.3,48.6z"/>
			<path class="st2" d="M172.2,77.8c0.2,0.3,0.3,0.5,0.3,0.9c0,0.3-0.1,0.6-0.4,0.9c-0.3,0.3-0.6,0.4-1,0.4h-16.3
				c-1,0-1.7-0.3-2.3-1l-11-13.6v12.9c0,0.5-0.2,0.9-0.5,1.2c-0.3,0.3-0.7,0.5-1.2,0.5h-13.1c-0.5,0-0.9-0.2-1.2-0.5
				c-0.3-0.3-0.5-0.7-0.5-1.2V37.4c0-0.5,0.2-0.9,0.5-1.2c0.3-0.3,0.7-0.5,1.2-0.5h13.1c0.5,0,0.9,0.2,1.2,0.5
				c0.3,0.3,0.5,0.7,0.5,1.2v11.9l10-12.5c0.6-0.7,1.4-1.1,2.3-1.1h15.3c0.4,0,0.7,0.1,1,0.4c0.3,0.3,0.4,0.6,0.4,1
				s-0.1,0.7-0.3,0.9l-15,18.3L172.2,77.8z"/>
			<path class="st2" d="M195.2,67.6h25.3c0.5,0,0.9,0.2,1.2,0.5c0.3,0.3,0.5,0.7,0.5,1.2v8.9c0,0.5-0.2,0.9-0.5,1.2
				c-0.3,0.3-0.7,0.5-1.2,0.5h-40.1c-0.5,0-0.9-0.2-1.2-0.5c-0.3-0.3-0.5-0.7-0.5-1.2V37.4c0-0.5,0.2-0.9,0.5-1.2
				c0.3-0.3,0.7-0.5,1.2-0.5h39.4c0.5,0,0.9,0.2,1.2,0.5c0.3,0.3,0.5,0.7,0.5,1.2v8.9c0,0.5-0.2,0.9-0.5,1.2
				c-0.3,0.3-0.7,0.5-1.2,0.5h-24.7v4h21.2c0.5,0,0.9,0.2,1.2,0.5c0.3,0.3,0.5,0.7,0.5,1.2v8.2c0,0.5-0.2,0.9-0.5,1.2
				c-0.3,0.3-0.7,0.5-1.2,0.5h-21.2V67.6z"/>
		</g>
		<g class="st1">
			<path class="st2" d="M32.5,105.1v9.6c0,1.6,0.6,2.9,1.7,3.8c1.2,0.9,2.7,1.3,4.6,1.3c1.9,0,3.2-0.3,4.1-0.8
				c0.8-0.6,1.6-1.4,2.1-2.5c0.6-1.1,1.3-1.6,2.2-1.6H61c0.4,0,0.7,0.1,1,0.4c0.3,0.3,0.4,0.6,0.4,1c0,3.9-1.9,7.4-5.6,10.6
				c-1.9,1.6-4.3,2.9-7.4,3.8c-3.1,1-6.7,1.5-10.9,1.5c-4.2,0-8-0.6-11.4-1.9c-3.4-1.3-6.2-3.3-8.4-6.2c-2.2-2.9-3.2-6.4-3.2-10.5
				v-7.3c0-4.2,1.1-7.7,3.2-10.6c4.1-5.4,10.8-8,20.3-8c3.8,0,7.3,0.5,10.4,1.5c3.1,1,5.6,2.3,7.4,3.8c3.7,3.2,5.6,6.7,5.6,10.6
				c0,0.4-0.1,0.7-0.4,1c-0.3,0.3-0.6,0.4-1,0.4H47.3c-0.9,0-1.7-0.5-2.2-1.6c-0.6-1.1-1.3-1.9-2.1-2.5c-0.8-0.6-2.2-0.8-4.1-0.8
				c-1.9,0-3.4,0.4-4.6,1.3C33.1,102.2,32.5,103.4,32.5,105.1z"/>
			<path class="st2" d="M80.2,132h-12c-0.4,0-0.7-0.1-1-0.4c-0.3-0.3-0.4-0.5-0.4-0.8c0-0.3,0-0.4,0.1-0.6l13.8-40.5
				c0.4-1.4,1.3-2.1,2.9-2.1h17.6c1.5,0,2.5,0.7,2.9,2.1l13.8,40.5c0,0.1,0.1,0.3,0.1,0.6c0,0.3-0.1,0.5-0.4,0.8
				c-0.3,0.3-0.6,0.4-1,0.4h-12c-1.4,0-2.3-0.7-2.9-2.2l-1.6-4.4H84.7l-1.6,4.4C82.5,131.3,81.6,132,80.2,132z M96.9,113.1
				l-4.5-13.2l-4.5,13.2H96.9z"/>
			<path class="st2" d="M164.4,108.5c2.9,2.1,4.4,5.3,4.4,9.5s-2.1,7.6-6.4,10.2c-4.3,2.6-9.9,3.9-17,3.9c-7.1,0-12.5-1.3-16.4-3.9
				c-3.9-2.6-5.9-5.7-5.9-9.5c0-0.9,0.5-1.4,1.5-1.4h13c0.9,0,1.6,0.3,2.2,0.8c1.2,1.1,3.2,1.6,6.1,1.6c4,0,6-0.6,6-1.8
				c0-0.7-0.6-1.3-1.9-1.7c-1.3-0.4-3.8-0.8-7.5-1.3c-12-1.4-17.9-5.8-17.9-13.3c0-4.2,1.9-7.6,5.8-10.2c3.8-2.6,9-3.9,15.4-3.9
				c6.4,0,11.6,1.4,15.6,4.2c4,2.8,6,5.7,6,8.8c0,0.4-0.1,0.8-0.4,1c-0.3,0.3-0.6,0.4-1.1,0.4h-13.6c-0.8,0-1.4-0.2-2-0.7
				c-1-0.9-2.5-1.3-4.6-1.3c-2.8,0-4.2,0.6-4.2,1.7c0,0.6,0.5,1.1,1.6,1.4c1.1,0.3,3.3,0.7,6.6,1.1
				C156.5,105,161.4,106.4,164.4,108.5z"/>
			<path class="st2" d="M182.7,87.7h23.7c6,0,10.8,1.5,14.3,4.4c3.5,2.9,5.3,6.7,5.3,11.2c0,4.6-1.5,8.2-4.4,10.9c-3,2.7-8,4-15.1,4
				H198v12.2c0,0.5-0.2,0.9-0.5,1.2c-0.3,0.3-0.7,0.5-1.2,0.5h-13.6c-0.5,0-0.9-0.2-1.2-0.5c-0.3-0.3-0.5-0.7-0.5-1.2V89.4
				c0-0.5,0.2-0.9,0.5-1.2C181.8,87.9,182.2,87.7,182.7,87.7z M198.1,99.5v7h8c1,0,1.8-0.3,2.4-0.9c0.6-0.6,0.9-1.4,0.9-2.5
				c0-1.1-0.3-1.9-0.9-2.6c-0.6-0.7-1.4-1-2.4-1H198.1z"/>
			<path class="st2" d="M249,119.7h25.3c0.5,0,0.9,0.2,1.2,0.5c0.3,0.3,0.5,0.7,0.5,1.2v8.9c0,0.5-0.2,0.9-0.5,1.2
				c-0.3,0.3-0.7,0.5-1.2,0.5h-40c-0.5,0-0.9-0.2-1.2-0.5c-0.3-0.3-0.5-0.7-0.5-1.2V89.4c0-0.5,0.2-0.9,0.5-1.2
				c0.3-0.3,0.7-0.5,1.2-0.5h39.4c0.5,0,0.9,0.2,1.2,0.5c0.3,0.3,0.5,0.7,0.5,1.2v8.9c0,0.5-0.2,0.9-0.5,1.2
				c-0.3,0.3-0.7,0.5-1.2,0.5H249v4h21.2c0.5,0,0.9,0.2,1.2,0.5c0.3,0.3,0.5,0.7,0.5,1.2v8.2c0,0.5-0.2,0.9-0.5,1.2
				c-0.3,0.3-0.7,0.5-1.2,0.5H249V119.7z"/>
			<path class="st2" d="M332.8,130.1c0.1,0.2,0.1,0.4,0.1,0.7c0,0.3-0.1,0.6-0.4,0.9c-0.3,0.3-0.6,0.4-1,0.4h-14.4
				c-1.3,0-2.2-0.5-2.7-1.6l-5.6-12.5h-5.3v12.4c0,0.5-0.2,0.9-0.5,1.2c-0.3,0.3-0.7,0.5-1.2,0.5h-13.7c-0.5,0-0.9-0.2-1.2-0.5
				c-0.3-0.3-0.5-0.7-0.5-1.2V89.4c0-0.5,0.2-0.9,0.5-1.2s0.7-0.5,1.2-0.5h24.7c5.8,0,10.4,1.4,13.8,4.1c3.4,2.7,5.1,6.5,5.1,11.2
				c0,5.7-2.2,9.9-6.7,12.5L332.8,130.1z M303.6,99.5v6.7h7.9c0.9,0,1.6-0.3,2.2-0.9c0.5-0.6,0.8-1.4,0.8-2.3c0-0.9-0.2-1.7-0.7-2.4
				c-0.5-0.7-1.2-1-2.2-1H303.6z"/>
		</g>
	</g>
</g>
</svg>
