<svg xmlns="http://www.w3.org/2000/svg" xmlns:xlink="http://www.w3.org/1999/xlink" width="450" height="29.705" viewBox="0 0 450 29.705">
  <defs>
    <clipPath id="clip-path">
      <rect id="Rectangle_30" data-name="Rectangle 30" width="225.537" height="29.705" fill="#cc492f"/>
    </clipPath>
  </defs>
  <g id="Group_97" data-name="Group 97" transform="translate(-510 -216.811)">
    <g id="Group_66" data-name="Group 66" transform="translate(510 216.811)">
      <g id="Group_65" data-name="Group 65" transform="translate(0 0)" clip-path="url(#clip-path)">
        <path id="Path_1076" data-name="Path 1076" d="M197.343,29.705a38.465,38.465,0,0,1-19.989-5.158c-2.957-1.558-4.307-2.269-8.206-2.269s-5.248.711-8.2,2.269a38.461,38.461,0,0,1-19.988,5.158,38.462,38.462,0,0,1-19.988-5.158c-2.957-1.558-4.306-2.269-8.2-2.269s-5.247.711-8.2,2.269a38.46,38.46,0,0,1-19.987,5.158,38.461,38.461,0,0,1-19.988-5.158c-2.957-1.558-4.306-2.269-8.2-2.269s-5.247.711-8.2,2.269a38.461,38.461,0,0,1-19.988,5.158A38.46,38.46,0,0,1,8.2,24.548C5.247,22.99,3.9,22.279,0,22.279V0A38.457,38.457,0,0,1,19.987,5.158c2.957,1.558,4.306,2.269,8.2,2.269s5.248-.711,8.2-2.269A38.462,38.462,0,0,1,56.383,0,38.46,38.46,0,0,1,76.37,5.158c2.957,1.558,4.306,2.269,8.2,2.269s5.246-.711,8.2-2.269A38.46,38.46,0,0,1,112.765,0a38.46,38.46,0,0,1,19.987,5.158c2.957,1.558,4.307,2.269,8.2,2.269s5.248-.711,8.2-2.269a41.31,41.31,0,0,1,39.976,0c2.957,1.558,4.307,2.269,8.206,2.269s5.248-.711,8.206-2.269A38.464,38.464,0,0,1,225.537,0V22.279c-3.9,0-5.248.711-8.206,2.269a38.462,38.462,0,0,1-19.988,5.158" fill="#cc492f"/>
      </g>
    </g>
    <g id="Group_67" data-name="Group 67" transform="translate(734.463 216.811)">
      <g id="Group_65-2" data-name="Group 65" transform="translate(0 0)" clip-path="url(#clip-path)">
        <path id="Path_1076-2" data-name="Path 1076" d="M197.343,29.705a38.465,38.465,0,0,1-19.989-5.158c-2.957-1.558-4.307-2.269-8.206-2.269s-5.248.711-8.2,2.269a38.461,38.461,0,0,1-19.988,5.158,38.462,38.462,0,0,1-19.988-5.158c-2.957-1.558-4.306-2.269-8.2-2.269s-5.247.711-8.2,2.269a38.46,38.46,0,0,1-19.987,5.158,38.461,38.461,0,0,1-19.988-5.158c-2.957-1.558-4.306-2.269-8.2-2.269s-5.247.711-8.2,2.269a38.461,38.461,0,0,1-19.988,5.158A38.46,38.46,0,0,1,8.2,24.548C5.247,22.99,3.9,22.279,0,22.279V0A38.457,38.457,0,0,1,19.987,5.158c2.957,1.558,4.306,2.269,8.2,2.269s5.248-.711,8.2-2.269A38.462,38.462,0,0,1,56.383,0,38.46,38.46,0,0,1,76.37,5.158c2.957,1.558,4.306,2.269,8.2,2.269s5.246-.711,8.2-2.269A38.46,38.46,0,0,1,112.765,0a38.46,38.46,0,0,1,19.987,5.158c2.957,1.558,4.307,2.269,8.2,2.269s5.248-.711,8.2-2.269a41.31,41.31,0,0,1,39.976,0c2.957,1.558,4.307,2.269,8.206,2.269s5.248-.711,8.206-2.269A38.464,38.464,0,0,1,225.537,0V22.279c-3.9,0-5.248.711-8.206,2.269a38.462,38.462,0,0,1-19.988,5.158" fill="#cc492f"/>
      </g>
    </g>
  </g>
</svg>
