<svg id="Group_106" data-name="Group 106" xmlns="http://www.w3.org/2000/svg" xmlns:xlink="http://www.w3.org/1999/xlink" width="186.321" height="26.293" viewBox="0 0 186.321 26.293">
  <defs>
    <clipPath id="clip-path">
      <rect id="Rectangle_30" data-name="Rectangle 30" width="186.321" height="26.293" fill="#fff"/>
    </clipPath>
  </defs>
  <g id="Group_65" data-name="Group 65" transform="translate(0 0)" clip-path="url(#clip-path)">
    <path id="Path_1076" data-name="Path 1076" d="M163.03,26.293a30.2,30.2,0,0,1-16.513-4.565c-2.443-1.379-3.558-2.008-6.779-2.008s-4.335.629-6.778,2.008a30.192,30.192,0,0,1-16.512,4.565,30.193,30.193,0,0,1-16.512-4.565c-2.443-1.379-3.557-2.008-6.777-2.008s-4.335.629-6.777,2.008a30.191,30.191,0,0,1-16.512,4.565,30.192,30.192,0,0,1-16.512-4.565c-2.443-1.379-3.557-2.008-6.777-2.008s-4.335.629-6.778,2.008a30.192,30.192,0,0,1-16.512,4.565A30.191,30.191,0,0,1,6.777,21.728C4.335,20.349,3.22,19.72,0,19.72V0A30.189,30.189,0,0,1,16.512,4.565c2.443,1.379,3.557,2.008,6.777,2.008s4.335-.629,6.778-2.008A30.193,30.193,0,0,1,46.579,0,30.191,30.191,0,0,1,63.091,4.565c2.443,1.379,3.557,2.008,6.778,2.008s4.334-.629,6.777-2.008A30.191,30.191,0,0,1,93.158,0,30.191,30.191,0,0,1,109.67,4.565c2.443,1.379,3.558,2.008,6.778,2.008s4.335-.629,6.778-2.008a32.146,32.146,0,0,1,33.025,0c2.443,1.379,3.558,2.008,6.779,2.008s4.336-.629,6.779-2.008A30.194,30.194,0,0,1,186.321,0V19.72c-3.221,0-4.336.629-6.779,2.008a30.193,30.193,0,0,1-16.513,4.565" fill="#fff"/>
  </g>
</svg>
