<svg xmlns="http://www.w3.org/2000/svg" xmlns:xlink="http://www.w3.org/1999/xlink" width="173.993" height="8.185" viewBox="0 0 173.993 8.185">
  <defs>
    <clipPath id="clip-path">
      <rect id="Rectangle_30" data-name="Rectangle 30" width="57.998" height="8.185" fill="#fff"/>
    </clipPath>
  </defs>
  <g id="Group_104" data-name="Group 104" transform="translate(-1656.115 -706.487)">
    <g id="Group_102" data-name="Group 102" transform="translate(1656.115 706.487)">
      <g id="Group_65" data-name="Group 65" transform="translate(0 0)" clip-path="url(#clip-path)">
        <path id="Path_1076" data-name="Path 1076" d="M50.748,8.185a9.4,9.4,0,0,1-5.14-1.421,3.874,3.874,0,0,0-4.22,0,9.4,9.4,0,0,1-5.14,1.421,9.4,9.4,0,0,1-5.14-1.421,3.872,3.872,0,0,0-4.219,0,9.4,9.4,0,0,1-5.14,1.421,9.4,9.4,0,0,1-5.14-1.421,3.446,3.446,0,0,0-2.11-.625,3.446,3.446,0,0,0-2.11.625,9.4,9.4,0,0,1-5.14,1.421A9.4,9.4,0,0,1,2.11,6.763,3.446,3.446,0,0,0,0,6.138V0A9.4,9.4,0,0,1,5.14,1.421a3.446,3.446,0,0,0,2.11.625,3.446,3.446,0,0,0,2.11-.625A9.4,9.4,0,0,1,14.5,0a9.4,9.4,0,0,1,5.14,1.421,3.446,3.446,0,0,0,2.11.625,3.446,3.446,0,0,0,2.109-.625A9.4,9.4,0,0,1,29,0a9.4,9.4,0,0,1,5.14,1.421,3.446,3.446,0,0,0,2.11.625,3.447,3.447,0,0,0,2.11-.625,10.006,10.006,0,0,1,10.28,0,3.447,3.447,0,0,0,2.11.625,3.447,3.447,0,0,0,2.11-.625A9.4,9.4,0,0,1,58,0V6.138a3.447,3.447,0,0,0-2.11.625,9.4,9.4,0,0,1-5.14,1.421" fill="#fff"/>
      </g>
    </g>
    <g id="Group_103" data-name="Group 103" transform="translate(1714.113 706.487)">
      <g id="Group_65-2" data-name="Group 65" transform="translate(0 0)" clip-path="url(#clip-path)">
        <path id="Path_1076-2" data-name="Path 1076" d="M50.748,8.185a9.4,9.4,0,0,1-5.14-1.421,3.874,3.874,0,0,0-4.22,0,9.4,9.4,0,0,1-5.14,1.421,9.4,9.4,0,0,1-5.14-1.421,3.872,3.872,0,0,0-4.219,0,9.4,9.4,0,0,1-5.14,1.421,9.4,9.4,0,0,1-5.14-1.421,3.446,3.446,0,0,0-2.11-.625,3.446,3.446,0,0,0-2.11.625,9.4,9.4,0,0,1-5.14,1.421A9.4,9.4,0,0,1,2.11,6.763,3.446,3.446,0,0,0,0,6.138V0A9.4,9.4,0,0,1,5.14,1.421a3.446,3.446,0,0,0,2.11.625,3.446,3.446,0,0,0,2.11-.625A9.4,9.4,0,0,1,14.5,0a9.4,9.4,0,0,1,5.14,1.421,3.446,3.446,0,0,0,2.11.625,3.446,3.446,0,0,0,2.109-.625A9.4,9.4,0,0,1,29,0a9.4,9.4,0,0,1,5.14,1.421,3.446,3.446,0,0,0,2.11.625,3.447,3.447,0,0,0,2.11-.625,10.006,10.006,0,0,1,10.28,0,3.447,3.447,0,0,0,2.11.625,3.447,3.447,0,0,0,2.11-.625A9.4,9.4,0,0,1,58,0V6.138a3.447,3.447,0,0,0-2.11.625,9.4,9.4,0,0,1-5.14,1.421" fill="#fff"/>
      </g>
    </g>
    <g id="Group_105" data-name="Group 105" transform="translate(1772.111 706.487)">
      <g id="Group_65-3" data-name="Group 65" transform="translate(0 0)" clip-path="url(#clip-path)">
        <path id="Path_1076-3" data-name="Path 1076" d="M50.748,8.185a9.4,9.4,0,0,1-5.14-1.421,3.874,3.874,0,0,0-4.22,0,9.4,9.4,0,0,1-5.14,1.421,9.4,9.4,0,0,1-5.14-1.421,3.872,3.872,0,0,0-4.219,0,9.4,9.4,0,0,1-5.14,1.421,9.4,9.4,0,0,1-5.14-1.421,3.446,3.446,0,0,0-2.11-.625,3.446,3.446,0,0,0-2.11.625,9.4,9.4,0,0,1-5.14,1.421A9.4,9.4,0,0,1,2.11,6.763,3.446,3.446,0,0,0,0,6.138V0A9.4,9.4,0,0,1,5.14,1.421a3.446,3.446,0,0,0,2.11.625,3.446,3.446,0,0,0,2.11-.625A9.4,9.4,0,0,1,14.5,0a9.4,9.4,0,0,1,5.14,1.421,3.446,3.446,0,0,0,2.11.625,3.446,3.446,0,0,0,2.109-.625A9.4,9.4,0,0,1,29,0a9.4,9.4,0,0,1,5.14,1.421,3.446,3.446,0,0,0,2.11.625,3.447,3.447,0,0,0,2.11-.625,10.006,10.006,0,0,1,10.28,0,3.447,3.447,0,0,0,2.11.625,3.447,3.447,0,0,0,2.11-.625A9.4,9.4,0,0,1,58,0V6.138a3.447,3.447,0,0,0-2.11.625,9.4,9.4,0,0,1-5.14,1.421" fill="#fff"/>
      </g>
    </g>
  </g>
</svg>
