<?xml version="1.0" encoding="utf-8"?>
<!-- Generator: Adobe Illustrator 26.3.1, SVG Export Plug-In . SVG Version: 6.00 Build 0)  -->
<svg version="1.1" id="Layer_1" xmlns="http://www.w3.org/2000/svg" xmlns:xlink="http://www.w3.org/1999/xlink" x="0px" y="0px"
	 viewBox="0 0 174 8.2" style="enable-background:new 0 0 174 8.2;" xml:space="preserve">
<style type="text/css">
	.st0{clip-path:url(#SVGID_00000016787543690894163810000004553743852280202412_);}
	.st1{fill:#FFFFFF;}
	.st2{clip-path:url(#SVGID_00000122704823724729076940000000575661201111549573_);}
	.st3{clip-path:url(#SVGID_00000047055477958043587960000017985963943057017763_);}
</style>
<g id="Group_104" transform="translate(-1656.115 -706.487)">
	<g id="Group_102" transform="translate(1656.115 706.487)">
		<g>
			<defs>
				<rect id="SVGID_1_" y="0" width="58.4" height="8.2"/>
			</defs>
			<clipPath id="SVGID_00000135671866601582088730000000242368574247112879_">
				<use xlink:href="#SVGID_1_"  style="overflow:visible;"/>
			</clipPath>
			
				<g id="Group_65" transform="translate(0 0)" style="clip-path:url(#SVGID_00000135671866601582088730000000242368574247112879_);">
				<path id="Path_1076" class="st1" d="M51.1,8.2c-1.8,0-3.6-0.5-5.2-1.4c-1.3-0.8-3-0.8-4.2,0c-1.5,1-3.3,1.5-5.2,1.4
					c-1.8,0-3.6-0.5-5.2-1.4c-1.3-0.8-3-0.8-4.2,0c-1.5,1-3.3,1.5-5.2,1.4c-1.8,0-3.6-0.5-5.2-1.4c-0.6-0.4-1.4-0.7-2.1-0.6
					c-0.8,0-1.5,0.2-2.1,0.6c-1.5,1-3.3,1.5-5.2,1.4c-1.8,0-3.6-0.5-5.2-1.4C1.5,6.3,0.8,6.1,0,6.1V0c1.8,0,3.6,0.5,5.2,1.4
					C5.8,1.9,6.5,2.1,7.3,2c0.8,0,1.5-0.2,2.1-0.6C11,0.5,12.8,0,14.6,0c1.8,0,3.6,0.5,5.2,1.4c0.6,0.4,1.4,0.7,2.1,0.6
					c0.8,0,1.5-0.2,2.1-0.6c1.5-1,3.3-1.5,5.2-1.4c1.8,0,3.6,0.5,5.2,1.4C35,1.9,35.7,2.1,36.5,2c0.8,0,1.5-0.2,2.1-0.6
					c3.2-1.9,7.2-1.9,10.3,0c0.6,0.4,1.4,0.7,2.1,0.6c0.8,0,1.5-0.2,2.1-0.6c1.5-1,3.3-1.5,5.2-1.4v6.1c-0.8,0-1.5,0.2-2.1,0.6
					C54.7,7.7,52.9,8.2,51.1,8.2"/>
			</g>
		</g>
	</g>
	<g id="Group_103" transform="translate(1714.113 706.487)">
		<g>
			<defs>
				<rect id="SVGID_00000139278387920613155190000008778178891440978102_" x="-0.3" y="0" width="58.4" height="8.2"/>
			</defs>
			<clipPath id="SVGID_00000049909792377255640760000012167590157128327833_">
				<use xlink:href="#SVGID_00000139278387920613155190000008778178891440978102_"  style="overflow:visible;"/>
			</clipPath>
			
				<g id="Group_65-2" transform="translate(0 0)" style="clip-path:url(#SVGID_00000049909792377255640760000012167590157128327833_);">
				<path id="Path_1076-2" class="st1" d="M50.8,8.2c-1.8,0-3.6-0.5-5.2-1.4c-1.3-0.8-3-0.8-4.2,0c-1.5,1-3.3,1.5-5.2,1.4
					c-1.8,0-3.6-0.5-5.2-1.4c-1.3-0.8-3-0.8-4.2,0c-1.5,1-3.3,1.5-5.2,1.4c-1.8,0-3.6-0.5-5.2-1.4c-0.6-0.4-1.4-0.7-2.1-0.6
					c-0.8,0-1.5,0.2-2.1,0.6c-1.5,1-3.3,1.5-5.2,1.4c-1.8,0-3.6-0.5-5.2-1.4C1.2,6.3,0.5,6.1-0.3,6.1V0c1.8,0,3.6,0.5,5.2,1.4
					C5.5,1.9,6.2,2.1,7,2c0.8,0,1.5-0.2,2.1-0.6c1.5-1,3.3-1.5,5.2-1.4c1.8,0,3.6,0.5,5.2,1.4c0.6,0.4,1.4,0.7,2.1,0.6
					c0.8,0,1.5-0.2,2.1-0.6C25.2,0.5,27,0,28.9,0c1.8,0,3.6,0.5,5.2,1.4c0.6,0.4,1.4,0.7,2.1,0.6c0.8,0,1.5-0.2,2.1-0.6
					c3.2-1.9,7.2-1.9,10.3,0C49.3,1.9,50,2.1,50.8,2c0.8,0,1.5-0.2,2.1-0.6C54.4,0.5,56.2,0,58,0v6.1c-0.8,0-1.5,0.2-2.1,0.6
					C54.4,7.7,52.6,8.2,50.8,8.2"/>
			</g>
		</g>
	</g>
	<g id="Group_105" transform="translate(1772.111 706.487)">
		<g>
			<defs>
				<rect id="SVGID_00000062880228262959201490000009405946858372503212_" x="-0.4" y="0" width="58.4" height="8.2"/>
			</defs>
			<clipPath id="SVGID_00000003790435884117734920000010308356375918537913_">
				<use xlink:href="#SVGID_00000062880228262959201490000009405946858372503212_"  style="overflow:visible;"/>
			</clipPath>
			
				<g id="Group_65-3" transform="translate(0 0)" style="clip-path:url(#SVGID_00000003790435884117734920000010308356375918537913_);">
				<path id="Path_1076-3" class="st1" d="M50.7,8.2c-1.8,0-3.6-0.5-5.2-1.4c-1.3-0.8-3-0.8-4.2,0c-1.5,1-3.3,1.5-5.2,1.4
					c-1.8,0-3.6-0.5-5.2-1.4c-1.3-0.8-3-0.8-4.2,0c-1.5,1-3.3,1.5-5.2,1.4c-1.8,0-3.6-0.5-5.2-1.4c-0.6-0.4-1.4-0.7-2.1-0.6
					c-0.8,0-1.5,0.2-2.1,0.6c-1.5,1-3.3,1.5-5.2,1.4c-1.8,0-3.6-0.5-5.2-1.4C1.1,6.3,0.4,6.1-0.4,6.1V0c1.8,0,3.6,0.5,5.2,1.4
					C5.4,1.9,6.2,2.1,6.9,2c0.8,0,1.5-0.2,2.1-0.6c1.5-1,3.3-1.5,5.2-1.4c1.8,0,3.6,0.5,5.2,1.4C20,1.9,20.8,2.1,21.5,2
					c0.8,0,1.5-0.2,2.1-0.6C25.2,0.5,27,0,28.8,0c1.8,0,3.6,0.5,5.2,1.4c0.6,0.4,1.4,0.7,2.1,0.6c0.8,0,1.5-0.2,2.1-0.6
					c3.2-1.9,7.2-1.9,10.3,0c0.6,0.4,1.4,0.7,2.1,0.6c0.8,0,1.5-0.2,2.1-0.6C54.4,0.5,56.2,0,58,0v6.1c-0.8,0-1.5,0.2-2.1,0.6
					C54.3,7.7,52.5,8.2,50.7,8.2"/>
			</g>
		</g>
	</g>
</g>
</svg>
