<?xml version="1.0" encoding="utf-8"?>
<!-- Generator: Adobe Illustrator 26.3.1, SVG Export Plug-In . SVG Version: 6.00 Build 0)  -->
<svg version="1.1" id="Layer_1" xmlns="http://www.w3.org/2000/svg" xmlns:xlink="http://www.w3.org/1999/xlink" x="0px" y="0px"
	 viewBox="0 0 285 285" style="enable-background:new 0 0 285 285;" xml:space="preserve">
<style type="text/css">
	.st0{opacity:0.5;}
	.st1{fill:#151616;}
</style>
<g id="Group_96" class="st0">
	<path id="Path_84" class="st1" d="M0,231c3.4,1.2,6.9,2.1,10.1,3.7c3.1,1.6,5.9,3.8,8.1,6.4c1.5,1.7,2.8,3.6,4,5.6
		c1.5,2.6,2.8,5.3,3.8,8.1c1.6,4.6,3.5,9.2,5.6,13.6c1.1,2.3,2.5,4.5,4.2,6.4c1.4,1.8,3.4,3,5.6,3.6c0.5,0.1,1,0.2,1.6,0.1
		c2.3-0.1,4.4-0.9,6.2-2.4c0.4-0.4,0.9-0.5,1.3-0.8c1.5-1.4,2.6-3.2,3.1-5.2c0.5-1.8,0.8-3.6,0.9-5.4c0.3-4.2,0.1-8.3,0.2-12.5
		c0-2,0.3-4,0.8-5.9c1.2-4.5,4.2-7.2,8.8-8c2.5-0.5,5-0.7,7.4-1.2c1-0.2,2-0.6,2.9-1.1c1.5-0.8,2.5-2.3,2.9-3.9
		c0.3-1.1,0.6-2.1,0.9-3.2c0.8-2.7,3-4.8,5.7-5.6c0.8-0.2,1.5-0.5,2.3-0.7c2.1-0.4,3.9-1.9,4.6-4c1.6-3.5,1.2-7.5-1.1-10.6
		c-0.6-0.8-1.3-1.6-2.1-2.1c-3.1-2.2-5.9-4.8-8.2-7.9c-1.6-1.9-3.1-3.9-4.8-5.7c-1.8-1.9-3.8-3.8-5.9-5.4c-2.3-1.8-5.1-2.8-8-2.8
		c-2.6,0-5.2,0.4-7.7,1c-1.2,0.3-2.5,0.5-3.7,0.7c-0.5,0.1-1.1,0.1-1.7,0c-1.7-0.3-2.8-2-2.4-3.7c0,0,0,0,0,0
		c0.2-1.3,0.8-2.5,1.6-3.5c1-1.4,2.3-2.5,3.6-3.5c1.9-1.5,3.9-2.7,6.1-3.8c2.1-1,4.3-1.7,6.5-2.2c0.9-0.2,1.9-0.2,2.8-0.1
		c0.5,0,1,0.2,1.4,0.4c1.5,0.8,3.1,1.3,4.7,1.6c2.5,0.4,4.9,1,7.3,1.8c1.9,0.7,3.6,1.9,4.9,3.5c2.6,3.3,6.1,6,10,7.7
		c2.5,1.2,5.3,1.8,8.1,1.9c1.2-0.1,2.4-0.2,3.5-0.4c3-0.4,6.2-0.1,9.1,0.9c3.3,1.2,6.5,2.8,9.4,4.9c0.8,0.6,1.7,1.1,2.5,1.7
		c2.7,1.9,5.7,3.2,9,3.7c2.2,0.4,4.3,0.6,6.5,0.7c3.8,0.2,7.6-0.1,11.3-0.9c2.6-0.5,5.1-1.5,7.4-2.9c2.4-1.5,4.3-3.9,5.3-6.6
		c2-4.9,1.6-9.8-0.3-14.6c-0.8-2-1.8-4-2.9-5.8c-0.9-1.2-1.4-2.6-1.7-4.1c-0.1-0.9,0-1.9,0.2-2.8c0.4-1.7,0.8-3.4,1.4-5.1
		c0.4-1.4,0.7-2.8,0.9-4.2c0.1-1.6-0.2-3.2-1.1-4.6c-0.6-1.2-1.5-2.2-2.6-3.1c-1-0.7-1.7-1.6-2.7-2.3s-1.9-1.5-2.9-2.2s-2-1.4-3-2.1
		c-1.3-1-2.7-2-3.9-3.1c-2.3-2.2-4-4.8-5.3-7.6c-0.9-2.1-1.7-4.3-2.3-6.5c-0.6-1.7-1.7-3.2-3.1-4.3c-1.3-1-2.7-1.9-4.2-2.7
		c-3.9-2-6.7-5.8-7.5-10.2c-0.3-2-0.8-3.9-1.5-5.8c-1.4-3.3-4.1-5.9-7.5-7.1c-2.6-1.1-5.4-1.7-8-2.8c-4.2-1.7-7.6-5-9.4-9.1
		c-1-2.2-1.8-4.4-2.7-6.6c-1.3-2.8-3.1-5.4-5.4-7.4c-1.8-1.7-3.9-3.1-6.2-4.2c-2.8-1.4-5.9-2-9-1.7c-1.1,0.1-2.2,0.4-3.2,0.9
		c-5.1,1.9-10.5,3.2-15.9,3.7c-2.6,0.3-5.3,0.6-7.9,0.9c-2.3,0.3-4.7,0.5-7.1,0.7c-3.4,0.3-6.8,0.8-10.2,1.7c-3.9,0.9-7,4-7.8,7.9
		c-0.4,1.7-0.7,3.4-0.8,5.1c-0.1,1-0.1,2.1-0.2,3.1c-0.1,2.1-1.4,3.9-3.3,4.6c-1.3,0.6-2.7,0.9-4.1,0.9c-2.8,0-5.5,0.3-8.2,0.3
		c-2.4,0-4.7-0.4-7-1.1v-0.8c0.6,0,1.1,0.1,1.6,0.3c3.1,0.7,6.2,0.9,9.3,0.6c1.6-0.2,3.3,0,4.9-0.2c0.8-0.1,1.6-0.3,2.3-0.5
		c2.2-0.9,3.4-2,3.5-4.6c0.1-2.1,0.3-4.2,0.7-6.3c0.3-2.1,1-4,2.2-5.8c1.7-2.3,4.3-4,7.1-4.6c2.3-0.6,4.6-1,7-1.2
		c3.4-0.4,6.8-0.8,10.2-1c3.2-0.2,6.3-0.6,9.4-1.1c4.7-0.6,9.3-1.8,13.8-3.4c3.3-1.3,7-1.4,10.3-0.3c3.2,1,6.2,2.7,8.7,5
		c2.6,2.3,4.7,5.1,6.2,8.3c0.7,1.6,1.3,3.3,1.9,4.9c1.1,2.8,2.7,5.3,4.9,7.4c1.3,1.1,2.7,2,4.2,2.7c2.1,0.9,4.2,1.7,6.4,2.3
		c2.5,0.7,4.7,1.9,6.7,3.5c1.6,1.5,2.9,3.4,3.6,5.5c0.6,1.6,1,3.3,1.2,5c0.7,4.2,3.3,7.9,7.2,9.9c1.5,0.8,2.9,1.8,4.3,2.8
		c1.9,1.5,3.2,3.5,3.8,5.8c0.6,2.3,1.5,4.6,2.6,6.8c1.6,3.3,4,6,7,8.1c2.7,1.8,5.3,3.7,7.8,5.7c2.1,1.5,3.9,3.5,5.1,5.8
		c0.8,1.5,1.1,3.3,0.8,5c-0.3,1.8-0.8,3.6-1.4,5.4c-0.7,1.7-1,3.5-1.1,5.3c0,1,0.3,2.1,0.8,3c0.6,1,1.2,2.1,1.8,3.2
		c1.3,2.3,2.3,4.7,3,7.3c1.1,4.3,0.8,8.8-1,12.9c-1.6,3.8-4.5,6.2-8.2,7.8c-3.3,1.4-6.9,2.2-10.5,2.5c-4.1,0.4-8.2,0.2-12.3-0.6
		c-3.9-0.6-7.6-2.2-10.8-4.6c-3-2.4-6.3-4.2-9.9-5.5c-3.3-1.3-7-1.6-10.5-0.9c-2.8,0.5-5.6,0.3-8.2-0.7c-2.7-0.8-5.2-2.1-7.6-3.7
		c-1.9-1.3-3.6-2.9-5-4.7c-1.7-2.3-4.1-3.8-6.9-4.4c-2.1-0.5-4.2-0.9-6.3-1.4c-1.3-0.3-2.5-0.7-3.7-1.4c-1.1-0.5-2.3-0.7-3.5-0.4
		c-1.1,0.1-2.1,0.4-3.1,0.8c-3,1.1-5.8,2.5-8.4,4.3c-1.6,1.2-3.1,2.5-4.4,4.1c-0.5,0.7-1,1.4-1.2,2.3c-0.2,0.7-0.3,1.4,0,2.1
		c0.2,1,1.2,1.6,2.1,1.4c1.1-0.1,2.2-0.3,3.3-0.5c2.4-0.7,4.8-1.1,7.3-1.4c2.6-0.2,5.3,0.2,7.7,1.4c1.9,1,3.6,2.2,5.1,3.7
		c3.2,3.1,6.2,6.4,9,9.9c0.8,1,1.6,2,2.5,2.9c1.3,1.3,2.7,2.6,4.3,3.6c1.5,1,2.7,2.3,3.7,3.8c1.2,2.1,1.7,4.6,1.4,7
		c-0.1,1.2-0.4,2.4-0.9,3.5c-0.9,2.3-2.8,4-5.2,4.5c-1.4,0.3-2.7,0.8-4,1.5c-1.2,0.6-2.2,1.5-2.8,2.7c-0.5,1-0.9,2.2-1.2,3.3
		c-0.2,0.9-0.5,1.9-0.8,2.8c-0.6,1.4-1.6,2.5-3,3.2c-2.3,1-4.8,1.6-7.4,1.9c-1.7,0.2-3.4,0.5-5,1c-2.9,0.9-5.1,3.2-5.9,6.1
		c-0.5,1.7-0.8,3.4-0.9,5.1c-0.3,3.6-0.1,7.2-0.2,10.8c0,2.7-0.2,5.4-0.8,8c-0.5,2.5-1.8,4.7-3.6,6.5c-0.6,0.5-1.2,1-1.8,1.4
		c-1.7,1-3.6,1.7-5.6,2c-2.8,0.2-5.5-0.8-7.4-2.8c-1.8-1.8-3.4-3.8-4.6-6.1c-1.8-3.4-3.4-6.9-4.7-10.5c-1.3-3.4-2.4-6.8-4-10.1
		c-1.6-3.2-3.6-6.2-6-8.9c-2.8-3-6.3-5.3-10.1-6.7c-2-0.7-4-1.3-5.9-2.1C0.5,232.1,0.3,232,0,232V231z"/>
	<path id="Path_85" class="st1" d="M274.9,285c-1.7-5.9-5.2-11.2-9.9-15.1c-2.1-1.9-4.4-3.5-6.9-4.8c-2.3-1.2-4.5-2.5-6.5-4.1
		c-3.8-2.6-6.7-6.4-8.4-10.7c-0.6-1.6-1-3.4-1.1-5.1c-0.1-2.3,0-4.7,0.5-7c0.7-2.6-0.8-5.2-3.4-6c-0.1,0-0.3-0.1-0.4-0.1
		c-1.7-0.5-3.5-0.7-5.3-0.7c-1.6,0-3.2,0.2-4.8,0.3c-4.4,0.6-8.8-1.2-11.5-4.7c-1.1-1.4-2.3-2.8-3.4-4.2c-1.8-2.2-4.6-3.5-7.4-3.4
		c-2.2,0-4.5,0.3-6.6,1.1c-1.6,0.5-3.2,1.1-4.7,1.9c-1.9,1-4,1.6-6.1,1.7c-1.8,0-3.6-0.3-5.2-0.9c-1.5-0.5-2.9-1.2-4.4-1.8
		c-1.4-0.6-2.6-1.4-4-1.9c-5.1-2.2-11.1-1.5-15.6,1.8c-0.8,0.6-1.5,1.3-2.1,2c-0.3,0.3-0.4,0.8-0.1,1.2c0,0,0.1,0.1,0.1,0.1
		c0.5,0.5,1.2,1,1.9,1.2c2,0.8,4.1,1.3,6.2,1.6c4.4,0.8,8.7,1.3,13.1,1.7c2.8,0.2,5.7,0.8,8.3,1.8c4,1.5,7.3,3.2,10.1,6.2
		c2,2.1,3.2,4.8,3.4,7.7c0,1.1-0.2,2.2-0.6,3.2c-0.6,1.6-1.4,3.1-2.6,4.4c-1.5,1.9-3.3,3.5-5.3,4.7c-0.8,0.5-1.7,0.8-2.6,1.1
		c-1.2,0.5-2.6-0.2-3.1-1.4c-0.1-0.3-0.2-0.7-0.2-1c0-1.1,0.1-2.1,0.4-3.2c0.6-1.9,0.8-3.9,0.7-5.8c-0.2-2.8-1.4-5.4-3.4-7.3
		c-2-1.9-4.5-3.3-7.1-3.9c-2-0.5-4-0.8-6.1-0.9c-2.7-0.3-5.4-0.5-8.1-0.9c-2.4-0.3-4.8-0.7-7.2-1.3c-2.7-0.6-5.3-1.7-7.7-3.1
		c-2.4-1.5-4.1-3.9-4.8-6.7c-0.4-1.9,0.2-3.8,1.5-5.2c1.3-1.3,2.7-2.5,4.4-3.3c0.6-0.4,1.3-0.7,1.9-1.1c0.4-0.2,0.8-0.5,1.1-0.9
		c0.4-0.4,0.3-0.7-0.3-0.9c-0.7-0.2-1.4-0.3-2.2-0.3c-3.5-0.1-6.9,0.1-10.3,0.3c-2.4,0.1-4.9,0.1-7.3,0c-0.8-0.1-1.7,0-2.5,0.3
		c-1.2,0.2-2,1.4-1.7,2.6c0.1,0.3,0.2,0.6,0.4,0.9c0.7,1.1,1.7,2,2.9,2.4c1.8,0.8,3.5,1.8,5,3.1c2,1.6,3.3,3.8,3.8,6.3
		c0.1,0.6,0.1,1.3,0,2c-0.6,2.5,0.5,5.1,2.7,6.5c2.4,1.7,5.3,2.7,8.2,3c1.9,0.2,3.8,0.1,5.6,0.3c3.1,0.1,6.3,0.4,9.3,1
		c2.8,0.5,5.5,1.6,7.9,3.1c3.1,2.1,5.3,5.4,6.1,9.1c1.2,4.8,0.4,9.5-1.2,14.1c-1.1,3-2.6,5.9-4.4,8.5c-0.6,0.8-1.3,1.6-2,2.4
		c-2,2.3-3.4,5-4.2,7.9h-1c0.7-2.7,1.9-5.2,3.6-7.4c0.5-0.7,1.1-1.5,1.7-2.1c1.8-2.1,3.3-4.4,4.3-6.9c1.3-2.6,2.1-5.3,2.5-8.2
		c0.6-3.7,0.2-7.5-1.2-11c-1.7-3.8-4.6-6.1-8.4-7.6c-2.3-0.8-4.7-1.3-7.1-1.5c-3.4-0.5-6.8-0.4-10.2-0.6c-3.6-0.1-7.1-1.3-10.1-3.3
		c-1.8-1.2-3-3.1-3.3-5.3c0-0.5,0-1.1,0.1-1.6c0.3-1.6,0-3.4-0.9-4.8c-0.9-1.6-2.2-3-3.8-4.1c-1.1-0.7-2.2-1.3-3.3-1.8
		c-1.4-0.6-2.7-1.6-3.6-2.9c-1-1.4-0.7-3.4,0.7-4.4c0.3-0.2,0.5-0.3,0.8-0.4c1-0.3,2-0.5,3.1-0.4c2.5,0.1,5,0.1,7.5,0
		c2.3-0.1,4.5-0.3,6.8-0.3c1.3,0,2.5,0,3.8,0c0.8,0,1.7,0.2,2.4,0.5c1,0.4,1.2,1.2,0.5,2.1c-0.4,0.5-1,0.9-1.5,1.2
		c-1.1,0.6-2.2,1.3-3.3,1.9c-1,0.6-2,1.4-2.8,2.3c-1.2,1.3-1.6,3.1-1.1,4.7c0.6,2.3,2.2,4.3,4.2,5.6c2.5,1.6,5.3,2.7,8.2,3.3
		c3.1,0.7,6.3,1.2,9.5,1.5c3.1,0.3,6.2,0.4,9.2,1c3.4,0.6,6.6,2.1,9.2,4.4c2.1,1.9,3.4,4.5,3.8,7.3c0.3,2.1,0.1,4.2-0.4,6.2
		c-0.1,0.7-0.3,1.3-0.5,2c-0.1,0.5-0.2,1-0.1,1.5c0,0.9,0.6,1.6,1.5,1.7c0.3,0,0.5,0,0.7-0.1c0.6-0.2,1.1-0.4,1.6-0.6
		c2.9-1.6,5.4-4,7.1-6.9c0.9-1.3,1.4-2.9,1.5-4.4c0-2-0.6-4-1.7-5.7c-1.3-2.1-3.2-3.8-5.3-5.1c-4.1-2.6-8.8-4.1-13.7-4.5
		c-5-0.4-10-1.1-15-2.1c-2-0.4-4-1-5.9-1.8c-0.5-0.2-1-0.5-1.3-1c-0.6-0.6-0.7-1.5-0.3-2.2c0.2-0.3,0.4-0.7,0.7-0.9
		c3-3.1,7.1-4.8,11.4-4.8c2.9-0.1,5.7,0.6,8.3,1.9c2.3,1.2,4.7,2.3,7.1,3.2c3.4,1.2,7.1,0.9,10.3-0.7c1.9-1,3.8-1.7,5.8-2.4
		c2.3-0.7,4.7-0.9,7-0.8c3.1,0.2,5.9,1.8,7.7,4.4c1.3,1.7,2.7,3.4,4.2,4.9c2.5,2.5,5.9,3.6,9.4,3.1c2.2-0.3,4.4-0.4,6.6-0.3
		c1.7,0.1,3.5,0.5,5.1,1.2c2.3,0.9,3.7,3.3,3.3,5.7c-0.2,1.3-0.4,2.6-0.5,3.9c-0.6,4.3,0.4,8.7,2.8,12.4c1.5,2.3,3.3,4.3,5.5,5.9
		c2.3,1.8,4.7,3.3,7.3,4.6c1.5,0.8,3,1.7,4.4,2.8c3.2,2.3,6,5.1,8.4,8.3c1.9,2.6,3.3,5.5,4.2,8.5c0.1,0.4,0.2,0.7,0.1,1.1L274.9,285
		z"/>
	<path id="Path_86" class="st1" d="M285,199c-2.6-0.7-5.2-0.8-7.8-1.3c-3.1-0.5-6.1-1.8-8.7-3.6c-2.5-1.7-4.7-3.8-6.5-6.2
		c-2.3-3-4.4-6.2-6.1-9.6c-0.7-1.3-1.4-2.5-2.4-3.7c-1.1-1.3-2.5-2.2-4.2-2.6c-2.2-0.4-4.4-0.9-6.5-1.7c-0.9-0.4-1.8-0.9-2.6-1.5
		c-1.3-1.1-1.9-2.8-1.5-4.5c0.2-1.2,0.6-2.3,1.2-3.4c0.9-1.7,1.3-3.5,1.2-5.4c-0.1-1.1-0.3-2.2-0.7-3.2c-0.6-1.7-1.1-3.4-1.4-5.1
		c-0.4-1.5-0.5-3.1-0.3-4.6c0.4-2.5,1.8-4.6,3.8-6.1c1.8-1.5,3.7-2.9,5.4-4.6c1.6-1.5,2.9-3.3,3.9-5.2c0.6-1.3,0.8-2.7,0.4-4
		c-0.4-1.6-1.6-2.9-3.1-3.4c-2.2-1-4.7-1-6.9-0.2c-2.7,1-5.2,2.4-7.4,4.4c-2.3,1.9-4.4,4.2-6,6.7c-1.7,2.4-2.8,5.2-3.3,8.1
		c-0.3,1.9-0.3,3.9-0.2,5.9c0.2,3.1,0.8,6.1,1.1,9.1c0.3,2.9-0.3,5.8-1.7,8.4c-1.4,2.8-3.3,5.3-5.5,7.5c-1.6,1.6-3.4,3.2-5.3,4.6
		c-2.6,2-5.2,3.9-7.7,5.8c-1.3,1-2.5,2.1-3.6,3.3c-2.7,3.2-6,5.8-9.8,7.5c-2.6,1.3-5.5,1.9-8.4,1.8c-2.9-0.2-5.6-1.3-7.7-3.2
		c-1.7-1.7-2.5-4.1-2-6.5c0.4-2.3,1.1-4.5,2-6.6c0.7-1.6,1.4-3.1,2.1-4.6c0.5-1,0.9-2,1.2-3.1c0.3-0.8,0.2-1.7-0.2-2.5
		c-1.1-2.1-1.7-4.5-1.7-6.9c-0.1-3.7,0.2-7.4,0.8-11c0.7-3.9-0.4-7.9-2.9-11c-1.8-2.2-3.9-4.2-6.2-5.8c-2-1.5-4-2.9-6.2-4.1
		c-1.6-0.9-3-2-4.2-3.3c-1.5-1.4-2.4-3.5-2.3-5.6c0-1.2,0-2.5,0.1-3.7c0.2-2.8-0.7-5.5-2.4-7.8c-2-2.9-4.3-5.5-7-7.8
		c-0.6-0.5-1.2-1-1.8-1.6c-1.2-1.1-1.9-2.7-1.9-4.4c0-1.7,0.1-3.3,0.4-4.9c0.4-2.6,0.5-5.1,0.3-7.7c-0.2-2.9-0.6-5.8-1.3-8.7
		c-1.1-5.4-2.9-10.6-5.2-15.6c-0.9-1.8-2-3.4-2.8-5.2c-0.8-1.7-1.4-3.5-1.7-5.3c-0.7-3.7,0-7.5,1.7-10.7c0.9-1.7,1.8-3.4,2.5-5.1
		c1.3-3.2,1.8-6.7,1.6-10.1c-0.1-1.6-0.5-3.1-1.1-4.6c-0.5-1.2-0.8-2.5-0.9-3.8c-0.2-3.1,0-6.2,0.5-9.3c0.1-0.4,0.2-0.8,0.3-1.2
		c0-0.2,0.3-0.4,0.5-0.3c0,0,0,0,0.1,0c0.2,0.1,0.3,0.3,0.3,0.5c-0.1,0.6-0.1,1.2-0.2,1.7c-0.4,2.4-0.6,4.8-0.5,7.2
		c0,1.8,0.4,3.5,1,5.1c0.7,1.6,1,3.3,1.1,5c0.2,4.9-1,9.8-3.5,14.1c-1.7,2.7-2.6,5.9-2.5,9.1c0.1,2.5,0.7,4.9,1.8,7.1
		c0.7,1.4,1.4,2.8,2.2,4.2c1.6,2.9,2.8,5.9,3.8,9.1c1,3.2,1.9,6.4,2.5,9.7c0.8,4.1,1.1,8.3,0.9,12.6c-0.1,1-0.2,2-0.4,3
		c-0.4,1.7-0.5,3.5-0.2,5.2c0.2,1,0.6,1.8,1.3,2.6c1,1,2,1.9,3,2.7c0.9,0.8,1.7,1.7,2.5,2.6c1.1,1.3,2.2,2.7,3.3,4
		c2.1,2.6,3.1,5.9,2.9,9.3c-0.1,0.9-0.1,1.8-0.2,2.7c-0.1,2.3,0.9,4.5,2.7,6c1.3,1.2,2.7,2.2,4.2,3.1c2.8,1.7,5.4,3.5,7.9,5.5
		c2.8,2.2,4.9,5,6.3,8.2c0.9,2.3,1.1,4.7,0.7,7.1c-0.4,3.1-0.7,6.2-0.9,9.3c-0.1,2.2,0.1,4.5,0.7,6.7c0.2,0.7,0.5,1.4,0.9,2.1
		c0.5,0.8,0.6,1.7,0.3,2.6c-0.4,1.5-1,2.9-1.7,4.2c-1.2,2.5-2.3,5.1-3.2,7.7c-0.4,1.2-0.6,2.5-0.6,3.8c-0.1,2.1,1,4,2.7,5.2
		c2.8,2,6.3,2.8,9.7,2c2-0.4,3.9-1.1,5.6-2.1c3-1.6,5.7-3.8,7.9-6.3c2-2.1,4.2-4,6.6-5.7c2.6-2,5.3-3.9,7.8-6.1
		c2-1.7,3.8-3.5,5.4-5.6c1.8-2.3,3.1-4.9,3.8-7.7c0.2-1.1,0.3-2.3,0.2-3.5c-0.2-2.8-0.8-5.6-1-8.4c-0.4-4.7-0.1-9.3,2.2-13.6
		c1.7-3.2,3.9-6,6.6-8.5c2-1.8,4.2-3.4,6.7-4.5c2.3-1.2,5-1.6,7.5-1.1c1.7,0.2,3.3,1,4.5,2.3c1.9,2.1,1.8,4.5,0.8,7
		c-1.2,2.5-2.9,4.7-5,6.4c-1.6,1.5-3.4,2.9-5,4.3c-1.9,1.5-3,3.8-2.9,6.1c0.1,1.9,0.4,3.8,0.9,5.6c0.4,1.2,0.7,2.3,1.1,3.5
		c0.8,2.8,0.5,5.8-0.8,8.3c-0.7,1.2-1.1,2.6-1.1,3.9c0,1.3,0.6,2.6,1.8,3.3c1.1,0.7,2.3,1.2,3.5,1.5c1.2,0.3,2.4,0.6,3.6,0.8
		c2.6,0.4,5,1.9,6.5,4.1c1.3,1.8,2.3,3.8,3.4,5.7c2,3.6,4.4,7,7.3,9.9c3.1,3.2,7.1,5.4,11.5,6.1c1.1,0.2,2.3,0.3,3.4,0.4
		c1.5,0.2,2.9,0.5,4.4,0.8V199z"/>
	<path id="Path_87" class="st1" d="M0,152.3c2.2,0.2,4.4,0.8,6.4,1.7c2,1,3.9,2.1,5.8,3.4c2.4,1.7,5,3,7.7,4.1
		c1.3,0.4,2.7,0.7,4.1,0.7c3.4,0.3,6.8-0.2,10.1-1.2c2.6-0.8,5.3-1.5,8-2.1c2-0.4,4-0.4,6-0.1c1.8,0.2,3.6,0.6,5.3,1
		c1.6,0.4,3.3,0.4,4.9,0.1c0.9-0.2,1.9-0.3,2.8-0.4c1.5-0.3,3-0.8,4.3-1.4c1.2-0.5,2.5-0.9,3.7-1.3c3.7-1.2,6.9-0.3,10,1.8
		c2,1.5,4.1,2.8,6.3,3.9c1.2,0.6,2.5,1.1,3.8,1.5c2.3,0.7,4.3,2.4,5.4,4.6c0.8,1.5,1.4,3.2,2.3,4.6c1.6,2.6,4.2,4.3,7.2,4.6
		c2.4,0.3,4.9,0.1,7.2-0.5c1.7-0.5,3.6-0.2,5.1,0.7c2.1,1.2,4.1,2.6,6.2,3.8c3.8,2.3,8,3.9,12.3,4.7c3.7,0.6,7.5,0.4,11.1-0.7
		c0.6-0.2,1.3-0.4,1.9-0.5c1.4-0.3,2.8-0.9,4-1.8c1-0.7,2-1.4,3-2c3.1-2.1,4.2-5.1,3.7-8.7c-0.4-2.6-1.1-5.1-1.9-7.5
		c-1.1-3.5-1.4-7.3-1-10.9c0.2-1.6,0.2-3.2-0.1-4.7c-0.4-2.1-1.5-4.1-3.2-5.4c-2.5-1.9-5.6-3.1-8.7-3.4c-3.4-0.4-6.8,0-10.2,0.1
		c-2.4,0.1-4.8,0.1-7.2,0c-1.8-0.1-3.6-0.4-5.4-0.7c-2.8-0.5-5.4-1.6-7.8-3.1c-2.1-1.5-4-3.4-5.5-5.6c-1.2-1.4-2.3-2.8-3.5-4.2
		c-1.9-1.9-4-3.6-6.4-4.9c-1.4-0.9-2.7-1.8-4-2.8c-1.4-1.1-2.5-2.4-3.3-3.9c-0.1-0.2-0.2-0.4-0.3-0.6c-0.6-2-1.8-3.9-3.4-5.2
		c-1.5-1.4-3.4-2.3-5.5-2.5c-1.8-0.3-3.6,0.7-4.3,2.4c-0.4,0.8-0.7,1.7-0.9,2.5c-0.2,1.3-0.6,2.6-1.1,3.8c-0.6,1.5-1.9,2.6-3.4,2.9
		c-3.1,0.8-6.2,1.5-9.3,2c-2.9,0.4-5.9,0-8.5-1.3c-1.9-0.9-3.8-2-5.5-3.2c-2.9-2-5.6-4.2-8.2-6.6c-0.9-0.8-1.7-1.6-2.4-2.4
		c-1.9-2-3.9-4-5.7-6.2c-1.7-2-3.5-3.9-5.3-5.8c-0.7-0.7-1.5-1.3-2.3-1.7c-1.5-0.9-3.1-1.8-4.6-2.6c-2.6-1.3-5.3-2.2-8.2-2.9
		c-3-0.8-6.1-1.3-9.2-1.5c-0.7,0-1.4-0.1-2.1-0.2v-0.8c1.5,0,3.1,0.1,4.6,0.3c3.1,0.3,6.2,1,9.2,1.9c2.8,0.8,5.6,2,8.1,3.5
		c1.3,0.7,2.6,1.5,3.8,2.3c1.3,1.1,2.5,2.3,3.7,3.7c1.5,1.6,2.8,3.4,4.5,4.9c0.7,0.7,1.3,1.4,1.9,2.2c1,1.2,2.1,2.3,3.3,3.3
		c2.1,2,4.3,3.8,6.5,5.6c2.2,1.7,4.5,3.3,6.9,4.6c2.1,1.2,4.3,1.9,6.7,2.1c1,0.1,2.1,0,3.1-0.2c2.8-0.6,5.6-1.3,8.5-1.9
		c1.5-0.3,2.8-1.4,3.3-2.9c0.4-0.9,0.6-1.9,0.8-2.9c0.2-1.4,0.7-2.7,1.5-3.8c0.8-1.3,2.3-2.1,3.8-2.1c3.3,0,6.4,1.5,8.3,4.2
		c1.1,1.2,1.9,2.6,2.3,4.2c0.3,0.8,0.7,1.4,1.3,2c1.4,1.6,3.1,3,4.9,4.1c0.9,0.6,1.9,1.2,2.8,1.7c2.3,1.4,4.3,3.2,6,5.3
		c1.7,1.9,3.2,4.1,4.9,6c1.2,1.3,2.7,2.3,4.2,3.2c2.7,1.5,5.6,2.3,8.6,2.6c2.2,0.3,4.4,0.5,6.7,0.4c1.8-0.1,3.7-0.2,5.5-0.3
		c3.3-0.3,6.7-0.2,10,0.4c2.7,0.5,5.2,1.7,7.3,3.4c2.1,1.7,3.3,4.2,3.5,6.8c0.1,2,0.1,3.9-0.1,5.9c-0.2,2.5,0.1,5,0.7,7.4
		c0.6,2.3,1.4,4.6,1.9,7c0.4,1.6,0.5,3.3,0.4,4.9c-0.2,2.7-1.6,5.1-3.9,6.6c-1.4,0.9-2.8,1.8-4.2,2.8c-0.7,0.5-1.6,0.9-2.4,1.1
		c-2.2,0.7-4.4,1.2-6.7,1.6c-3.9,0.5-7.8,0.1-11.6-1c-4-1.3-7.8-3.1-11.3-5.6c-1.6-1-3.2-1.9-4.9-2.8c-0.7-0.3-1.6-0.4-2.4-0.2
		c-1.1,0.2-2.2,0.5-3.3,0.7c-2.6,0.5-5.3,0.3-7.8-0.6c-3.2-1.2-5.1-3.5-6.3-6.5c-0.2-0.7-0.5-1.3-1-1.8c-0.1-0.1-0.2-0.3-0.2-0.4
		c-0.8-2-2.4-3.6-4.5-4.2c-3.7-1.2-7.2-3.1-10.3-5.4c-1.3-1-2.8-1.8-4.4-2.3c-1.4-0.4-2.9-0.3-4.3,0c-2,0.6-4,1.4-5.9,2.3
		c-0.9,0.4-1.9,0.7-2.9,0.8c-1.5,0.2-2.9,0.4-4.4,0.6c-1.7,0.1-3.5-0.1-5.2-0.6c-1.9-0.5-3.8-0.7-5.8-0.9c-2.6,0-5.3,0.4-7.8,1.2
		c-2.3,0.6-4.6,1.3-6.9,1.8c-5.7,1.4-11.7,0.5-16.7-2.5c-1.4-0.8-2.8-1.7-4.1-2.6c-2.9-2.1-6.2-3.5-9.7-4.1c-0.3,0-0.5-0.1-0.8-0.2
		V152.3z"/>
	<path id="Path_88" class="st1" d="M0,127.9c1.2,0.2,2.4,0.6,3.3,1.4c2.3,1.3,4.3,3,5.8,5.1c1.2,1.7,2.2,3.5,3,5.3
		c0.9,2.1,1.9,4.2,2.9,6.3c1.5,3.3,4.2,5.9,7.6,7.1c3.8,1.5,8,1.9,12,1c1.3-0.3,2.6-0.8,3.7-1.6c0.9-0.7,1.8-1.3,2.8-1.8
		c2.2-1.2,4.8-1.2,6.9,0c1.1,0.5,2.1,1.2,3.2,1.6c3.4,1.3,7.1,1.3,10.5-0.1c1-0.4,1.9-0.9,2.7-1.5c2-1.5,4.3-2.6,6.8-3.1
		c1.5-0.3,3.1-0.3,4.5,0.2c1.4,0.5,2.5,1.4,3.2,2.6c0.2,0.2,0.3,0.5,0.4,0.7c0.8,2.1,2.5,3.2,4.5,3.9c1.6,0.5,3.2,0.9,4.9,1.1
		c1.4,0.2,2.8,0.6,4.1,1.1c2.1,0.8,3.4,2.4,4.8,4.1c1.6,2,3.4,3.8,5.4,5.3c1.5,1.1,3.3,1.6,5.1,1.6c3,0,6,0.8,8.7,2.2
		c1.7,0.8,3.1,2,4.7,2.9c2.2,1.4,4.4,2.8,6.7,3.9c3.5,1.6,7.2,2.6,11.1,2.9c2.1,0.2,4.2-0.3,6-1.4c2.1-1.4,2.7-4.2,1.3-6.2
		c-0.2-0.3-0.4-0.5-0.6-0.8c-0.9-0.9-2-1.8-3.1-2.5c-2.6-1.8-5.3-3.3-7.7-5.3c-0.8-0.6-1.4-1.4-2.2-2.1c-0.9-0.8-1.7-1.8-2.3-2.9
		c-2-3-4.6-5.5-7.7-7.3c-2.1-1.3-4.4-2.5-6.7-3.4c-3.3-1.6-6.8-2.7-10.2-4c-2.5-1-4.7-2.7-6.3-5c-1.3-1.9-2.3-3.8-3.2-5.9
		c-1-2.3-2-4.5-3.1-6.8c-1.1-2.3-2.8-4.2-5-5.5c-1.4-0.9-3-1.3-4.7-1.1c-0.8,0.1-1.6,0.5-2.1,1.2c-1.6,2.2-4,3.6-6.7,4.1
		c-1.1,0.3-2.1,0.3-3.2,0.2c-0.6-0.1-1.2-0.1-1.9-0.1c-1.1,0-2.2,0.3-3,1c-1.2,0.9-2.4,1.9-3.6,2.8c-1.6,1.3-3.5,2.1-5.5,2.2
		c-2.6,0.2-5.2-0.8-7.1-2.7c-1.3-1.2-2.4-2.5-3.4-3.9c-0.8-1-1.7-1.8-2.8-2.5c-1-0.7-2.1-1.3-3.3-1.8c-3.8-1.7-7.3-3.9-10.5-6.5
		c-1.2-1.1-2.2-2.4-3.1-3.8c-0.6-0.9-1.1-1.8-1.7-2.6c0-0.1-0.1-0.1-0.1-0.2c-1.3-1.3-2-3-3.3-4.3c-1.3-1.3-2.5-2.6-3.8-3.8
		c-1.7-1.6-3.6-2.9-5.7-4c-3.1-1.6-6.6-2.5-10.1-2.6c-1,0-1.9-0.1-2.9-0.2v-0.8c5.8-0.3,11.6,1.2,16.4,4.5c1,0.7,2,1.5,2.9,2.3
		c1.4,1.3,2.8,2.6,4.1,4c1.4,1.6,2.6,3.3,3.7,5.1c1,1.6,2.2,3.2,3.4,4.7c1.7,1.8,3.7,3.3,5.9,4.5c2.7,1.6,5.4,2.9,8.2,4.4
		c1.4,0.8,2.6,1.8,3.6,3.1c1.1,1.5,2.4,2.8,3.8,4c1.6,1.4,3.6,2.2,5.7,2.1c1.6-0.1,3.2-0.7,4.5-1.7c1-0.7,1.9-1.5,2.9-2.2
		c0.7-0.6,1.5-1.1,2.3-1.5c1.1-0.6,2.4-0.9,3.7-0.7c3.9,0.7,7.9-0.9,10.2-4c1.2-1.6,2.9-1.6,4.8-1.3c1.1,0.2,2.1,0.8,3.1,1.1
		c0.3,0.1,0.4,0.4,0.7,0.6c2.1,1.4,3.8,3.4,4.7,5.8c1.1,2.3,2.2,4.7,3.3,7c0.8,1.9,1.9,3.8,3.1,5.5c1.4,1.9,3.3,3.3,5.5,4.1
		c3.4,1.3,6.8,2.6,10.2,4c3.6,1.5,7,3.4,10,5.9c1.7,1.4,3.3,3,4.5,4.9c1.7,2.6,3.9,4.8,6.4,6.5c2.3,1.6,4.6,3.1,6.9,4.7
		c0.9,0.6,1.7,1.4,2.5,2.2c2.7,2.9,1.2,6.6-1.2,8.3c-1.4,0.9-3,1.4-4.6,1.5c-2.8,0.1-5.5-0.3-8.1-1.1c-3.8-1.1-7.4-2.8-10.7-5.1
		c-1.7-1.1-3.4-2.3-5.2-3.3c-2.8-1.7-6-2.6-9.2-2.6c-2,0-3.9-0.7-5.5-1.8c-2.1-1.4-3.9-3.2-5.4-5.2c-0.6-0.8-1.3-1.5-1.9-2.2
		c-1-1-2.2-1.7-3.5-2c-1.7-0.5-3.4-0.8-5.1-1.1c-1.8-0.3-3.6-0.8-5.2-1.8c-1.1-0.6-2-1.6-2.5-2.7c-1.3-3.3-4-4.3-7-3.7
		c-2.3,0.5-4.5,1.4-6.4,2.8c-2.2,1.6-4.7,2.6-7.4,3c-2.7,0.4-5.5-0.1-8-1.4c-1.1-0.6-2.2-1.1-3.3-1.5c-1.9-0.7-3.9-0.5-5.6,0.6
		c-0.7,0.4-1.4,0.9-2.1,1.4c-1.8,1.3-4,2.1-6.2,2.3c-3.2,0.4-6.5,0-9.6-1c-3.7-1.1-6.9-3.7-8.7-7.1c-1.2-2.3-2.2-4.8-3.3-7.1
		c-1.1-2.5-2.6-4.9-4.4-7C5.1,131.4,3,130,0.7,129c-0.2-0.1-0.4-0.2-0.7-0.3L0,127.9z"/>
	<path id="Path_89" class="st1" d="M285,231.8c-0.6-0.1-1.2-0.3-1.8-0.6c-4.1-1.6-7.5-4.5-9.7-8.3c-1-1.8-1.6-3.7-1.9-5.8
		c-0.3-1.3-0.5-2.7-0.4-4.1c0-0.6-0.1-1.1-0.3-1.6c-1-2.9-3.4-5.1-6.4-5.9c-1.3-0.3-2.6-0.3-3.8-0.1c-1.9,0.3-3.8,0.4-5.7,0.3
		c-1.2,0-2.4-0.3-3.5-1c-0.9-0.6-1.6-1.4-1.9-2.4c-0.5-1.4-0.8-2.9-0.8-4.4c-0.1-1.8-0.2-3.6-0.4-5.5c-0.1-0.8-0.3-1.5-0.4-2.2
		c-0.7-3.1-3.2-5.6-6.3-6.2c-2-0.5-4.1-0.9-6.2-1.1c-1.9-0.2-3.9-0.3-5.8-0.2c-3.9,0-7.8,0.9-11.3,2.6c-2.4,1.2-4.5,2.8-6.1,4.9
		c-2.1,2.7-4.1,5.5-6.5,8c-2.4,2.6-4.9,5.1-8.3,6.4c-5,2.2-10.7,1.8-15.3-1.1c-1.5-0.9-2.9-1.8-4.5-2.6c-1.8-0.9-3.8-1.4-5.8-1.4
		c-3.4,0-6.7,0.7-9.7,2.1c-3.7,1.5-7.4,3-11,4.5c-1.1,0.5-2.3,0.9-3.4,1.3c-1.2,0.4-2.4,0.5-3.6,0.6c-2.3,0.2-4.5,0-6.7-0.6
		c-0.8-0.2-1.5-0.5-2.2-0.9c-3.6-1.6-7-3.4-10.4-5.3c-3.5-2.1-7.3-3.8-11.1-5.2c-0.9-0.3-1.9-0.5-2.9-0.5c-1.4-0.1-2.6,0.6-3.4,1.7
		c-1.2,1.6-1.6,3.7-1,5.6c0.4,1.4,1.1,2.7,2,3.8c2,2.5,4.3,4.8,6.8,6.9c3.1,2.7,6.4,5.2,9.4,8c1.6,1.5,3,3.2,3.9,5.2
		c0.9,1.9,1.1,4.2,0.5,6.2c-0.3,0.8-0.5,1.6-0.8,2.3c-0.1,0.4-0.3,0.7-0.4,1.1c-0.7,1.5-0.1,3.3,1.3,4.2c1.2,0.9,2.5,1.6,3.9,2.1
		c3,1.1,6.1,1.7,9.3,1.7c2.6,0,5.2-0.2,7.8-0.4c2.8-0.2,5.6-0.2,8.3,0.1c2.6,0.3,5,1.5,6.9,3.4c0.7,0.7,1.2,1.5,1.7,2.3
		c2.3,4,3.3,8.7,2.8,13.3c-0.4,3.4-1.4,6.8-2.9,9.9c-1.2,2.4-2.4,4.7-3.6,7.1c-0.9,1.6-1.6,3.2-2.3,4.9h-1c0.2-0.9,0.6-1.8,1.1-2.5
		c1-2.1,2.2-4.2,3.3-6.4c1.2-2.3,2.3-4.7,3.3-7.1c0.7-2.2,1.2-4.4,1.4-6.7c0.2-2.7-0.1-5.3-0.9-7.9c-0.6-2-1.5-3.8-2.7-5.4
		c-1.3-1.6-3-2.8-5-3.4c-1.5-0.5-3.1-0.7-4.7-0.7c-2.5-0.1-5,0.2-7.5,0.3c-4.3,0.3-8.6,0.5-12.9-0.7c-2.2-0.7-4.3-1.6-6.3-2.8
		c-0.7-0.4-1.3-1-1.8-1.7c-0.5-0.7-0.7-1.6-0.6-2.5c0.2-0.9,0.4-1.8,0.8-2.7c0.6-1.3,0.9-2.7,1-4.1c0-2.1-0.7-4.1-2-5.7
		c-1.1-1.5-2.5-2.9-4-4.1c-3.4-3-7-5.8-10.4-8.8c-2.4-2.1-4.5-4.6-5.9-7.4c-1.1-1.9-1.2-4.2-0.4-6.3c0.9-2.7,3.7-4.2,6.4-3.6
		c2,0.4,4,1,5.8,1.9c3.5,1.5,6.8,3.6,10.2,5.3c2.7,1.5,5.4,2.9,8.2,4c4.1,1.5,8.6,1.5,12.7,0c3.1-1.1,6.1-2.6,9.2-3.8
		c3.1-1.3,6.3-2.4,9.5-3.2c3.7-0.9,7.7-0.4,11,1.5c1.5,0.8,3,1.7,4.4,2.5c5.1,3,10.3,2.9,15.5,0.1c2.9-1.5,5.1-3.9,7.3-6.3
		c1.9-2.1,3.5-4.5,5.3-6.7c2.8-3.5,6.7-6.1,11.1-7.3c2.6-0.7,5.3-1.1,8-1.1c3.9-0.1,7.8,0.3,11.6,1.3c2.2,0.5,4.2,1.7,5.5,3.5
		c0.7,0.9,1.2,2,1.5,3.1c0.4,1.4,0.6,2.8,0.7,4.2c0.1,2.2,0.3,4.4,0.6,6.6c0.1,0.4,0.2,0.9,0.3,1.3c0.5,1.4,1.7,2.5,3.2,2.9
		c1.6,0.3,3.2,0.4,4.8,0.1c1.4-0.1,2.8-0.4,4.2-0.4c1.4-0.1,2.7,0.2,3.9,0.9c2.4,1.1,4.3,3.2,5.3,5.7c0.4,0.9,0.5,1.9,0.5,2.8
		c0,2.8,0.6,5.6,1.8,8.1c0.9,1.8,2.1,3.4,3.6,4.7c1.8,1.7,4,3.1,6.3,4c0.4,0.2,0.7,0.3,1,0.5L285,231.8z"/>
	<path id="Path_90" class="st1" d="M0,202.8c0.5,0,0.9,0,1.3,0.3c2.6,1,5.1,2.4,7.4,4c1.1,0.9,1.9,1.9,2.5,3.2
		c0.9,1.8,1.4,3.8,1.6,5.8c0.3,2.5,0.4,5,1,7.5c0.4,2.2,1.7,4.1,3.5,5.3c2.2,1.5,4.5,3.1,6.6,4.7c1.8,1.4,3.5,3,4.9,4.8
		c0.2,0.2,0.3,0.4,0.5,0.6c0.7,0.7,1.2,1.6,1.7,2.4c1.7,3.3,3.2,6.7,4.7,10c1,2.5,2.5,4.8,4.4,6.7c0.7,0.7,1.5,1.2,2.4,1.6
		c0.7,0.3,1.6,0.4,2.4,0.3c0.8-0.1,1.4-0.6,1.8-1.3c0.7-1.2,1.1-2.6,1.2-4c0-1.9-0.2-3.7-0.2-5.6c-0.1-3.3,0.5-6.6,1.9-9.7
		c1.6-3.4,3.9-6.1,7.7-7.3c2-0.6,3.9-1.1,5.9-1.8c1.7-0.5,3.3-1.4,4.7-2.5c1-1,1.8-2.1,2.2-3.5c0.9-2.3,2.5-4.2,4.5-5.6
		c0.7-0.5,1.4-1.1,2.2-1.6c2.9-2,3.7-4.8,3.1-8.1c-0.3-1.7-1-3.3-2.1-4.7c-0.9-1.2-2.1-2-3.5-2.3c-1.4-0.3-2.7-0.5-4.1-0.8
		c-0.4-0.1-0.9-0.2-1.3-0.3c-2.3-0.5-4.1-2.2-4.7-4.5c-0.2-0.8-0.6-1.6-1.2-2.3c-0.7-0.9-1.7-1.4-2.9-1.4c-1.8,0.1-3.6,0.6-5.1,1.7
		c-1.5,1-2.9,2.1-4.2,3.3c-3.8,3.4-8.6,5.5-13.6,6c-5.2,0.5-10.4-0.1-15.3-1.9c-2.9-1.1-5.8-2.5-8.4-4.2c-2.3-1.6-4.8-2.9-7.4-4
		C4,193.1,2,192.6,0,192.3v-1c2.6,0.4,5.1,1.2,7.5,2.2c2.6,1.3,5.1,2.8,7.6,4.3c4.5,2.8,9.7,4.6,15,5.2c4.4,0.6,8.8,0.1,13-1.4
		c2.4-0.9,4.6-2.3,6.5-4c1.7-1.6,3.6-3,5.6-4.3c1.4-0.8,2.9-1.2,4.5-1.4c1.9-0.1,3.7,0.9,4.6,2.7c0.3,0.6,0.6,1.3,0.8,2
		c0.6,1.8,2,3.2,3.9,3.7c1.4,0.4,2.9,0.5,4.4,0.8c0.5,0.1,1,0.2,1.4,0.3c1.5,0.4,2.7,1.2,3.6,2.4c1.9,2.4,2.7,5.5,2.4,8.5
		c-0.1,1.7-0.9,3.4-2.2,4.6c-1,1-2.1,1.8-3.2,2.6c-2,1.3-3.6,3.2-4.5,5.5c-0.2,0.5-0.5,1.1-0.8,1.6c-0.9,1.7-2.3,3-4.1,3.8
		c-2.2,0.9-4.5,1.7-6.8,2.2c-1,0.3-2,0.7-2.9,1.1c-1.8,0.8-3.3,2.2-4.4,3.8c-2.2,3.3-3.4,7.2-3.3,11.1c0,2,0.3,4.1,0.2,6.1
		c0,1-0.2,2-0.5,2.9c-0.3,0.8-0.7,1.5-1.2,2.2c-0.8,1.1-2.1,1.6-3.4,1.3c-1.7-0.4-3.3-1.2-4.5-2.5c-1.3-1.3-2.4-2.8-3.2-4.4
		c-0.7-1.4-1.4-2.8-2-4.2c-0.8-1.9-1.7-3.7-2.5-5.6c-1-2.2-2.4-4.3-4-6.1c-1.1-1.3-2.4-2.5-3.8-3.6c-2.3-1.8-4.8-3.4-7.2-5.2
		c-2-1.5-3.4-3.7-3.8-6.2c-0.5-2.6-0.6-5.3-1-8c-0.2-1.6-0.7-3.2-1.4-4.6c-1.1-1.9-2.7-3.5-4.7-4.4c-1.8-1-3.7-1.9-5.6-2.5V202.8z"
		/>
	<path id="Path_91" class="st1" d="M0,59.9c5.9-0.1,11.7-1.1,17.3-2.8c2.7-0.8,5.4-1.7,8.1-2.4c3.3-0.8,6.7-1.5,10-2
		c4.6-0.7,9.3-1.1,13.9-1.5c3.9-0.3,7.8-1.3,11.4-2.9c3.1-1.5,6.4-2.8,9.7-3.8c3.2-1,6.5-1.5,9.9-1.4c4.8,0,9.6,1.5,13.4,4.5
		c1.9,1.6,3.6,3.5,4.8,5.7c1.1,1.9,2,3.9,2.7,6c0.8,2.3,1.7,4.5,2.7,6.7c1.5,2.9,3.6,5.5,6.2,7.6c1.5,1.2,3.1,2.2,4.8,3
		c1.6,0.8,3.4,1.2,5.2,1.3c2.5,0.2,4.9,0.6,7.3,1.4c1.4,0.4,2.8,0.7,4.2,0.9c1.6,0.2,3,0,4-1.4c0.6-0.8,0.9-1.8,0.9-2.8
		c0.3-3.5-0.4-7-1.9-10.1c-1.1-2.2-2.4-4.4-3.8-6.4c-2.9-4.3-4.9-9.2-5.7-14.3c-0.3-2.4-0.4-4.7-0.3-7.1c0-3.1,0.3-6.2,0.7-9.3
		c0.5-4.2,1.2-8.5,1.5-12.7c0.1-1.5,0.2-3.1,0.3-4.6c0.2-3.1,0.3-6.1,0.2-9.2c0-0.5-0.1-1-0.1-1.4c0-0.2,0.1-0.4,0.3-0.4
		c0,0,0,0,0,0c0.2,0,0.4,0.1,0.5,0.3c0.1,0.1,0.1,0.3,0.1,0.4c0.2,1.8,0.3,3.6,0.1,5.5c-0.1,0.6-0.1,1.2-0.1,1.9
		c0,1.9-0.2,3.9-0.3,5.8c-0.2,2.9-0.5,5.7-0.8,8.5c-0.5,4.2-1.2,8.3-1.5,12.5c-0.1,2.1-0.2,4.2-0.1,6.3c0.1,4.2,1.2,8.4,3,12.2
		c1.2,2.5,2.6,4.9,4.2,7.3c2.2,3.2,3.7,6.8,4.4,10.6c0.4,1.9,0.3,3.9-0.1,5.9c-0.1,0.5-0.3,1.1-0.6,1.6c-0.7,1.4-2,2.3-3.6,2.3
		c-2.2,0-4.3-0.3-6.4-1c-2.3-0.7-4.6-1.1-7-1.3c-2.7-0.2-5.3-1.1-7.5-2.6c-5.1-3.1-9-8-10.9-13.7c-0.9-2.7-1.9-5.3-3.2-7.8
		c-1-2-2.3-3.8-3.8-5.4C92,47,89,45.4,85.8,44.6c-4.3-0.9-8.7-0.9-12.9,0.1c-3.5,0.8-6.8,2-10,3.6c-1.8,0.8-3.6,1.5-5.4,2.2
		c-2.2,0.7-4.4,1.2-6.7,1.4c-2,0.2-4.1,0.4-6.1,0.6c-3.8,0.4-7.6,0.8-11.3,1.4c-4.9,0.8-9.8,2-14.5,3.6c-3.9,1.3-7.9,2.3-12,2.8
		c-2.3,0.4-4.6,0.5-6.9,0.4V59.9z"/>
	<path id="Path_92" class="st1" d="M0,52c0.3,0,0.6,0.1,0.9,0.1c3.5,1,7,0.5,10.4-0.5c1.5-0.4,2.9-1,4.2-1.7
		c4.2-2.1,8.7-3.7,13.4-4.6c2.4-0.5,4.8-0.7,7.2-0.7c1.2,0,2.4,0.1,3.5,0.2c7.3,0.8,14.7-0.7,21.2-4.2c4.6-2.4,9.5-4,14.6-4.7
		c4.7-0.7,9.5-0.1,13.8,1.7c2,1,3.8,2.1,5.5,3.5c0.3,0.3,0.6,0.5,1,0.6c0.1,0,0.3,0.1,0.3,0.2c0.7,1.4,2.1,2.1,3.1,3.2
		c2.8,3,5.3,6.3,7.6,9.7c1,1.5,1.8,3.1,2.7,4.5c2.1,3.4,5,6.3,8.4,8.3c2.1,1.3,4.6,1.8,7,1.6c1-0.1,2-0.4,2.8-1
		c0.7-0.4,1.1-1.4,0.8-2.2c-0.3-0.8-0.6-1.5-1.1-2.2c-1.4-2.2-3.1-4.3-4.4-6.5c-1.9-3-3.3-6.3-4.2-9.8c-0.6-2.6-0.9-5.2-1-7.8
		c-0.1-1.7-0.2-3.4-0.2-5.1c0.1-3.8,0.3-7.6,0.6-11.5c0.2-2.5,0.3-5,0.5-7.4c0.3-3,0.4-5.9,0.4-8.9c0-2-0.2-4.1-0.6-6.1
		c-0.1-0.3-0.3-0.8,0.2-1c0.6-0.2,0.7,0.4,0.7,0.8c0.2,0.9,0.4,1.8,0.5,2.7c0.2,2.1,0.2,4.2,0.2,6.3c-0.2,1.9-0.1,3.8-0.3,5.7
		c-0.2,2.4-0.3,4.7-0.6,7.1c-0.1,1.2-0.1,2.5-0.2,3.7c-0.3,4.4-0.4,8.8-0.2,13.2c0.1,3.6,0.7,7.2,1.9,10.7c0.8,2.2,1.8,4.4,3.1,6.4
		c1.2,2,2.6,3.9,3.9,5.7c0.6,0.8,1.1,1.7,1.6,2.7c0.9,1.4,0.4,3.3-1,4.2c-0.2,0.1-0.4,0.2-0.5,0.3c-1.6,0.8-3.5,1-5.3,0.7
		c-2.6-0.5-5.1-1.6-7.2-3.3c-3.2-2.5-5.8-5.7-7.7-9.3c-2.4-4.3-5.4-8.3-8.8-11.8c-2.2-2.4-4.7-4.5-7.5-6.2c-2.3-1.4-4.9-2.3-7.6-2.8
		c-5.8-1-11.3,0.2-16.7,2c-2.7,1.1-5.4,2.3-8,3.6c-4.9,2.3-10.3,3.4-15.7,3.3c-2.2-0.1-4.5-0.3-6.7-0.4c-3-0.1-6,0.2-8.9,0.9
		c-4.3,1.2-8.5,2.7-12.6,4.7c-2.7,1.3-5.7,2.2-8.7,2.5C4.1,53.9,2,53.6,0,52.9V52z"/>
	<path id="Path_93" class="st1" d="M149,285c0.3-1.9,0.9-3.7,1.9-5.3c2.2-4.9,4.5-9.7,6.7-14.6c0.9-1.8,1.3-3.8,1.2-5.8
		c0-2.2-0.9-4.3-2.5-5.8c-1.3-1.2-2.9-2-4.7-2.1c-1.6-0.2-3.2-0.1-4.8,0.4c-1.4,0.4-2.9,0.6-4.3,0.6c-5.8,0.3-11.7-0.5-17.2-2.4
		c-2.2-0.7-4.3-1.8-6.1-3.3c-1.4-1.1-2.2-2.8-2.3-4.6c-0.1-2,0-3.9,0.1-5.9c0.3-2.6,0.2-5.2-0.3-7.7c-1-3.7-4.3-6.3-8.1-6.6
		c-2,0-4,0.4-5.8,1.3c-3.5,1.5-6.7,3.8-9.2,6.7c-0.9,0.9-1.7,2-2.3,3.2c-0.8,1.6-2,2.9-3.5,3.8c-2.8,1.9-5.9,3.5-9.1,4.6
		c-2,0.8-3.9,1.6-5.9,2.4c-2.6,1.1-4.8,2.9-6.2,5.3c-2.1,3.2-3.6,6.7-4.2,10.5c-0.3,1.8-0.4,3.6-0.5,5.5c-0.2,2.5-0.2,5.1-0.3,7.6
		c-0.1,4.3-0.9,8.5-2.5,12.4h-0.8c0-0.5,0.1-1,0.4-1.4c1.3-3.6,1.9-7.4,2-11.3c0-4.4,0.3-8.9,0.8-13.3c0.3-1.6,0.7-3.1,1.3-4.6
		c0.8-2.2,1.8-4.3,3.1-6.2c1.6-2.5,4-4.5,6.8-5.6c3.4-1.2,6.7-2.7,10-4.2c2.3-1,4.4-2.3,6.2-4c0.6-0.5,1.1-1.1,1.4-1.8
		c0.8-1.8,2-3.3,3.4-4.7c2.1-2.1,4.5-3.9,7.1-5.3c2.1-1.1,4.3-1.7,6.7-1.9c2.8-0.2,5.6,0.9,7.5,2.9c2,2.2,3.1,5,3.1,7.9
		c0,2-0.1,4-0.3,6c-0.1,1.4-0.1,2.8,0,4.1c0.2,2.7,1.9,4.3,4.2,5.6c2.6,1.3,5.4,2.3,8.2,2.9c3.4,0.8,6.9,1.2,10.4,1.1
		c2.1,0,4.2-0.3,6.3-0.8c2.4-0.7,5-0.6,7.4,0.3c3.1,1.2,5.2,4.1,5.4,7.4c0.2,2.8-0.4,5.7-1.7,8.2c-1.6,3.5-3.3,7.1-4.9,10.6
		c-0.8,1.7-1.5,3.3-2.3,5c-0.4,0.9-0.5,1.9-0.9,2.7L149,285z"/>
	<path id="Path_94" class="st1" d="M262,285c-0.5-1.3-1.3-2.5-2.3-3.4c-2.3-2.7-4.9-5.1-7.8-7.2c-2.5-1.9-5.2-3.5-7.6-5.5
		c-2-1.7-3.8-3.7-5.2-5.9c-1.7-3-2.8-6.2-3.3-9.6c-0.3-1.9-0.6-3.8-0.9-5.7c-0.5-4.1-3.4-7.5-7.4-8.6c-1.7-0.5-3.5-0.8-5.2-0.8
		c-2.7-0.1-5.3-1.2-7.3-3.1c-1.4-1.4-2.6-3-3.6-4.7c-0.8-1.2-1.5-2.3-2.3-3.5c-0.6-1-1.8-1.6-2.9-1.5c-2,0-4,0.5-5.8,1.3
		c-1.4,0.5-2.1,2.1-1.6,3.4c0.1,0.2,0.1,0.3,0.2,0.5c0.9,1.8,2.3,3.4,4,4.5c1.1,0.8,2.2,1.7,3.1,2.8c1.6,2.1,2.3,4.8,1.9,7.4
		c-0.7,5.5-2.8,10.8-6,15.4c-3.2,4.5-7,8.7-11.2,12.3c-1.7,1.5-3.3,3-5.1,4.4c-1.1,0.9-2.2,1.7-3.4,2.6c-2,1.3-3.6,2.9-4.9,4.9h-1
		c-0.1-0.1-0.1-0.3-0.1-0.4c1.8-2.4,4-4.5,6.5-6.1c1.4-0.9,2.7-2,3.9-3.1c1.8-1.4,3.5-3,5.2-4.6c2.2-2.1,4.3-4.3,6.3-6.6
		c1.7-1.9,3.1-4,4.4-6.1c2.2-3.6,3.6-7.5,4.3-11.7c0.3-1.8,0.2-3.7-0.4-5.5c-0.7-1.8-1.9-3.4-3.5-4.4c-1.7-1.1-3.2-2.6-4.4-4.3
		c-0.3-0.4-0.5-0.9-0.7-1.4c-0.9-2.3-0.2-3.9,2-4.9c1.9-1,4.1-1.4,6.3-1.4c1.3,0,2.5,0.6,3.4,1.6c0.5,0.6,1,1.3,1.4,1.9
		c1.2,2,2.5,4,4,5.8c1.5,1.8,3.6,3,6,3.3c1.4,0.2,2.8,0.3,4.2,0.4c1.7,0.2,3.3,0.7,4.9,1.5c3.1,1.6,5.2,4.5,5.7,8
		c0.4,1.9,0.6,3.8,0.9,5.7c0.4,3.2,1.4,6.3,3,9.2c1.4,2.4,3.3,4.6,5.4,6.3c2.2,1.8,4.7,3.3,6.9,5c3.1,2.3,5.9,4.9,8.5,7.8
		c1.1,1.1,1.9,2.4,2.5,3.9L262,285z"/>
	<path id="Path_95" class="st1" d="M0,45.8c1.1,0,2.2,0,3.3,0c2.5,0,5-0.4,7.4-1.3c1.2-0.4,2.4-0.9,3.5-1.5c2.8-1.3,5.8-2.3,8.8-2.8
		c2.4-0.5,4.8-0.8,7.3-0.8c1.2,0,2.4,0.1,3.5,0.4c3.1,0.7,6.2,1,9.3,0.7c5.8-0.5,11.4-1.8,16.8-3.9c2.6-1,5.1-2.4,7.3-4.1
		c3-2.3,6.8-3.2,10.6-2.6c3.5,0.5,7,1.4,10.2,2.8c2.2,0.9,4.3,1.9,6.4,3c2.5,1.2,4.9,2.5,7.4,3.6c1.2,0.6,2.5,1.1,3.8,1.3
		c0.8,0.2,1.6,0.2,2.4,0c1.2-0.4,2-1.3,2.4-2.4c0.4-1.2,0.7-2.5,0.7-3.9c0.1-2.9-0.1-5.9-0.4-8.8c-0.4-4.5-1-9-1.4-13.5
		c-0.3-3.3-0.4-6.6-0.3-9.9c0-0.5,0.1-1,0.2-1.4c0.1-0.2,0.2-0.5,0.5-0.5s0.4,0.3,0.4,0.5c0,0.4,0,0.9,0,1.3c-0.2,1.5-0.2,3.1,0,4.6
		c0.1,1.5,0.1,3,0.2,4.5c0.3,3.3,0.6,6.5,0.9,9.8c0.3,3,0.6,6,0.8,9c0.1,2.2,0,4.4-0.3,6.6c-0.1,0.9-0.4,1.7-0.8,2.5
		c-0.7,1.6-2.3,2.6-4,2.5c-0.7,0-1.4-0.1-2.1-0.3c-1.5-0.4-3-0.9-4.4-1.6c-1.6-0.7-3.2-1.4-4.8-2.3c-1.6-0.9-3.2-1.7-4.8-2.4
		c-3.6-1.7-7.5-3.1-11.4-4c-2.7-0.6-5.4-0.6-8.1,0.2c-1,0.3-2,0.8-2.9,1.4c-5.3,3.9-11.5,6.6-18.1,7.7c-3.2,0.7-6.4,1.1-9.6,1.2
		c-2.2,0-4.5-0.2-6.6-0.7c-1.6-0.3-3.2-0.5-4.8-0.5c-2.5,0-5,0.4-7.4,1c-1.2,0.2-2.3,0.6-3.4,1c-1.5,0.5-3,1.1-4.4,1.8
		c-3.1,1.5-6.5,2.5-9.9,2.7c-1.5,0-3,0-4.5-0.1V45.8z"/>
	<path id="Path_96" class="st1" d="M285,46.7c-3.5-0.4-7-1.4-10.2-2.9c-3.4-1.7-6.7-3.6-9.8-5.7c-0.8-0.6-1.7-1-2.7-1.4
		c-1.3-0.6-2.8-0.3-3.8,0.7c-1.1,1.1-2.1,2.2-3,3.5c-0.6,0.7-1.1,1.4-1.6,2.1c-1.6,2-3.8,3.3-6.3,3.7c-2,0.5-4,0.7-6,0.6
		c-3.3-0.1-6.5-1-9.4-2.6c-1.6-0.9-2.7-2.3-3.4-4c-0.5-1.7-1.4-3.2-2.6-4.4c-2.2-2.1-5.1-3.5-8.1-3.9c-1.1-0.2-2.3-0.2-3.4-0.1
		c-1.6,0.2-3.1,0.8-4.5,1.6c-1.8,1.2-3.7,2.3-5.6,3.2c-3,1.5-6.4,2-9.7,1.7c-2.1-0.2-4.1-0.6-6.1-1.4c-2.9-1.2-5.1-3.6-6-6.5
		c-0.9-2.6-1.4-5.3-1.6-8c-0.4-3.6-0.6-7.2-1.3-10.8c-0.6-3.3-0.1-6.6,1.4-9.6c0.3-0.6,0.6-1.1,0.9-1.7c0.2-0.3,0.3-0.5,0.5-0.8
		c0.2-0.2,0.5-0.3,0.7-0.1c0.3,0.2,0.1,0.4,0,0.7c-0.1,0.2-0.3,0.5-0.4,0.7c-1.6,2.5-2.4,5.5-2.4,8.4c0.1,1.3,0.2,2.5,0.5,3.8
		c0.5,2.8,0.7,5.7,1,8.5c0.2,2.7,0.7,5.4,1.5,8c0.7,2.4,2.4,4.5,4.6,5.8c1.4,0.7,2.9,1.2,4.4,1.5c3.8,0.8,7.8,0.4,11.4-1.1
		c1.3-0.6,2.6-1.3,3.8-2.1c0.8-0.5,1.5-1,2.3-1.5c2.4-1.6,5.1-1.8,7.9-1.5c2.7,0.3,5.2,1.3,7.4,2.9c1.9,1.4,3.4,3.3,4.2,5.6
		c0.8,2.3,2.6,4.1,4.9,4.9c0.7,0.3,1.4,0.7,2.2,0.9c1.3,0.4,2.6,0.6,3.9,0.6c1.9,0.1,3.8,0,5.7-0.2c1.3-0.2,2.6-0.6,3.8-1.2
		c1.5-0.8,2.8-2,3.8-3.4c0.8-1,1.6-2.1,2.4-3.2c0.5-0.7,1.2-1.4,1.9-1.9c1.2-0.9,2.8-1.2,4.3-0.7c1.1,0.4,2.1,0.9,3,1.5
		c2.5,1.6,4.9,3.3,7.5,4.6c2.4,1.3,5,2.3,7.6,3.1c1.4,0.4,2.9,0.7,4.4,1L285,46.7z"/>
	<path id="Path_97" class="st1" d="M137.5,285c0-0.6,0.1-1.2,0.5-1.8c1-2.1,2.4-4.1,4.1-5.7c1.5-1.5,2.9-3.1,4.1-4.8
		c0.8-1.2,1.3-2.6,1.7-4c0.7-3.4-0.9-6.8-4-8.4c-1.8-0.9-3.6-1.6-5.6-1.9c-3-0.7-6.1-0.9-9.2-1.3c-3-0.3-5.9-0.9-8.7-2
		c-2.4-0.9-4.3-2.8-5.2-5.2c-0.6-1.7-1.5-3.3-2.6-4.8c-1.9-2.8-5.1-4.5-8.5-4.4c-2.2,0-4.4,0.4-6.6,1.2c-1.7,0.6-3.4,1.3-5.1,2.2
		c-2,1-4.1,1.9-6.2,2.7c-3.2,1.3-6.4,2.6-9.5,4.2c-2.5,1.2-4.5,3.3-5.6,5.8c-0.7,1.7-0.9,3.5-0.8,5.4c0.2,2.5,0.6,4.9,1.3,7.3
		c0.5,2.5,0.8,5,0.8,7.5c0.1,2.7-0.2,5.5-0.8,8.1h-1c0.5-2.5,0.8-5,0.8-7.5c0-3.3-0.4-6.7-1.2-9.9c-0.6-2.3-0.9-4.6-0.9-7
		c0-2.6,0.9-5.1,2.5-7.1c1.3-1.4,2.8-2.6,4.5-3.5c2.3-1.2,4.7-2.3,7.1-3.2c3.8-1.5,7.4-3.3,11.1-4.9c3.1-1.5,6.4-2.2,9.8-2.2
		c3.3,0,6.3,1.5,8.4,4c1.4,1.7,2.5,3.6,3.2,5.6c0.8,2.3,2.6,4.1,4.9,4.9c1.5,0.6,3,1,4.6,1.3c3.4,0.6,6.8,0.9,10.2,1.4
		c2.6,0.3,5.1,0.9,7.5,1.8c3.4,1.2,5.7,4.4,5.8,8c0.1,1.3-0.2,2.6-0.7,3.7c-0.9,2.2-2.3,4.3-4,6c-1,1-2,2.1-3,3.2
		c-1.3,1.5-2.3,3.3-2.9,5.2L137.5,285z"/>
	<path id="Path_98" class="st1" d="M0,117.1c0.9-0.1,1.8-0.4,2.7-0.8c0.9-0.3,1.7-0.6,2.6-0.9c4-1.3,7.2,0,9.5,3.2
		c0.5,0.7,1,1.5,1.4,2.3c0.9,1.9,2.3,3.5,4.1,4.6c2.3,1.7,5,2.7,7.9,3.2c0.5,0.1,1,0.1,1.5,0.1c1.4,0,2.7,0.3,3.9,0.9
		c2.1,1.1,4.2,2.4,6,3.9c1.1,0.9,2,2.1,3.1,3.1c2.6,2.6,6,4.4,9.6,5.1c0.8,0.1,1.6,0.1,2.4-0.2c0.8-0.2,1.2-1,1-1.8
		c-0.1-0.3-0.2-0.5-0.4-0.7c-1.5-1.6-3.4-2.7-5.5-3.3c-0.6-0.3-1.3-0.4-2-0.6c-2.5-0.4-4.7-1.9-6-4.1c-1-1.6-2.3-3-3.9-4.1
		c-0.9-0.5-1.8-1-2.7-1.3c-2.8-1.1-5.4-3-7.3-5.4c-1.8-2.2-3.4-4.4-4.9-6.8c-1.3-2.1-2.7-4.1-4.2-6c-2.9-3.3-6.8-5.7-11.1-6.6
		c-2.5-0.5-5-0.6-7.5-0.3v-1c1.4,0,2.7-0.1,4.1,0c4.1,0.1,8.2,1.4,11.5,3.9c2.2,1.6,4.1,3.6,5.7,5.9c1.9,2.7,3.5,5.5,5.4,8.1
		c1.9,2.8,4.5,5.2,7.4,6.9c0.7,0.4,1.4,0.7,2.1,0.9c2.2,0.7,4.1,2.2,5.4,4.2c0.4,0.7,0.9,1.3,1.4,1.9c1.1,1.5,2.8,2.5,4.7,2.9
		c2.6,0.5,5.1,1.6,7.2,3.2c0.8,0.5,1.4,1.3,1.7,2.2c0.2,0.7,0,1.4-0.4,1.9c-0.6,0.7-1.6,1.2-2.6,1.2c-1.7,0.1-3.5-0.3-5.1-1.1
		c-1.7-0.8-3.4-1.7-5-2.9c-0.5-0.3-0.9-0.7-1.3-1.2c-1.8-2-3.9-3.8-6.1-5.4c-1.4-1.1-3.1-1.9-4.8-2.4c-0.5-0.1-1-0.2-1.4-0.2
		c-3.8,0-7.5-1.3-10.4-3.7c-0.6-0.5-1.3-1-1.8-1.5c-0.9-0.9-1.7-2-2.3-3.2c-0.6-1.3-1.5-2.5-2.5-3.5c-1.8-1.9-4.6-2.5-7.1-1.6
		c-1.2,0.5-2.5,0.9-3.7,1.3c-0.6,0.2-1.3,0.4-1.9,0.5L0,117.1z"/>
	<path id="Path_99" class="st1" d="M0,39.4c1.5,0,2.9-0.2,4.4-0.4c4.4-0.6,8.5-2.3,12-5c3.9-3,8.5-5,13.3-5.9
		c1.8-0.3,3.7-0.3,5.5-0.1c0.5,0.1,1-0.1,1.3-0.4c0,0.7,0.4,0.8,0.8,0.9c4.3,1.5,8.9,2,13.4,1.7c4.8-0.4,9.5-1.9,13.5-4.6
		c1.7-1.1,3.2-2.4,4.7-3.7c1.5-1.5,3.4-2.6,5.4-3.2c1.6-0.4,3.3-0.3,4.9,0.2c1.6,0.5,3.1,1.2,4.7,1.8c1.3,0.5,2.7,0.9,4.1,1.1
		c1.4,0.1,2.8-0.1,4.1-0.6c3.1-1.3,5.6-3.8,7-6.9c1-2.4,1.5-5,1.5-7.7c0.1-1.6,0.2-3.2,0.3-4.9c0-0.4,0.1-0.8,0.2-1.2
		c0.1-0.2,0.2-0.5,0.5-0.4s0.4,0.3,0.4,0.5c0,0.4,0,0.8,0,1.1c-0.1,1.2-0.2,2.4-0.2,3.6c-0.1,2.3-0.3,4.5-0.8,6.8
		c-0.8,3.3-2.7,6.3-5.5,8.3c-1.9,1.6-4.4,2.4-6.8,2.4c-0.9,0-1.9-0.2-2.8-0.5c-1.5-0.5-3-1-4.4-1.7c-1.3-0.6-2.6-1-4-1.2
		c-2.6-0.3-5.3,0.6-7.2,2.4c-1.7,1.6-3.4,3-5.3,4.3c-3.4,2.3-7.3,3.8-11.4,4.4c-4.1,0.6-8.4,0.5-12.5-0.3c-1.6-0.3-3.1-0.7-4.7-1.1
		c-3-0.7-6.1-0.6-9.1,0.3c-4,1.2-7.7,3.1-11,5.6c-3.7,2.7-8,4.3-12.5,4.9c-1.3,0.2-2.6,0.2-4,0.2V39.4z"/>
	<path id="Path_100" class="st1" d="M285,53.7c-1.2-0.2-2.4-0.5-3.5-1.1c-3.4-1.4-6.7-2.8-10.2-4c-3-1-6.1-1.4-9.3-1.1
		c-1.9,0.1-3.7,1-5,2.4c-0.5,0.5-1,1-1.4,1.5c-1.5,1.7-3.6,2.6-5.8,2.5c-1.6,0-3.3,0.1-4.9,0.2c-3.3,0.1-6.4,1.6-8.5,4.2
		c-1.6,2-2.6,4.4-2.9,6.9c-0.2,1.5,0,3.1,0.7,4.4c0.9,1.5,2.3,2.6,4,3.1c2,0.6,4,1,6.1,1.2c1.5,0.2,3,0.5,4.5,0.8
		c2.2,0.5,4.4,1.4,6.3,2.7c2.3,1.3,4.5,2.9,6.9,4c3.1,1.5,6.5,2.4,9.9,2.6c2.1,0.1,4.3-0.1,6.5-0.1c1.7,0,3.3,0,5,0
		c0.5,0,1,0,1.4,0.2V85c-1,0-2,0-3-0.1c-0.9,0-1.9,0-2.8,0.1c-1.8,0-3.6,0-5.3,0c-5.2,0-10.3-1.4-14.7-4c-1.2-0.7-2.4-1.4-3.5-2.2
		c-2.7-1.8-5.7-3-9-3.4c-1.6-0.2-3.1-0.4-4.6-0.7c-2-0.3-4-0.9-5.8-1.9c-2.2-1.2-3.6-3.6-3.7-6.1c0-1.2,0.1-2.4,0.5-3.6
		c0.7-2.9,2.4-5.5,4.7-7.4c1.9-1.4,4.1-2.3,6.5-2.5c2.1-0.3,4.2-0.2,6.4-0.4c1.6,0,3.1-0.8,4.2-2c0.7-0.8,1.5-1.6,2.3-2.3
		c1.4-1.2,3.2-1.9,5.1-2c3.5-0.3,7,0.2,10.3,1.4c2.9,1,5.7,2.1,8.4,3.3c1.4,0.6,2.8,1.1,4.2,1.6L285,53.7z"/>
	<path id="Path_101" class="st1" d="M94.4,285c0.9-2.5,1.7-5,2.3-7.5c0.4-1.7,1-3.4,1.9-4.9c0.9-1.7,2.6-2.9,4.5-3.2
		c2.6-0.4,5.3-0.8,7.9-1.4c1.5-0.3,2.9-0.9,4.2-1.6c1.8-0.9,2.8-2.9,2.3-4.9c-1.2-6.3-6.3-11.2-12.7-12.1c-1.1-0.1-2.2-0.1-3.3,0
		c-4.4,0.3-8.8,1.1-13,2.5c-3,1-5.9,2.6-8.3,4.7c-2,1.6-3.5,3.8-4.3,6.2c-0.3,0.8-0.6,1.7-0.7,2.6c0,1.4,0.3,2.8,1.1,4
		c1.4,2.6,2.4,5.5,2.8,8.4c0.3,1.8,0.3,3.7,0.1,5.6c0,0.5-0.1,1-0.1,1.5h-1c0.7-4.6,0-9.4-2-13.6c-0.7-1.2-1.2-2.6-1.6-3.9
		c-0.4-1.4-0.3-3,0.2-4.4c1.5-4.2,4.5-7.7,8.5-9.7c4.9-2.6,10.3-4.2,15.8-4.7c1.5-0.2,3-0.2,4.5-0.2c3.4,0,6.8,1.2,9.4,3.5
		c2.5,2,4.4,4.8,5.3,7.9c0.2,0.6,0.3,1.1,0.4,1.7c0.3,3.1-0.6,4.6-3.4,5.9c-2.1,0.9-4.4,1.6-6.7,1.9c-1.5,0.3-3.1,0.6-4.6,0.8
		c-2.2,0.2-4.1,1.8-4.8,3.9c-0.8,2-1.4,4-1.9,6c-0.4,1.6-0.9,3.3-1.5,4.8L94.4,285z"/>
	<path id="Path_102" class="st1" d="M285,239.7c-1.1,0-2.2,0-3.3-0.1c-1-0.1-1.9,0-2.9,0.1c-1.1,0-2.2-0.1-3.3-0.4
		c-1.8-0.5-3.4-1.5-4.6-2.9c-1.2-1.1-2.1-2.4-2.6-3.9c-0.8-2-2.4-3.6-4.4-4.4c-3.4-1.6-7.4-1.9-11-0.7c-0.9,0.3-1.7,0.8-2.4,1.4
		c-0.8,0.5-1.1,1.5-0.8,2.4c0.1,0.5,0.3,1.1,0.5,1.6c0.9,2.5,1.1,5.2,0.6,7.7c-0.3,1.6-0.3,3.2,0,4.7c0.5,2.2,1.8,4.2,3.6,5.6
		c1.7,1.3,3.6,2.3,5.7,3c2,0.7,4.1,1.3,6.2,1.8c3.8,1,7.2,2.9,10,5.5c4.1,3.9,7.1,8.9,8.5,14.4c0.1,0.5,0.2,1,0.3,1.5
		c0,2.5,0,5,0,7.6c0,0.4-0.2,0.3-0.4,0.3c0.4-5.5-0.9-11-3.5-15.8c-2.4-4.8-6.3-8.7-11-11.2c-1.6-0.8-3.4-1.4-5.1-1.7
		c-2.6-0.5-5.1-1.4-7.5-2.5c-1.9-0.9-3.6-2.1-5.1-3.5c-1.7-1.8-2.7-4.2-2.8-6.7c-0.1-1.2,0-2.3,0.2-3.5c0.5-2.4,0.3-4.8-0.6-7.1
		c-0.1-0.4-0.2-0.7-0.3-1.1c-0.5-2.2-0.1-3.2,1.9-4.5c1.1-0.7,2.3-1.1,3.5-1.3c3.5-0.6,7-0.2,10.2,1.2c1.9,0.8,3.5,2.3,4.4,4.2
		c0.6,1.5,1.5,2.9,2.7,4.2c1.7,1.9,4.1,2.9,6.6,2.9c1,0,2,0,3,0c1.3,0,2.6,0,4,0.2L285,239.7z"/>
	<path id="Path_103" class="st1" d="M285,153.7c-1.4-0.1-2.8-0.4-4.1-0.9c-1.4-0.3-2.7-0.7-4-1.3c-2.3-0.9-4.3-2.7-5.5-4.9
		c-0.6-1.3-1-2.7-1.2-4.1c-0.3-1.7-0.7-3.5-1.2-5.1c-0.4-1.3-1.2-2.4-2.2-3.4c-1.2-1.4-3.3-1.5-4.6-0.3c-0.1,0.1-0.2,0.1-0.2,0.2
		c-2,1.7-3.7,3.8-5.1,6c-1,1.4-1.7,2.9-2.4,4.5c-0.4,1-0.6,2.1-0.6,3.2c0.2,2.9-0.2,5.7-1.2,8.4c-0.2,0.5-0.3,1-0.4,1.5
		c-0.4,1.6,0.2,3.2,1.5,4.1c1.8,1.3,3.8,2.5,5.9,3.3c2.4,1.1,4.9,2,7.4,2.9c1.5,0.4,2.9,1.1,4,2.1c0.7,0.6,1.2,1.4,1.4,2.2
		c0.7,2.1,1.4,4.2,2.1,6.3c0.8,2.3,2.1,4.5,3.7,6.3c0,0.1,0.1,0.1,0.1,0.1c1.9,1.6,4,2.9,6.3,3.9v1c-0.7-0.2-1.3-0.5-1.9-0.9
		c-1.2-0.6-2.3-1.3-3.4-2c-2.1-1.4-3.7-3.4-4.8-5.8c-1-2.4-1.9-4.8-2.7-7.3c-0.1-0.3-0.2-0.6-0.3-0.9c-0.5-1.6-1.6-2.9-3.2-3.5
		c-2.2-1.1-4.6-1.8-6.9-2.7c-2.9-1.1-5.7-2.6-8.3-4.4c-1.8-1.2-2.7-3.4-2-5.5c0.2-1.1,0.6-2.2,0.9-3.3c0.4-1.4,0.6-2.8,0.5-4.2
		c-0.2-2.9,0.5-5.9,2.1-8.4c1.5-2.6,3.3-5,5.4-7.1c0.4-0.4,0.8-0.7,1.2-1c2-1.6,4.5-1.4,6.4,0.6c1.3,1.5,2.2,3.3,2.5,5.3
		c0.3,1.5,0.7,3,0.9,4.6c0.6,3.7,2.9,5.9,6.2,7.3c2,0.8,4,1.4,6.1,1.7c0.4,0.1,0.7,0.2,1.1,0.3V153.7z"/>
	<path id="Path_104" class="st1" d="M285,92c-0.1,0.1-0.3,0.1-0.4,0.1c-2.1,0.1-4.1,0.6-6.2,0.7c-4.3,0.3-8.7-0.1-12.9-1.3
		c-1.9-0.4-3.9-0.3-5.8,0.3c-3.1,0.9-5.9,2.6-8.2,4.8c-1.4,1.1-2.5,2.5-3.5,4c-0.6,0.9-1,2-1.1,3.1c-0.3,1.8-0.2,3.7,0.1,5.5
		c0.4,2.6,2.5,4.6,5,5.1c2,0.5,4,0.7,6,1c4,0.7,7.8,2.4,11.1,4.8c2.6,2,5.6,3.6,8.6,4.8c1.6,0.6,3.3,1,5,1.5
		c0.8,0.3,1.5,0.5,2.3,0.8v1c-3.4-1.2-6.9-2-10.1-3.5c-2-0.9-3.9-2.1-5.7-3.4c-3.4-2.5-7.4-4.3-11.5-5.1c-1.9-0.4-3.8-0.5-5.7-1
		c-1.5-0.3-2.8-1-3.9-2c-1.2-1.2-1.9-2.7-2.1-4.4c-0.3-1.8-0.3-3.6,0.1-5.3c0.4-2.2,1.5-4.1,3-5.7c2.5-2.8,5.7-5,9.2-6.4
		c2.7-1.1,5.7-1.3,8.5-0.5c3.6,1,7.3,1.3,11,1.1c1.9-0.1,3.7-0.4,5.6-0.7c0.6-0.1,1.2-0.1,1.8-0.1L285,92z"/>
	<path id="Path_105" class="st1" d="M255.9,285c-0.6-1.8-1.7-3.4-3-4.7c-2.1-2.1-4.5-3.9-7.1-5.2c-4.3-2.4-9-3.9-13.5-5.7
		c-3.6-1.2-7.1-2.7-10.4-4.4c-0.5-0.3-1.1-0.6-1.6-1c-1.6-1.1-3.4-1.8-5.3-2.1c-2.6-0.5-5.3,0.3-7.2,2.2c-1.5,1.4-2.9,3-4.1,4.7
		c-1.6,2-3.4,3.7-5.4,5.3c-3.5,2.8-7.2,5.2-11,7.7c-1.3,0.8-2.4,2-3.1,3.4h-1.3c1.3-2.1,3.1-3.8,5.2-5.1c3.4-2.1,6.6-4.3,9.7-6.8
		c2.6-2.1,5-4.6,7-7.3c1-1.3,2.2-2.4,3.5-3.4c2-1.5,4.6-2,7-1.5c1.8,0.4,3.5,1.1,5,2.1c3.8,2.2,7.8,4.1,11.9,5.4
		c2.9,1.1,5.9,2,8.7,3.3c3.3,1.3,6.5,3,9.4,5.1c2.6,2,5.1,4.2,6.3,7.4c0.1,0.3,0.2,0.5,0.2,0.8L255.9,285z"/>
	<path id="Path_106" class="st1" d="M0,178.1c0.5,0.1,0.7,0.4,0.9,0.8c2.1,2.6,4.8,4.6,7.9,5.6c3.4,1.1,7,0.8,10.2-0.7
		c2.2-1.2,4.3-2.6,6.2-4.3c1.2-1.1,2.5-2.1,3.8-3.1c1.1-0.9,2.4-1.4,3.8-1.4c1.5,0.1,2.7-1,3-2.4c0.1-1.3-0.5-2.6-1.6-3.2
		c-1.6-0.8-3.4-1-5.2-0.7c-1.8,0.3-3.7,0.8-5.5,1.3c-1,0.3-2.1,0.5-3.2,0.6c-2.2,0.3-4.5-0.4-6.2-1.9c-2.6-1.9-5.3-3.6-8-5.2
		c-1.9-1.1-4-1.9-6.1-2.4v-0.8c1.5,0.2,2.9,0.6,4.3,1.3c3.2,1.5,6.3,3.4,9.2,5.5c0.7,0.6,1.5,1.1,2.3,1.6c1.3,0.8,2.8,1.2,4.4,1
		c2.3-0.4,4.5-0.9,6.7-1.5c1.6-0.4,3.3-0.6,5-0.5c1.2,0,2.3,0.4,3.2,1.1c1.8,1.3,2.3,3.8,1,5.6c-0.1,0.1-0.2,0.3-0.3,0.4
		c-0.5,0.6-1.3,1-2.1,1c-2.3-0.1-3.9,1.1-5.5,2.4c-1.5,1.2-2.9,2.5-4.4,3.7c-2.5,2.1-5.5,3.5-8.7,4.1c-3.2,0.5-6.4-0.1-9.2-1.7
		c-1.7-0.9-3.2-2-4.5-3.3c-0.5-0.5-1-0.9-1.5-1.4L0,178.1z"/>
	<path id="Path_107" class="st1" d="M285,61.8c-0.7,0-1.5,0-2.2-0.2c-2.8-0.2-5.6-0.5-8.4-1c-1.9-0.4-3.9-1-5.8-1.5
		c-1.7-0.5-3.5-0.9-5.3-1c-2.8-0.2-5.7,0.5-8.1,2c-1.8,1.1-3.8,1.9-5.8,2.6c-0.8,0.3-1.5,0.6-2.1,1.1c-1.1,0.8-1.3,2.3-0.5,3.4
		c0.1,0.2,0.3,0.3,0.5,0.5c0.5,0.4,1.1,0.6,1.7,0.8c1.4,0.3,2.9,0.5,4.3,0.6c1.4,0.2,2.7,0.5,3.9,1.1c0.9,0.4,1.7,1,2.4,1.8
		c2.6,2.9,6.2,4.8,10.1,5.3c1,0.2,1.9,0.2,2.9,0.1c2.9-0.2,5.7,0.4,8.2,1.9c1.3,0.8,2.7,1.3,4.1,1.7v1c-1.3-0.3-2.6-0.8-3.8-1.4
		c-1.2-0.7-2.5-1.3-3.8-1.8c-0.8-0.3-1.7-0.5-2.5-0.5l-2.7,0c-3.9,0.1-7.6-1-10.8-3.3c-0.5-0.3-0.9-0.7-1.2-1.1
		c-1-1.3-2.3-2.3-3.8-3c-1.3-0.5-2.6-0.8-3.9-0.9c-1.2-0.1-2.5-0.3-3.7-0.6c-0.2,0-0.3-0.1-0.5-0.1c-2.5-0.8-3.5-2.8-2.3-5.4
		c0.1-0.2,0.3-0.3,0.5-0.5c1.1-0.7,2.4-1.3,3.7-1.7c1.8-0.7,3.4-1.5,5.1-2.5c2.7-1.5,5.8-2.1,8.9-1.8c2.6,0.3,5.2,0.8,7.7,1.7
		c2.6,0.7,5.2,1.1,7.8,1.4c1.6,0.2,3.1,0.3,4.7,0.4c0.3,0,0.5,0.1,0.8,0.2L285,61.8z"/>
	<path id="Path_108" class="st1" d="M0,28.2c6-0.3,11.8-2.3,16.8-5.7c3.6-2.6,7.7-4.5,12-5.7c2.7-0.7,5.5-0.9,8.3-0.7
		c2.4,0.2,4.9,0.3,7.3,0.6c2.5,0.2,4.9,0.2,7.4,0.1c2,0,4-0.4,5.8-1.1c3.7-1.4,6.9-4,9-7.4c1.4-2.1,2.5-4.5,3.1-7
		C69.8,1,70,0.7,70.1,0.3c0.1-0.2,0.3-0.3,0.4-0.2c0.2,0,0.4,0.2,0.3,0.4c0,0,0,0,0,0c0,0.3-0.1,0.6-0.2,0.9c-0.8,3.1-2.2,5.9-4,8.5
		c-2.7,3.8-6.8,6.4-11.3,7.4c-0.4,0.1-0.9,0.2-1.3,0.2c-2.3,0.1-4.6,0.3-7,0.2C43,17.6,38.9,17,34.8,17c-3.4,0.1-6.8,0.8-9.9,2.1
		c-2.9,1.3-5.7,2.9-8.4,4.7c-4,2.7-8.6,4.4-13.3,5.1c-1,0.2-2.1,0.2-3.1,0.2V28.2z"/>
	<path id="Path_109" class="st1" d="M19.5,285c-0.3-2.9-0.8-5.8-1.5-8.6c-1.1-4.6-2.7-9.1-4.7-13.3c-0.8-1.6-1.8-3.2-3-4.6
		c-0.5-0.7-1.2-1.2-1.9-1.6c-0.3-0.2-0.5-0.3-0.8-0.4c-0.5-0.1-1-0.4-1.4,0c-0.4,0.4,0.1,0.9,0.2,1.2c0.4,0.9,0.9,1.8,1.3,2.7
		c0.9,1.7,1.5,3.6,1.9,5.6c0.2,1.3,0.2,2.5,0.1,3.8c-0.4,3-0.1,6,0.8,8.9c0.5,1.2,0.8,2.4,1,3.7c0.2,0.9,0.2,1.9-0.1,2.8h-0.8
		c0.2-1.5,0.1-3-0.4-4.4c-0.7-2-1.2-4.1-1.6-6.2c-0.2-1.5-0.1-3.1,0.1-4.6c0.3-1.9,0.1-3.8-0.5-5.6c-0.7-2-1.5-4-2.5-5.9
		c-0.2-0.4-0.4-0.9-0.6-1.3c-0.3-0.6,0-1.3,0.6-1.6c0.3-0.1,0.5-0.2,0.8-0.1c1.2,0.1,2.4,0.5,3.3,1.4c1.7,1.6,3.1,3.4,4.1,5.5
		c1.7,3.5,3.2,7.1,4.2,10.9c1,3.5,1.8,7.1,2.2,10.7c0.1,0.4,0.1,0.9,0,1.3L19.5,285z"/>
	<path id="Path_110" class="st1" d="M285,161c-2-0.3-4.1-0.5-6.1-0.9c-3.1-0.5-5.9-1.9-8.2-4c-0.8-0.8-1.7-1.5-2.7-2.1
		c-1.3-0.9-3-0.8-4.3,0.1c-0.9,0.6-1,1.1-0.5,2.1c0.6,1.1,1.5,2,2.6,2.7c2.4,1.9,5,3.5,7.7,5c2,1.1,3.9,2.3,5.7,3.7
		c1.7,1.3,2.9,3.1,3.5,5.2c0.5,1.8,1.3,3.5,2.5,5v1.2c-0.3-0.1-0.6-0.3-0.7-0.5c-1.2-1.6-2.2-3.5-2.7-5.4c-0.4-1.4-1.1-2.7-2.1-3.7
		c-1.4-1.4-3-2.6-4.8-3.5c-3-1.8-6-3.5-8.8-5.5c-1.3-0.9-2.4-2-3.3-3.2c-1.1-1.7-0.7-3.1,1.1-4c1.3-0.7,2.7-0.7,4-0.2
		c1,0.4,1.9,0.9,2.6,1.6c0.9,0.8,1.7,1.6,2.7,2.3c1.7,1.2,3.6,2,5.6,2.3c1.5,0.3,3,0.4,4.4,0.7c0.7,0.1,1.3,0.2,1.9,0.4L285,161z"/>
	<path id="Path_111" class="st1" d="M285,100.3c-0.4,0.2-0.9,0.2-1.3,0.2c-3.8,0.1-7.7,0-11.5-0.3c-2-0.2-4-0.3-5.9-0.4
		c-2.2-0.2-4.4,0.5-6.1,1.9c-1.2,1-2,2.5-2.1,4c-0.1,0.7,0.2,1.3,0.8,1.7c0.5,0.5,1.1,0.8,1.8,1c1.3,0.4,2.5,0.8,3.8,1.2
		c3.6,1,6.9,2.7,9.8,5.1c0.5,0.4,1,0.9,1.5,1.3c1.6,1.3,3.7,1.8,5.8,1.6c1.2-0.1,2.3-0.5,3.5-0.5v0.8c-2,0.6-4.1,0.8-6.2,0.5
		c-1.6-0.2-3.1-1-4.3-2.1c-2.9-2.7-6.4-4.6-10.3-5.8c-1.5-0.5-3-0.8-4.5-1.4c-0.5-0.2-0.9-0.4-1.4-0.7c-0.7-0.5-1.2-1.4-1.2-2.3
		c0-2.8,1.7-5.4,4.4-6.3c1.7-0.7,3.6-1,5.4-0.8c1.2,0.1,2.4,0.2,3.5,0.2c4.6,0.4,9.2,0.5,13.9,0.4c0.2,0,0.4,0,0.6,0.1L285,100.3z"
		/>
	<path id="Path_112" class="st1" d="M285,40.2c-3.3,0-6.7-0.6-9.8-1.8c-4.6-1.6-8.9-4.1-12.7-7.2c-2.4-1.8-4.5-4.1-6-6.6
		c-0.9-1.6-1.4-3.4-1.6-5.2c-0.3-3.1,0.1-6.2,1.2-9.1c1-3,1.1-6.1,0.3-9.2c-0.1-0.3-0.4-0.8,0.2-0.9c0.5-0.1,0.6,0.3,0.7,0.7
		c0.5,1.9,0.7,3.9,0.5,5.9c-0.2,1.7-0.6,3.5-1.2,5.1c-1.2,3.5-1.2,7.2,0,10.7c0.6,1.6,1.5,3.1,2.7,4.4c2.7,2.8,5.8,5.3,9.1,7.3
		c3.7,2.3,7.8,3.8,12.1,4.6c1.5,0.3,3,0.4,4.5,0.5L285,40.2z"/>
	<path id="Path_113" class="st1" d="M248.2,285c-0.5-0.7-1.1-1.3-1.9-1.8c-2-1.2-4.1-2.1-6.3-2.7c-4-1.2-8.1-2.1-12.2-3.1
		c-3.1-0.7-6.1-1.8-9.1-3.1c-3.5-1.8-7.6-1.6-11,0.4c-2.4,1.4-4.5,3.3-6.3,5.4c-1.1,1.2-2.1,2.6-3.2,3.8c-0.3,0.3-0.5,0.7-0.6,1.1
		h-1.3c0.1-0.3,0.2-0.5,0.4-0.7c2-2.8,4.2-5.3,6.7-7.6c1.8-1.8,4.1-3.2,6.5-4c2.5-0.8,5.1-0.7,7.6,0.2c1.5,0.6,3,1.2,4.4,1.8
		c2.6,0.9,5.2,1.7,7.8,2.3c4,1.1,8,1.8,11.9,3.2c2.3,0.7,4.5,1.9,6.4,3.4c0.5,0.4,1.1,0.8,1.2,1.5L248.2,285z"/>
	<path id="Path_114" class="st1" d="M29.3,285c-0.6-1.1-1.2-2.1-2-3c-2-3-3.7-6.2-5.2-9.4c-1.8-4.2-3.2-8.6-4.2-13.1
		c-1-4.2-2.8-8.2-5-11.9c-1.8-3.1-4.6-5.4-8-6.7c-1.6-0.6-3.2-1-4.9-1v-1c4.7,0.3,9.2,2.5,12.2,6.2c2.2,2.8,3.9,6,5.1,9.3
		c1.1,3.1,2.1,6.3,2.9,9.5c2,7.4,5.5,14.4,10.1,20.5c0.2,0.2,0.3,0.4,0.3,0.6L29.3,285z"/>
	<path id="Path_115" class="st1" d="M285,66.3c-2.2,0-4.4-0.3-6.5-0.7c-2.4-0.5-4.7-1.2-7-1.9c-1.9-0.6-3.9-0.9-5.9-0.9
		c-0.6,0-1.1,0.2-1.6,0.5c-0.9,0.5-1.2,1.6-0.7,2.5c0.1,0.1,0.1,0.2,0.2,0.3c0.6,0.7,1.4,1.3,2.3,1.7c1.9,0.8,3.8,1.5,5.8,1.9
		c1.9,0.4,3.7,0.9,5.5,1.6c2.6,1.1,5.2,2.3,7.8,3.5v0.8c-0.6-0.1-1.2-0.2-1.7-0.5c-1.1-0.5-2.3-1.1-3.4-1.6c-2-1-4.1-1.7-6.2-2.2
		c-2.5-0.6-5-1.3-7.4-2.2c-1-0.4-1.9-1-2.8-1.6c-0.3-0.2-0.6-0.5-0.8-0.8c-1-1.1-0.8-2.8,0.3-3.8c0.2-0.1,0.3-0.2,0.5-0.3
		c1.4-0.7,3-0.9,4.6-0.5c1.8,0.3,3.5,0.7,5.2,1.2c2,0.6,4,1.2,6.1,1.5c1.4,0.3,2.8,0.4,4.2,0.5c0.5,0,1,0.1,1.4,0.2L285,66.3z"/>
	<path id="Path_116" class="st1" d="M285,29.1c-3.7,0.2-7.3-0.3-10.8-1.4c-3.8-1.2-7.4-3-10.7-5.4c-2.1-1.5-3.4-3.8-3.6-6.4
		c-0.1-1.8,0.4-3.6,1.4-5.1c0.4-0.7,0.9-1.4,1.3-2.1c1.1-1.8,1.3-3.9,0.6-5.9c-0.2-0.7-0.5-1.4-0.8-2c-0.1-0.2-0.2-0.5,0.1-0.6
		c0.2-0.1,0.5,0,0.6,0.2c0.1,0.1,0.1,0.2,0.2,0.3c1,1.9,1.4,4,1.1,6.1c-0.3,1.1-0.7,2.2-1.4,3.1c-0.9,1.2-1.6,2.7-2,4.2
		c-0.5,2.1,0,4.4,1.4,6c1.5,1.6,3.3,2.9,5.2,3.9c3.9,2.2,8.2,3.6,12.6,4.1c1.5,0.2,3.1,0.2,4.6,0.3V29.1z"/>
	<path id="Path_117" class="st1" d="M128,285c-0.3-3.3-1.4-6.4-3.2-9.2c-2-3.1-5.7-4.6-9.2-3.8c-3.8,0.8-7.3,2.8-9.9,5.6
		c-1.8,2-2.8,4.6-2.8,7.3h-1c0.2-2.5,1-5,2.4-7.1c0.8-1.2,1.8-2.2,3-3c2.5-1.9,5.3-3.2,8.3-3.9c1.5-0.4,3.1-0.3,4.5,0.1
		c2.4,0.7,4.4,2.3,5.7,4.4c1.6,2.6,2.6,5.4,3,8.4c0,0.3,0.1,0.7,0.2,1L128,285z"/>
	<path id="Path_118" class="st1" d="M285,4c-0.8,1.2-1.3,2.6-1.4,4.1c-0.2,1.4-0.3,2.8-0.2,4.2c0,1-0.1,2.1-0.3,3.1
		c-0.1,0.5-0.2,1.1-0.4,1.6c-0.9,2.2-3.2,3.4-5.5,2.9c-1.1-0.2-1.9-0.9-2.2-2c-0.3-1-0.4-2.1-0.3-3.2c0.3-1.5,0.6-3,0.8-4.5
		c0.5-3,0.4-6-0.2-8.9c0-0.2-0.1-0.4-0.1-0.6c0-0.2,0-0.5,0.3-0.6c0.2-0.1,0.5,0.1,0.6,0.3c0.1,0.2,0.2,0.4,0.2,0.7
		c0.7,3.8,0.7,7.7-0.2,11.5c-0.3,1.3-0.4,2.7-0.3,4c-0.1,1.3,0.9,2.3,2.2,2.4c0.1,0,0.3,0,0.4,0c1.5,0.1,3-0.8,3.5-2.3
		c0.3-0.8,0.5-1.6,0.6-2.4c0.1-1.5,0.2-3,0.2-4.5c0.1-2.7,0.9-5.3,2.3-7.5c0-0.1,0.2-0.1,0.2-0.2L285,4z"/>
	<path id="Path_119" class="st1" d="M0,74.9c0.5,0,0.9,0.1,1.3,0.3c2.4,0.8,5,0.9,7.5,0.3c1.3-0.3,2.6-0.9,3.7-1.7
		c2-1.5,2.9-4,2.5-6.4c-0.2-1-1-1.7-1.9-1.8c-1.3-0.2-2.6-0.2-3.9,0.1c-1.4,0.2-2.8,0.6-4.2,0.7c-1.6,0.1-3.3,0.1-4.9,0v-0.8
		c0.5,0,1,0,1.5,0c2.1,0.1,4.1-0.1,6.1-0.6c1.5-0.3,3-0.5,4.4-0.5c3.1,0.1,4.5,1.8,4,4.8c-0.4,3.4-2.9,6.1-6.2,6.9
		c-2.9,0.9-6,0.9-8.8-0.1C0.7,76,0.3,76,0,75.9V74.9z"/>
	<path id="Path_120" class="st1" d="M234.7,285c-1.3-0.7-2.6-1.2-3.9-1.6c-3-0.8-6.1-1.5-9.2-2.1c-0.8-0.2-1.7-0.2-2.5-0.2
		c-1.9,0.2-3.7,1.1-4.9,2.6c-0.4,0.4-0.7,0.8-1,1.2h-1.3c0-0.1,0.1-0.3,0.1-0.4c1-0.9,1.9-1.9,2.9-2.8c1.6-1.4,3.8-2,6-1.5
		c2.5,0.4,5,1,7.5,1.5c2.6,0.7,5.2,1.5,7.7,2.5c0.4,0.1,0.8,0.3,1,0.6L234.7,285z"/>
	<path id="Path_121" class="st1" d="M118.6,285c-0.2-1-0.7-1.9-1.5-2.6c-0.6-0.6-1.3-1-2-1.4c-1.6-0.9-2.8-0.5-3.5,1.2
		c-0.2,0.6-0.4,1.2-0.5,1.9c0,0.3-0.1,0.7-0.3,1H110c0.1-1.4,0.4-2.7,1-4c0.6-1.3,2-1.9,3.3-1.4c0.9,0.3,1.7,0.7,2.4,1.3
		c1.1,0.8,2,1.9,2.6,3.1c0.2,0.3,0.3,0.6,0.3,1L118.6,285z"/>
	<path id="Path_122" class="st1" d="M285,139.8c-0.9-0.2-1.8-0.1-2.7,0.1c-0.9,0.2-1.5,1.2-1.2,2.1c0.1,0.3,0.2,0.5,0.4,0.7
		c0.1,0.2,0.3,0.3,0.4,0.5c0.9,0.9,1.9,1.5,3.1,1.8v0.8c-2-0.1-3.7-1.3-4.7-3c-0.7-1.1-0.4-2.6,0.8-3.3c0.1-0.1,0.2-0.1,0.4-0.2
		c1.1-0.6,2.4-0.7,3.5-0.3V139.8z"/>
	<path id="Path_123" class="st1" d="M0,274.2c0.5,0.2,0.6,0.6,0.7,1c1,3.2,1.3,6.5,0.8,9.8H0.6c0-0.3,0-0.7,0-1
		c0.2-1.7,0.2-3.5-0.1-5.2c0-0.6-0.2-1.2-0.6-1.6V274.2z"/>
	<path id="Path_124" class="st1" d="M0,145c0.4,0,0.8-0.1,1.2-0.1c0.9-0.1,1.6-1,1.5-1.9c0-0.1,0-0.2-0.1-0.3
		c-0.3-1.3-1.3-2.3-2.6-2.6v-1c1.9,0.4,3.3,2,3.6,3.9c0.2,1.4-0.7,2.7-2.1,2.9c-0.1,0-0.3,0-0.4,0c-0.4,0-0.8,0-1.1,0V145z"/>
	<path id="Path_125" class="st1" d="M0,1.1c0.2-0.3,0.3-0.6,0.5-0.9C0.7,0.1,0.9,0,1.1,0.1c0.2,0.1,0.3,0.2,0.2,0.4
		c-0.1,1-0.5,1.9-1,2.7C0.3,3.3,0.1,3.3,0,3.4V1.1z"/>
	<path id="Path_126" class="st1" d="M189.3,46c2.8,0,5.6-0.6,8.2-1.6c2.8-1.2,5.6-2.2,8.5-3.1c1.8-0.5,3.7-0.8,5.6-0.9
		c1.1,0,2.1,0.3,3.2,0.4c0.4,0,0.8,0.4,1.2,0.7c2.5,1.3,4,3.9,4,6.7c0,3.4-0.7,6.7-2,9.9c-1,2.7-2.2,5.3-3.5,7.9
		c-1.1,2.2-1.3,4.8-0.5,7.1c1,3.3,3.1,6.1,6,7.9c1,0.6,2.1,1,3.3,1.2c2.6,0.6,5.2,1.3,7.7,2.2c2.3,0.7,4.5,1.8,6.5,3.1
		c3.7,2.5,4.7,6,3.5,10.4c-0.6,1.6-1.4,3.2-2.3,4.6c-1.2,2-2,4.1-2.4,6.4c-0.4,2.6-1.5,5-3.1,7.1c-1.8,2.5-4,4.7-6.4,6.5
		c-3,2-5.5,4.7-7.3,7.9c-1.1,2.4-1.8,4.9-2.1,7.5c-0.2,1.8-0.4,3.7-0.4,5.6c0,3.1-0.2,6.2-0.3,9.3c0,1.2-0.1,2.4-0.4,3.6
		c-1.2,6.1-6.5,10.4-12.6,10.5c-2.3,0-4.7-0.2-6.9-0.8c-3.7-0.7-6.7-3.3-7.9-6.8c-0.7-2-1.2-4.2-1.4-6.3c-0.4-3.7-0.5-7.5-1.1-11.2
		c-0.3-2.3-1.1-4.6-2.2-6.6c-0.8-1.4-2-2.5-3.4-3.3c-2.2-1.2-4.2-2.6-5.9-4.3c-2.3-2.2-4.1-4.8-5.3-7.8c-1.5-3.3-2.2-6.9-2.1-10.6
		c0-0.7,0.2-1.3,0.4-1.9c1.2-3.3,2.9-6.5,5.1-9.2c1.1-1.5,2.3-3,3.3-4.5c1.6-2.3,3.1-4.7,4.4-7.2c1.5-3,1.1-6.7-1-9.4
		c-1.9-2.5-4.2-4.7-6.8-6.5c-2.3-1.7-4.6-3.4-6.9-5c-0.5-0.4-0.9-0.8-1.4-1.2c-1.6-1.1-3.4-1.8-5.3-2.2c-1.4-0.3-2.8-0.6-4.2-0.9
		c-2.5-0.6-4.8-1.7-6.8-3.3c-0.2-0.2-0.3-0.3-0.5-0.5c-0.2-0.2-0.3-0.4-0.5-0.7c-0.3-0.5-0.8-0.6-1.1-1.1c-1.6-3.2-3.2-6.4-3.2-10.1
		c0-4.9,1.6-9.6,4.7-13.4c1.1-1.4,2.3-2.8,3.6-4c1.9-1.7,2-3.9,1.6-6.2c-0.3-1.6-0.8-3.1-1.4-4.6c-0.4-1.2-0.9-2.3-1.3-3.5
		c-1.2-3.4-1.5-7-1.1-10.5c0.1-0.7,0.2-1.4,0.3-2c0-0.2,0.1-0.4,0.2-0.6c0.1-0.2,0.3-0.3,0.5-0.3c0.2,0,0.4,0.2,0.3,0.4
		c0,0.1,0,0.3,0,0.4c-0.1,1.2-0.3,2.4-0.4,3.6c-0.2,3.1,0.3,6.2,1.3,9.1c1,2.5,1.8,5,2.4,7.6c0.3,1.1,0.4,2.2,0.2,3.3
		c-0.3,1.6-1,3-2.2,4.1c-1.6,1.5-3.1,3.1-4.3,4.9c-2.4,3.4-3.7,7.4-3.7,11.5c0.2,3.3,1.2,6.4,3,9.1c2.1,3.3,5.2,5,8.9,5.8
		c1.9,0.5,3.9,0.8,5.8,1.4c1.5,0.4,2.8,1.1,4,2.1c1.9,1.6,4,3,6,4.5c3.1,2,5.8,4.5,8.2,7.3c0.8,1,1.5,2.2,2.1,3.5
		c1,2.4,0.9,5.1-0.3,7.4c-1.1,2.4-2.5,4.7-4.1,6.9c-1.8,2.5-3.7,5-5.5,7.6c-1.7,2.3-2.9,4.9-3.5,7.7c-0.1,0.8-0.2,1.6-0.1,2.5
		c0.4,4.4,1.8,8.6,4.2,12.2c1.9,3,4.6,5.5,7.8,7.2c4,2,5.9,5.4,6.7,9.6c0.6,3.3,1,6.6,1.1,10c0.1,3,0.6,5.9,1.5,8.7
		c1.1,3.5,4.2,6.1,7.9,6.6c1.5,0.3,3.1,0.5,4.7,0.6c5.2,0.3,9.2-1.6,12-6.4c0.9-1.7,1.5-3.6,1.5-5.5c0.2-2.6,0.1-5.2,0.2-7.9
		c0-3.8,0.3-7.6,1-11.3c0.5-2.9,1.7-5.6,3.5-7.9c1.5-1.8,3.1-3.3,5-4.7c2.9-2.1,5.5-4.7,7.5-7.7c1.2-1.8,2-3.9,2.4-6
		c0.6-2.7,1.6-5.2,3.1-7.5c0.6-0.9,1.1-1.9,1.5-3c0.7-1.9,0.8-3.9,0.3-5.8c-0.4-1.3-1.2-2.4-2.3-3.3c-1.8-1.5-3.9-2.6-6.2-3.3
		c-2.9-1.1-5.9-1.8-8.9-2.6c-3.2-0.8-6-2.9-7.8-5.7c-1.2-1.7-1.9-3.6-2.3-5.6c-0.3-1.9-0.1-3.9,0.7-5.7c1.4-3,2.9-5.9,4-9
		c0.9-2.3,1.4-4.7,1.7-7.1c0.1-1.1,0-2.3-0.3-3.4c-0.6-2.3-2.4-4.2-4.8-4.8c-2.2-0.6-4.5-0.5-6.6,0.2c-2.9,0.8-5.7,1.8-8.5,3
		c-3.5,1.5-7.4,2.2-11.2,2c-3.5,0-6.8-1.6-9-4.4c-1.7-2-2.6-4.5-2.8-7.1c0-1.8,0.1-3.6,0.5-5.3c0.3-2.2,0.1-4.5-0.8-6.6
		c-1-2.8-1.8-5.7-2.3-8.6c-0.8-4.4-0.3-9,1.5-13.1c0.2-0.4,0.4-0.9,0.7-1.3c0.1-0.3,0.4-0.4,0.6-0.5c0.4,0,0.6,0.2,0.4,0.5
		c-0.1,0.2-0.2,0.4-0.3,0.6c-1.3,2.3-2,4.9-2.2,7.6c-0.2,3.9,0.3,7.9,1.6,11.6c0.4,1.3,0.8,2.6,1.3,3.9c0.6,1.9,0.7,3.9,0.5,5.8
		c-0.1,1-0.3,2-0.4,3c-0.9,6.2,3.3,11.9,9.5,12.8c0.5,0.1,1,0.1,1.5,0.1C188.5,46,188.8,46,189.3,46z"/>
	<path id="Path_127" class="st1" d="M191.2,52.6c2.1-0.1,4.1,0,6.2,0.4c2.7,0.5,5,2,6.7,4.1c1,1.4,1.7,3.1,1.9,4.8
		c0.4,2.2,0.5,4.4,0.3,6.6c-0.2,2.5-0.1,5.1,0.3,7.6c0.4,2.1,1.5,4.1,3,5.6c2.8,3,6.2,4.8,9.9,6.4c2.6,1.2,5.3,2.1,8,3.1
		c1,0.4,1.9,0.8,2.8,1.4c0.9,0.5,1.5,1.4,1.7,2.4c0.2,0.8,0.3,1.7,0.4,2.6c0.2,4.3-1.2,8.4-4,11.7c-2.7,3.3-6,6.1-9.6,8.4
		c-3.2,1.9-5.7,4.8-7.1,8.3c-1.7,3.7-2.5,7.7-2.5,11.8c0.1,1.6,0.2,3.2,0.5,4.7c0.5,3.2,0.7,6.4,0.5,9.6c-0.1,1.3-0.3,2.6-0.8,3.8
		c-0.6,1.8-2.2,3.1-4.1,3.3c-3.5,0.6-7.1-0.7-9.4-3.4c-1.6-1.9-2.6-4.2-3.1-6.6c-0.6-2.5-0.9-5-0.9-7.6c0-1.4-0.2-2.8-0.1-4.2
		c0.1-2,0.1-4.1,0.2-6.1c0-0.7,0-1.4,0-2.2c0.2-2.8-1.3-4.6-3.5-6c-1-0.6-2-1.1-3.1-1.5c-1.4-0.5-2.7-1.2-4.1-1.9
		c-1.5-0.8-2.9-1.8-4-3.1c-2-2.3-2.5-5.6-1.3-8.4c1-2.2,2.2-4.3,3.8-6.2c2-2.5,4.3-4.8,6.4-7.2c1.4-1.6,2.8-3.3,4-5
		c0.9-1.3,1.7-2.6,2.2-4.1c1.2-3.2,0.5-6.8-1.8-9.3c-2.1-2.5-4.8-4.4-7.8-5.6c-1.4-0.6-2.9-1.1-4.3-1.8c-1.8-1-3.3-2.3-4.6-3.8
		c-2.2-2.7-4.8-5.1-7.6-7.2c-2.1-1.4-4.3-2.7-6.5-4c-2.4-1.4-4.6-3.1-6.5-5.2c-2.2-2.5-2.5-5.4-1.3-8.4c0.7-1.9,1.6-3.7,2.7-5.5
		c1.4-2.2,2.4-4.5,3.1-7c0.6-2.2,0.7-4.6,0.1-6.9c-0.3-1.3-0.7-2.7-1.1-4c-0.8-3-0.9-6.1-0.3-9.1c0.5-2.5,1.3-4.9,2.3-7.2
		c0.1-0.3,0.3-0.6,0.5-0.8c0.2-0.1,0.3-0.1,0.5,0c0.2,0.1,0.2,0.3,0.1,0.5c-0.1,0.4-0.3,0.8-0.5,1.2c-0.9,2.2-1.6,4.4-2.1,6.7
		c-0.6,3-0.5,6,0.4,8.9c0.5,1.5,0.9,3.1,1.2,4.7c0.4,2.7,0.1,5.6-1,8.1c-0.9,2.2-2,4.4-3.3,6.5c-1.2,1.8-2,3.9-2.5,6
		c-0.4,2.2,0.3,4.4,1.9,6c1.7,1.8,3.8,3.4,6,4.6c3,1.6,5.9,3.5,8.6,5.6c1.6,1.3,3.1,2.8,4.4,4.4c0.7,0.9,1.5,1.7,2.3,2.6
		c1.6,1.6,3.6,2.8,5.8,3.5c3.2,1.1,6.1,2.8,8.5,5.1c4.5,4.1,5.1,9.4,2.1,14.4c-1.4,2.2-3,4.3-4.8,6.2c-2.6,3-5.5,5.9-7.9,9.1
		c-1.4,1.7-2.4,3.7-2.9,5.8c-0.5,2.2,0.1,4.5,1.7,6.1c1.1,1.3,2.5,2.3,4,2.9c1.6,0.7,3.2,1.5,4.9,2.2c1.3,0.6,2.5,1.3,3.5,2.2
		c1.6,1.3,2.5,3.3,2.5,5.4c0.1,2.6-0.2,5.2-0.2,7.8c0,2.8,0,5.5,0.2,8.3c0.2,2.9,0.9,5.7,2.2,8.3c1.7,3.3,5.2,5.4,9,5.2
		c1.8,0.1,3.4-1,4.1-2.6c0.6-1.4,1-2.9,0.9-4.4c0.1-2.6-0.1-5.2-0.5-7.8c-0.5-2.8-0.6-5.6-0.5-8.3c0.3-3.4,1.2-6.8,2.6-9.9
		c0.8-1.9,1.9-3.6,3.3-5.2c0.6-0.7,1.4-1.4,2.2-1.9c2.3-1.5,4.5-3.1,6.7-4.8c3.4-2.9,6.4-6.1,7.8-10.6c0.2-0.7,0.4-1.5,0.4-2.2
		c0-1.3,0.1-2.5,0.1-3.8c0-1.9-1.2-3.5-3-4.1c-1.7-0.7-3.4-1.3-5.1-1.9c-3.6-1.3-7.1-3-10.4-5c-1.9-1.2-3.6-2.7-4.9-4.4
		c-1.6-2.1-2.5-4.7-2.6-7.3c-0.1-3.1,0-6.1,0-9.2c0-1.8-0.3-3.6-1-5.3c-1.3-3.2-3.9-4.9-7.3-5.6c-1.3-0.2-2.7-0.3-4.1-0.3
		c-2,0-4,0.1-6-0.1c-1.6-0.2-3.1-0.6-4.5-1.4c-2.7-1.4-5.3-3.1-7.7-4.9c-2.8-2.3-5.2-4.9-6.2-8.5c-0.4-1.5-0.4-3.1,0-4.6
		c0.4-1.8,0.8-3.6,1-5.5c0.2-2.2,0.1-4.4-0.4-6.6c-0.5-2.2-1.2-4.3-2-6.4c-1.1-3.5-1.6-7.2-1.4-10.8c0.1-1.2,0.3-2.3,0.5-3.5
		c0-0.2,0.1-0.4,0.2-0.6c0.1-0.3,0.3-0.7,0.7-0.6c0.4,0.1,0.3,0.5,0.2,0.8c-0.2,1.3-0.4,2.5-0.6,3.8c-0.2,2.3-0.1,4.6,0.4,6.9
		c0.4,2.4,1.1,4.7,1.9,7c1.1,2.9,1.6,6,1.5,9c-0.1,1.9-0.4,3.7-0.8,5.5c-0.2,0.7-0.4,1.4-0.5,2.1c-0.2,1.2-0.1,2.4,0.3,3.6
		c0.5,1.7,1.4,3.2,2.6,4.6c2.7,3.2,6.2,5.3,9.7,7.4c2,1.3,4.4,2,6.8,1.9C189.4,52.6,190.2,52.6,191.2,52.6z"/>
	<path id="Path_128" class="st1" d="M251.5,10.2c-0.1,3,0.1,6.1,0.4,9.1c0.4,2.9,0.3,5.9-0.1,8.9c-0.3,1.5-0.9,3-1.8,4.3
		c-1.2,1.5-2.8,2.6-4.6,3.1c-1.4,0.5-2.8,0.8-4.3,0.9c-1.1,0.1-2.2,0-3.2-0.2c-3-0.6-5.7-2-7.9-4.2c-1.5-1.4-2.9-2.9-4.2-4.4
		c-1.2-1.4-2.2-3-3.6-4.3c-1.5-1.5-3.6-2.2-5.6-1.8c-2.4,0.4-4.8,1.4-6.8,2.8c-1.2,0.8-2.4,1.8-3.4,2.9c-0.9,0.8-1.7,1.6-2.5,2.4
		c-1.8,0.8-3.5,2.1-5.5,2.2c-2.2,0.2-4.4-0.7-5.8-2.5c-1.2-1.6-2-3.4-2.5-5.3c-0.9-2.8-1.3-5.7-1.3-8.7c0-2.9,0.8-5.8,2.3-8.4
		c0.2-0.3,0.4-0.6,0.6-0.9c1.4-1.9,2.9-3.7,4.3-5.6c0.1-0.2,0.3-0.3,0.4-0.4c0.2-0.2,0.5-0.2,0.7,0c0.2,0.2,0,0.4-0.1,0.6
		c-1.3,1.7-2.6,3.4-3.9,5.1c-1.9,2.3-3,5.2-3.2,8.3c-0.2,4.2,0.5,8.4,2.1,12.3c0.3,0.7,0.7,1.4,1.1,2c1.3,2.1,3.9,3.1,6.3,2.3
		c1.5-0.4,2.9-1.2,4.1-2.2c1.8-1.4,3.3-3.2,5.1-4.5c2.1-1.6,4.5-2.7,7-3.3c2.5-0.5,5.1,0,7.1,1.5c0.3,0.3,0.6,0.6,0.8,0.9
		c1.5,2,3.1,3.9,4.7,5.8c2.2,2.5,4.9,4.5,8,5.9c1.2,0.5,2.5,0.7,3.8,0.7c2.3,0,4.7-0.5,6.7-1.7c2.4-1.3,3.9-3.7,4.2-6.3
		c0.3-2.5,0.4-5,0.1-7.5c-0.1-1.1-0.1-2.3-0.2-3.4c-0.2-3-0.3-6.1-0.2-9.1c0.1-1,0.1-1.9,0-2.9c-0.2-1.3-0.6-2.6-1.4-3.7
		c-0.1-0.1-0.2-0.3-0.3-0.4c-0.1-0.1-0.1-0.3-0.1-0.4c0.1-0.1,0.3-0.2,0.5-0.2c0.4,0.1,0.8,0.4,1,0.8c0.8,1.3,1.2,2.8,1.3,4.3
		C251.6,6.9,251.5,8.5,251.5,10.2z"/>
	<path id="Path_129" class="st1" d="M222.1,102.3c0.2,2.4-0.9,4.5-2.6,6.4c-2.5,2.8-5.5,5.2-8.1,8c-1.2,1.2-2.2,2.7-2.9,4.3
		c-0.9,2.2-2.4,4-4.4,5.2c-0.6,0.4-1.4,0.7-2.1,0.9c-1.4,0.4-3-0.1-4-1.1c-1.3-1.1-2.3-2.4-3.6-3.4c-0.9-0.7-1.5-1.6-2.4-2.3
		c-1-0.8-2.1-1.4-3.2-1.9c-3.4-1.5-5-5.4-3.8-8.8c0.5-1.1,1.2-2,2.1-2.8c1.3-1.1,2.4-2.4,3.5-3.7c1-1.1,2-2.3,2.9-3.5
		c1.3-1.6,2.4-3.4,3.2-5.3c0.6-1.5,0.7-3.2,0.5-4.8c-0.1-0.9-0.1-1.9-0.1-2.8c-0.1-2.1,1.5-3.9,3.6-4.1c0.5,0,0.9,0,1.4,0.2
		c1.6,0.3,3,1.2,4,2.4c0.8,0.9,1.5,1.9,2.3,2.8c2,2,4.4,3.7,7,5c0.8,0.4,1.5,0.8,2.3,1.2c1.7,0.8,3.1,2.4,3.6,4.2
		C222,99.5,222.2,100.9,222.1,102.3z M198.2,89.1L198.2,89.1c0,0.6,0,1.2,0,1.8c0.1,2-0.5,4-1.6,5.7c-0.6,0.9-1.2,1.8-1.8,2.7
		c-1.4,1.9-2.9,3.8-4.5,5.5c-1,1.1-2.1,2.1-3.2,3.1c-0.7,0.7-1.3,1.5-1.5,2.4c-0.7,3,0.9,6,3.7,7.2c1,0.4,1.9,1,2.8,1.7
		c1.2,1,2.3,2,3.4,3.1c0.9,0.9,1.7,1.8,2.7,2.6c1.7,1.6,3.1,1.8,5.2,0.7c0.5-0.3,1-0.6,1.4-1c1.3-1.2,2.3-2.7,2.9-4.3
		c0.3-0.9,0.9-1.8,1.5-2.6c0.9-1,1.8-2,2.7-2.9c2.1-2.1,4.2-4.2,6.4-6.3c1.9-1.7,3-4.3,2.8-6.9c-0.2-3.2-1.4-5.8-4.6-7.2
		c-1.2-0.5-2.4-1.1-3.5-1.8c-1.6-0.9-3.2-2-4.5-3.3c-1-1-2-2.1-2.8-3.2c-1.1-1.8-3.2-2.7-5.3-2.5c-1.3,0-2.3,1-2.3,2.3
		c0,0,0,0,0,0.1C198.2,87,198.2,88.1,198.2,89.1z"/>
	<path id="Path_130" class="st1" d="M236.3,0.1c0.6-0.2,1.2-0.2,1.8,0.1c1.9,0.8,3.5,2.1,4.7,3.7c1,1.2,1.5,2.8,1.4,4.3
		c0,2.5,0.2,5,0.5,7.4c0.3,2.1,0.4,4.3,0.2,6.4c-0.3,1.2-0.7,2.3-1.3,3.4c-0.1,0.1-0.2,0.3-0.4,0.3c-3.2,1.9-6.5,1.7-9.7,0
		c-2.4-1.4-4.6-3.1-6.6-4.9c-2.2-2-4.7-3.7-7.5-4.8c-3.9-1.6-8.3-1.3-11.9,0.9c-1,0.6-1.9,1.3-2.6,2.2c-0.1,0.2-0.3,0.4-0.5,0.5
		c-1.8,1.4-3,1.4-4.7,0.2c-0.9-0.7-1.6-1.7-1.9-2.8c-0.8-2.7-1-5.5-0.6-8.3c0.5-2.7,2.2-4.4,4.7-5.6c1.3-0.6,2.7-0.9,4.1-1
		c1.9-0.2,3.7-0.8,5.3-1.8c0.1-0.1,0.2-0.1,0.4-0.2c0.4-0.2,0.9-0.3,1.1,0c0.2,0.4-0.3,0.6-0.6,0.8c-1.9,1.3-4.2,2.1-6.5,2.2
		c-1.3,0.1-2.6,0.5-3.8,1.1c-2.1,0.9-3.5,2.8-3.7,5c-0.3,2.2-0.2,4.5,0.4,6.7c0.2,0.9,0.6,1.7,1.1,2.4c1.3,1.7,2.9,1.8,4.4,0.2
		c1.3-1.5,3-2.7,4.9-3.5c3.3-1.3,7-1.4,10.3-0.3c2.6,0.9,5,2.2,7,4c2.3,2.1,4.8,4,7.4,5.8c1.8,1.1,4,1.7,6.2,1.4
		c2.2-0.3,4-2.1,4.3-4.3c0.1-2.3,0-4.5-0.3-6.8c-0.3-2.3-0.4-4.5-0.4-6.8c0-1.9-0.8-3.7-2.3-4.9c-1.2-1-2.5-1.8-3.8-2.5
		C236.8,0.7,236.5,0.4,236.3,0.1z"/>
	<path id="Path_131" class="st1" d="M161.7,101.6c-2.5,0.2-5-0.4-7.3-1.5c-2.7-1.4-4.5-3.6-4.6-6.8c0-0.9,0.1-1.9,0.4-2.8
		c0.5-1.9,0.9-3.8,1.2-5.8c0.3-2.3,0.2-4.6-0.3-6.8c-0.5-1.6-0.8-3.1-1.1-4.7c-0.1-0.9-0.1-1.9,0.1-2.8c0.3-1.2,1.2-2.2,2.4-2.5
		c1.4-0.4,2.9-0.4,4.3-0.1c3,0.7,5.7,2.2,8,4.2c1.3,1.1,2.7,2.3,3.9,3.5c2.7,2.6,4.4,6,5,9.7c0.2,1.4,0,2.8-0.7,4
		c-1,1.9-2.1,3.8-3.1,5.8c-0.6,1.2-1.3,2.3-2.1,3.3c-1.3,2-3.5,3.2-5.9,3.2C162,101.5,161.9,101.6,161.7,101.6z M161.1,100.7
		c2.5,0,3.5-0.3,5.1-1.8c0.6-0.7,1.2-1.4,1.7-2.2c0.8-1.2,1.4-2.4,2.1-3.7c0.5-1.1,1.1-2.2,1.8-3.3c1.2-1.7,1.5-3.8,0.9-5.7
		c-0.7-2.9-2.2-5.6-4.4-7.6c-0.7-0.7-1.4-1.4-2.1-2c-2-1.9-4.4-3.6-6.9-4.8c-1.7-0.8-3.6-1.2-5.5-1c-1.2,0-2.3,0.8-2.7,1.9
		c-0.2,0.6-0.3,1.2-0.2,1.8c0.3,1.9,0.7,3.9,1.2,5.8c0.6,2.3,0.7,4.7,0.3,7c-0.3,2.1-0.8,4.1-1.4,6.2c-0.9,3.1,0.6,6.4,3.5,7.8
		C156.6,100.1,158.8,100.7,161.1,100.7z"/>
	<path id="Path_132" class="st1" d="M180.9,57.3c1.2,0,2.4,0.3,3.5,0.9c2.7,1.8,5.7,2.9,8.6,4.2c1.8,0.6,3.2,1.9,4,3.6
		c0.7,1.5,1,3.1,1,4.7c0.1,0.9-0.6,1.7-1.5,1.8c-0.8,0.2-1.6,0.3-2.4,0.3c-1.1,0-2.1-0.6-2.7-1.5c-0.5-0.9-1-1.7-1.4-2.7
		c-0.6-1.3-1.6-2.3-2.8-3c-1.2-0.6-2.5-1.3-3.7-1.8c-1.4-0.6-2.8-1.4-4.2-2.2c-0.5-0.3-1-0.7-1.4-1.2c-0.6-0.6-0.6-1.7,0-2.3
		c0.2-0.2,0.4-0.3,0.6-0.4C179.2,57.5,180,57.3,180.9,57.3z M181,58.2c-0.6,0-1.1,0.1-1.6,0.3c-1.1,0.6-1.2,1.2-0.3,1.9
		c1,0.8,2.1,1.4,3.3,2c1.7,0.8,3.4,1.5,5,2.4c1.4,0.7,2.5,1.8,3.2,3.1c0.4,1,1,1.9,1.5,2.8c0.5,0.9,1.6,1.4,2.7,1.2
		c0.4-0.1,0.9-0.2,1.3-0.3c0.7-0.2,0.9-0.5,0.9-1.2c-0.1-1.3-0.3-2.5-0.7-3.7c-0.3-0.9-0.9-1.6-1.6-2.2c-1.1-0.8-2.3-1.4-3.6-1.9
		c-2.4-0.8-4.7-1.9-6.8-3.3C183.2,58.7,182.1,58.3,181,58.2L181,58.2z"/>
	<path id="Path_133" class="st1" d="M229.6,3.9c2-0.2,4.1,0,6.1,0.6c1.4,0.4,2.5,1.4,3,2.8c0.5,1.3,0.9,2.6,1.1,4
		c0.1,0.9,0,1.9-0.3,2.8c-0.3,1.2-1.4,2-2.6,2c-2,0.1-4-0.7-5.5-2.1c-0.7-0.6-1.3-1.2-1.9-1.9c-0.7-1-1.8-1.5-3-1.3
		c-1.2,0.2-2.5-0.1-3.4-0.9c-1.1-0.9-1.3-2.5-0.4-3.6c0,0,0.1-0.1,0.1-0.1c0.7-0.8,1.7-1.4,2.8-1.7c0.7-0.2,1.4-0.3,2.1-0.4
		C228.2,4,228.9,4,229.6,3.9z M230.8,4.7c-1.1,0.1-2.1,0.1-3.2,0.2c-1.4,0-2.8,0.6-3.9,1.5C223,7,222.8,8,223.4,8.8
		c0.1,0.1,0.1,0.2,0.2,0.3c0.4,0.5,1,0.7,1.6,0.8c0.5,0,1,0,1.6,0c1.1-0.1,2.2,0.3,3,1.2c0.3,0.3,0.7,0.7,1,1.1
		c0.6,0.7,1.2,1.3,2,1.9c1,0.8,2.3,1.3,3.7,1.3c1.1,0.1,2.1-0.7,2.3-1.8c0,0,0,0,0,0c0-0.3,0.1-0.5,0.1-0.8c0-1.8-0.3-3.6-1.1-5.2
		c-0.4-0.9-1.2-1.6-2.1-1.9C234,4.9,232.4,4.7,230.8,4.7L230.8,4.7z"/>
	<path id="Path_134" class="st1" d="M183.2,182.5c0-1,0.3-2.1,1.1-2.8c1.6-1.7,3.4-3.2,5.5-4.3c1.5-0.7,3.2-1.2,4.9-1.5
		c1-0.2,1.6,0.3,1.7,1.3c0.1,0.9,0,1.7-0.4,2.5c-0.9,2.9-2.5,5.5-4.6,7.7c-0.9,1.1-2.3,1.8-3.7,1.9c-0.8,0.1-1.6-0.2-2.2-0.7
		C184.1,185.7,183.3,184.2,183.2,182.5z M195.4,176.1c0-1-0.2-1.2-1-1.1c-3.6,0.6-6.8,2.5-9.2,5.2c-1.4,1.5-1.4,2.8-0.3,4.5
		c0.2,0.4,0.5,0.7,0.9,1c0.8,0.8,2,1,3,0.4c0.7-0.3,1.3-0.7,1.8-1.2c1.7-1.7,3.1-3.8,4.1-6.1C195,178,195.3,177,195.4,176.1
		L195.4,176.1z"/>
	<path id="Path_135" class="st1" d="M46.4,11.8c-2.4-0.1-4.8-0.9-6.8-2.2c-3.6-2.3-6.8-5.1-9.4-8.5c0,0,0-0.1-0.1-0.1
		c-0.1-0.3-0.6-0.5-0.2-0.9c0.3-0.3,0.7,0,1,0.3c0.6,0.7,1.2,1.4,1.8,2c2.4,2.8,5.3,5.2,8.6,7c1.6,0.9,3.4,1.4,5.3,1.4
		c1.7,0,3.3-0.6,4.5-1.7c1.4-1.1,2.6-2.4,3.6-3.8c0.9-1.4,1.8-2.8,2.5-4.2c0.1-0.3,0.3-0.6,0.6-0.9c0.1-0.1,0.3-0.1,0.5,0
		c0.1,0.1,0.2,0.2,0.1,0.4c-0.1,0.3-0.2,0.7-0.3,1C57,3.9,55.5,6.1,53.7,8c-0.9,0.9-1.8,1.7-2.8,2.5C49.6,11.4,48,11.8,46.4,11.8z"
		/>
	<path id="Path_136" class="st1" d="M20.5,2.9c0,1.3-0.1,2.6-0.4,3.9c-0.9,4-4.8,6.5-8.7,5.6c-0.9-0.2-1.8-0.6-2.6-1.1
		C8,10.7,7.4,10,6.9,9.2C6.2,8,6.3,6.5,7.2,5.4C7.5,5,7.9,4.5,8.3,4.2c0.8-0.8,1.5-1.8,1.8-3c0-0.2,0.1-0.3,0.2-0.5
		C10.4,0.4,10.5,0,11,0.1c0.4,0.1,0.3,0.5,0.2,0.8c-0.3,1.3-1,2.5-1.9,3.5C9,4.8,8.7,5.1,8.4,5.3c-1.2,1.1-1.2,3-0.1,4.2
		c0.1,0.1,0.2,0.2,0.3,0.3c1.6,1.6,4,2.2,6.2,1.4c2.2-0.6,3.9-2.4,4.4-4.7c0.4-1.6,0.5-3.3,0.3-5c0-0.3,0-0.6,0-0.8
		c0-0.3,0.1-0.6,0.4-0.6s0.5,0.3,0.5,0.6c0.1,0.4,0.1,0.8,0.1,1.2C20.5,2.2,20.5,2.5,20.5,2.9z"/>
	<path id="Path_137" class="st1" d="M82.1,8.7c-0.6,0-1.2-0.1-1.7-0.2c-1.5-0.4-2.6-1.8-2.7-3.4c-0.1-1.4,0-2.9,0.3-4.3
		c0-0.2,0.1-0.3,0.2-0.5c0.1-0.2,0.3-0.2,0.4-0.2c0.1,0,0.2,0.2,0.3,0.3c0,0.4,0,0.8-0.1,1.2c-0.2,1.1-0.3,2.3-0.2,3.4
		c0.2,1.5,1.4,2.7,3,2.7c1.5,0,2.9-0.2,4.3-0.8c1.8-0.6,3.5-1.4,5.2-2.4C92.3,3.6,93.3,2.4,94,1c0.1-0.2,0.2-0.4,0.3-0.6
		c0.1-0.2,0.4-0.3,0.6-0.3c0.3,0.1,0.3,0.4,0.2,0.6c-0.4,1.2-1.1,2.4-2,3.3c-0.8,0.8-1.7,1.4-2.7,1.9c-2.4,1.4-5.1,2.4-7.8,2.7
		C82.4,8.6,82.2,8.7,82.1,8.7z"/>
	<path id="Path_138" class="st1" d="M248.2,84.6c-1.6-0.2-3.1-0.7-4.5-1.5c-0.7-0.4-1-1.1-0.8-1.5c0.3-0.7,0.9-0.7,1.5-0.7
		c1.5,0,2.9,0.4,4.2,1c0.5,0.3,1,0.6,1.4,1.1c0.6,0.7,0.4,1.3-0.5,1.6C249.1,84.6,248.6,84.7,248.2,84.6z M244.3,82.1
		c0.7,1,3.2,1.8,4.9,1.6c-0.5-0.7-1.3-1.2-2.1-1.4C246.1,82,245.2,81.9,244.3,82.1z"/>
	<path id="Path_139" class="st1" d="M37.2,91.4c0.1-2.3,0-4.5-0.3-6.8c-0.4-2.4-1.8-4.6-3.8-5.9c-0.6-0.4-1.2-0.9-1.8-1.4
		c-1.6-1.3-2.7-3.2-2.9-5.2c-0.2-1.5,0.4-3.1,1.5-4.1c1.3-1.2,2.8-2.1,4.5-2.4c2.4-0.6,4.8-1,7.3-1.2c4.6-0.7,9.3-1.2,13.9-1.7
		c2.7-0.3,5.5-0.7,8.2-1.2c1.9-0.3,3.7-0.7,5.5-1.3c2.6-1,5.4-1.3,8.1-0.9c2.6,0.3,5.1,1.2,7.3,2.6c1.9,1.2,3.5,2.8,4.6,4.8
		c0.9,1.7,1.5,3.6,2,5.4c0.4,1.8,0.9,3.5,1.5,5.2c0.5,1.6,1.4,3,2.6,4.2c1.2,1.2,2.7,2.1,4.4,2.7c2.2,0.9,4.6,1.5,6.9,2.2
		c1.8,0.5,3.5,1.3,5.1,2.3c1.1,0.8,2,1.7,2.7,2.8c0.6,1,1,2.1,1.1,3.3c0.3,1.9,0.5,3.9,0.7,5.9c0.1,2.4,0.9,4.7,2.1,6.7
		c1.1,1.6,2.5,3,4,4.2c2.2,1.7,4.5,3.3,6.7,4.9c1.8,1.3,3.4,2.8,4.9,4.5c1.5,1.8,2.3,4.1,2,6.4c-0.1,1.5-1,2.9-2.2,3.7
		c-1.3,0.9-2.8,1.4-4.4,1.5c-3,0.1-6-0.4-8.7-1.7c-3.2-1.3-6.2-2.9-9.1-4.9c-2.6-1.7-4.6-4.1-5.8-7c-0.8-2-2.4-3.7-4.3-4.8
		c-1-0.6-2-1.1-3-1.6c-1.7-0.9-3.2-2.1-4.4-3.6c-0.9-1-1.8-2.1-2.5-3.3c-1.6-2.5-4.1-4.3-7-4.9c-2.5-0.6-5.2-0.5-7.6,0.4
		c-1.2,0.4-2.3,0.9-3.4,1.6c-1.8,1.2-3.1,2.9-3.7,5c-0.3,0.7-0.6,1.5-0.9,2.2c-0.6,1.6-1.9,2.8-3.5,3.4c-2.1,0.8-4.3,1.1-6.5,0.8
		c-3.8-0.3-7.5-1.5-10.9-3.4c-2.5-1.4-4.8-3.3-6.8-5.5c-2.7-2.9-4.1-6.8-4.1-10.8C37.2,93.5,37.2,92.5,37.2,91.4z M38.1,90.8
		L38.1,90.8c0,1.4,0,2.8,0,4.1c0,1.5,0.2,2.9,0.7,4.3c0.6,1.5,1.1,3.1,2.5,4.2c0.1,0.1,0.2,0.3,0.2,0.4c0.1,0.4,0.3,0.7,0.6,0.9
		c0.3,0.3,0.7,0.6,1,0.9c2.9,3,6.5,5.2,10.5,6.4c2.1,0.7,4.3,1.1,6.5,1.2c2,0.2,4-0.2,5.8-1.2c0.8-0.4,1.4-1.1,1.9-1.9
		c0.5-1,1-2.1,1.3-3.2c0.8-2.3,2.4-4.2,4.5-5.4c2.8-1.7,6.1-2.5,9.4-2.1c2,0.1,3.8,0.7,5.5,1.8c1.7,1.1,3.1,2.5,4.2,4.3
		c1.9,3,4.6,5.4,7.7,6.9c0.5,0.2,1,0.5,1.5,0.8c1.5,0.8,2.8,2,3.8,3.4c0.5,0.8,0.9,1.6,1.3,2.5c0.6,1.3,1.3,2.4,2.3,3.5
		c1.3,1.4,2.8,2.7,4.5,3.6c1.4,0.8,2.8,1.6,4.2,2.3c2.8,1.6,5.9,2.6,9.2,3.1c1.8,0.3,3.6,0,5.2-0.7c1.7-0.6,2.9-2.3,2.9-4.1
		c0-1.8-0.5-3.5-1.6-4.9c-1.2-1.5-2.6-2.8-4.1-3.9c-1-0.9-2.1-1.6-3.2-2.3c-1.1-0.8-2.1-1.7-3.2-2.4c-1.7-1.2-3.3-2.6-4.6-4.2
		c-1-1.2-1.8-2.6-2.3-4.1c-0.5-1.9-0.9-3.9-1-5.9c-0.1-1.6-0.3-3.1-0.6-4.6c-0.5-2.3-2-4.3-4.1-5.5c-1-0.5-2-1-3.1-1.3
		c-2.6-0.9-5.4-1.5-8-2.6c-2.2-0.7-4.1-2.1-5.6-3.8c-0.9-1.2-1.6-2.6-2-4.1c-0.7-2.3-1.3-4.6-1.9-6.9c-0.7-2.6-2.2-5-4.3-6.7
		c-4.2-3.4-9.9-4.4-15.1-2.7c-3.5,1-7,1.7-10.6,2.1c-2.5,0.3-5,0.6-7.6,1c-2.7,0.3-5.3,0.7-8,1.1c-2.9,0.4-5.7,0.7-8.6,1.3
		c-1.3,0.2-2.6,0.7-3.8,1.4c-2.1,1.3-2.9,3.1-2.2,5.5c0.4,1.5,1.3,2.8,2.6,3.7c0.8,0.7,1.7,1.3,2.6,1.9c1.3,0.9,2.2,2.2,2.7,3.7
		c0.5,1.5,0.7,3,0.8,4.6C38.1,88.3,38.1,89.5,38.1,90.8L38.1,90.8z"/>
	<path id="Path_140" class="st1" d="M34,193.4c-0.9,0-1.8-0.3-2.6-0.7c-0.7-0.4-1.2-1.1-1.4-1.9c-0.2-0.8,0.2-1.7,1.1-2
		c0.2,0,0.3-0.1,0.5-0.1c1.4,0,2.8-0.4,4.1-1.2c0.6-0.4,1.3-0.6,2-0.7c1,0,1.6,0.5,1.5,1.5C38.9,191.2,36.7,193.2,34,193.4z
		 M33.8,192.4c1.9,0,3.6-1.2,4.2-3c0.1-0.3,0.2-0.5,0.2-0.8c0-0.5-0.2-0.7-0.7-0.6c-0.4,0.1-0.8,0.3-1.2,0.4c-1.4,0.8-3,1.2-4.6,1.3
		c-0.6,0-0.9,0.4-0.8,1.1c0.1,0.3,0.3,0.6,0.6,0.8C32.2,192.1,33,192.4,33.8,192.4L33.8,192.4z"/>
	<path id="Path_141" class="st1" d="M232.1,187.1c1.2-0.1,2.5,0,3.7,0.3c3.1,0.7,5.4,3.3,5.7,6.5c0.1,1.5,0.4,3,0.9,4.5
		c1.6,4.6,4.5,8,9.3,9.7c1.5,0.5,3,0.7,4.5,0.6c3.8-0.3,7.5,1.4,9.6,4.6c0.8,1.1,1.3,2.5,1.2,3.9c0.1,1.4-1,2.6-2.4,2.7
		c-0.3,0-0.5,0-0.8-0.1c-1.5-0.2-2.9-0.6-4.3-1.1c-1.9-0.7-3.9-1.2-5.9-1.6c-1.3-0.2-2.7-0.2-4.1,0c-4,0.8-8.1,0.6-12-0.7
		c-2.6-0.8-4.8-2.5-6.3-4.8c-1.6-2.4-3.9-4.4-6.5-5.7c-2.4-1.3-5.1-2.1-7.8-2.1c-1.4,0-2.8-0.4-4.1-1.1c-1.7-0.7-2.5-2.6-1.8-4.3
		c0-0.1,0.1-0.2,0.2-0.3c1.6-3.7,4.5-6.6,8.3-8c2.5-1.1,5.1-2,7.8-2.5C228.8,187.3,230.5,187.1,232.1,187.1z M232,188
		c-1,0-2,0.1-3,0.3c-3.5,0.5-6.8,1.6-9.9,3.1c-3.1,1.5-5.6,4-7,7.1c-0.7,1.2-0.2,2.7,1,3.4c0.1,0.1,0.3,0.1,0.4,0.2
		c0.9,0.5,1.9,0.7,2.9,0.8c3.2,0.1,6.4,0.9,9.2,2.5c1,0.5,1.9,1.1,2.8,1.7c1.4,1.2,2.6,2.5,3.6,4c1.5,2.2,3.7,3.9,6.3,4.6
		c3.2,1,6.6,1.2,9.8,0.6c3.1-0.5,6.3-0.3,9.3,0.7c1.1,0.3,2.2,0.7,3.3,1.1c1,0.4,2,0.6,3,0.8c1.5,0.1,2.4-0.4,2.3-2.3
		c-0.1-1.1-0.5-2.1-1.2-2.9c-1.7-2.5-4.6-3.9-7.6-3.9c-0.4,0-0.8,0-1.1,0c-4.6,0.1-9.1-2-11.8-5.8c-2.1-2.7-3.3-5.9-3.6-9.2
		c-0.1-2.3-1.3-4.5-3.3-5.7C235.6,188.3,233.8,187.9,232,188L232,188z"/>
	<path id="Path_142" class="st1" d="M141.6,147c2.8-0.1,5.5,1.2,7.3,3.4c1.1,1.3,1.9,2.9,2.2,4.6c0.6,2.4-0.9,4.9-3.3,5.6
		c-1,0.4-2.2,0.2-3.1-0.5c-0.5-0.4-1-0.8-1.5-1.3c-0.9-0.9-1.9-1.7-3-2.3c-2-1.1-4.1-2-6.1-3.2c-0.6-0.4-1.2-0.9-1.8-1.5
		c-0.3-0.3-0.5-0.6-0.5-1c-0.2-0.6,0.1-1.3,0.7-1.5c2.1-1.1,4.4-1.8,6.7-2.1C140.1,147.1,140.9,147,141.6,147z M150.1,156
		c0-0.9-0.1-1.8-0.5-2.7c-0.5-1.1-1.2-2.1-2-2.9c-1.5-1.7-3.8-2.6-6.1-2.5c-2.5,0.1-4.9,0.7-7.2,1.7c-0.3,0.1-0.6,0.3-0.9,0.5
		c-0.3,0.1-0.4,0.5-0.3,0.8c0,0,0,0.1,0.1,0.1c0.2,0.5,0.6,0.9,1,1.3c1.4,0.9,2.9,1.7,4.5,2.4c2,0.9,3.8,2.1,5.4,3.7
		c0.4,0.4,0.8,0.7,1.3,1.1c0.3,0.3,0.7,0.4,1.1,0.5c1.8,0,3.4-1.3,3.6-3.1C150.1,156.5,150.1,156.2,150.1,156L150.1,156z"/>
	<path id="Path_143" class="st1" d="M65.9,139.3c-0.1-1.6,0.2-3.2,1-4.6c0.8-1.3,2-2.2,3.5-2.6c1.8-0.5,3.6-0.7,5.5-0.4
		c0.9,0.1,1.8,0.4,2.6,0.9c1.3,0.8,2.8,1.4,4.4,1.6c0.8,0.1,1.7,0.2,2.5,0.2c2.7,0.3,5.2,1.7,6.8,4c0.4,0.5,0.8,1,1.1,1.5
		c1.1,1.8,2.6,3.3,4.3,4.4c2,1.5,4.1,2.8,6.2,4.2c2.2,1.4,4.3,2.9,6.3,4.6c0.4,0.4,0.8,0.8,1.1,1.2c0.5,0.5,0.6,1.2,0.4,1.8
		c-0.4,0.6-1.1,1-1.9,0.9c-0.9-0.1-1.8-0.4-2.7-0.8c-1.8-0.9-3.5-1.8-5.2-2.8c-1-0.5-1.9-0.9-3-1.3c-1.1-0.4-2.3-0.5-3.4-0.3
		c-2,0.3-4.1,0-5.9-0.8c-2.2-1-4-2.8-4.8-5.1c-1-2.5-3.3-4.3-5.9-4.7c-1.3-0.3-2.7,0-3.7,0.8c-1.3,1-2.9,1.7-4.5,2.1
		c-0.2,0-0.3,0.1-0.5,0.1c-2.4,0.3-3.7-0.2-4.1-2.8C65.9,140.8,65.9,140,65.9,139.3z M66.8,139.2c0,0.8,0.1,1.5,0.2,2.3
		c0.2,1.6,1,2.2,2.6,2c1.8-0.3,3.5-1.1,5-2.1c1-0.7,2.3-1.1,3.5-1.1c1.5,0.1,3,0.6,4.3,1.4c1.3,0.7,2.3,1.8,2.9,3.1
		c0.2,0.7,0.6,1.3,0.9,2c1.9,3.1,5.5,4.7,9.1,4.1c1-0.1,1.9-0.1,2.9,0.1c1.5,0.3,2.9,0.9,4.2,1.6c1.8,0.9,3.5,1.9,5.3,2.8
		c0.6,0.3,1.2,0.6,1.9,0.6c0.5,0,1,0.1,1.2-0.4c0.2-0.4-0.2-0.7-0.4-1c-0.1-0.2-0.3-0.3-0.4-0.5c-0.9-0.8-1.9-1.6-2.9-2.4
		c-3.4-2.3-7-4.5-10.3-6.9c-1.3-0.8-2.4-1.9-3.3-3.1c-0.6-0.9-1.3-1.8-1.9-2.7c-1.5-2.3-4-3.6-6.7-3.7c-2.2,0-4.4-0.6-6.4-1.8
		c-0.3-0.2-0.6-0.3-0.8-0.4c-1-0.5-2.1-0.7-3.2-0.7c-0.8,0-1.7,0.1-2.5,0.2c-2.6,0.2-4.6,2.2-5,4.7C66.8,138,66.7,138.6,66.8,139.2z
		"/>
	<path id="Path_144" class="st1" d="M29.9,149.4c-1.5,0.1-3-0.2-4.4-1c-0.3-0.2-0.6-0.4-0.7-0.7c-0.2-0.5-0.4-0.9-0.6-1.4
		c-0.5-1.8-1.6-3.4-3.1-4.5c-0.4-0.3-0.8-0.6-1.1-0.9c-0.4-0.3-0.7-0.6-1-0.9c-0.6-0.7-0.5-1.7,0.2-2.3c0.1-0.1,0.2-0.2,0.4-0.2
		c1-0.5,2.1-0.8,3.3-0.9c1.5-0.2,3-0.2,4.5,0.1c0.9,0.2,1.8,0.5,2.6,1.1c2.2,1.5,4.5,2.8,7,4c0.7,0.3,1.3,0.8,1.9,1.2
		c0.9,0.6,1.2,1.9,0.6,2.8c-0.2,0.3-0.4,0.5-0.7,0.7c-1.1,0.9-2.4,1.6-3.7,2C33.4,148.9,31.6,149.3,29.9,149.4z M29.4,148.3
		c2.2,0,4.4-0.5,6.4-1.4c0.8-0.3,1.6-0.8,2.3-1.4c0.9-0.9,0.9-1.2-0.1-2.1c-0.8-0.7-1.7-1.2-2.6-1.7c-1.9-0.9-3.8-1.9-5.5-3.1
		c-3-2.3-6.2-1.7-9.4-0.6c-0.9,0.3-0.9,0.9-0.3,1.6c0.5,0.5,1,0.9,1.5,1.3c1.8,1.3,3.1,3.2,3.6,5.4c0.2,0.9,0.9,1.6,1.7,1.7
		C27.8,148.3,28.6,148.4,29.4,148.3z"/>
	<path id="Path_145" class="st1" d="M134.1,173.3c-2-0.3-3.9-0.5-5.4-2c-0.2-0.1-0.3-0.3-0.4-0.5c-0.3-0.4-0.2-0.9,0.1-1.2
		c0.1-0.1,0.2-0.1,0.3-0.2c0.2-0.1,0.5-0.2,0.7-0.1c1.9,0.1,3.7,0.7,5.3,1.8c0.1,0,0.1,0.1,0.2,0.1c0.4,0.4,0.9,0.7,0.7,1.4
		C135.3,173.2,134.6,173.1,134.1,173.3z M129.5,170.4c0,0.2,0,0.2,0,0.3c1.2,1,2.8,1.6,4.4,1.7c0.1,0,0.3,0,0.3-0.2
		c0-0.1-0.1-0.3-0.2-0.3C132.7,170.8,131.1,170.4,129.5,170.4L129.5,170.4z"/>
	<path id="Path_146" class="st1" d="M23.8,205.8c2,0,3.9,0.5,5.7,1.2c2.1,0.8,4.3,1.2,6.5,1.1c2.6-0.1,5.1-0.6,7.5-1.5
		c1.7-0.6,3.4-1.4,5-2.4c1-0.7,2.1-1.4,3.2-2c1-0.6,2-1,3.1-1.2c1.5-0.3,3-0.1,4.3,0.6c0.4,0.3,0.8,0.6,1,1c0.8,1.2,2,2.1,3.4,2.7
		c1.5,0.6,2.9,1.4,4.2,2.2c0.2,0.1,0.5,0.3,0.7,0.5c2,1.7,2.3,3.4,1.2,5.8c-1.1,1.9-2.5,3.6-4.3,4.8c-1.1,0.8-2.2,1.7-3.2,2.6
		c-0.7,0.7-1.1,1.5-1.4,2.4c-0.4,1.2-1.3,2.1-2.5,2.6c-1.3,0.6-2.7,0.9-4.1,1.4c-1.6,0.6-3,1.5-4,2.8c-1.1,1.3-2.2,2.5-3.5,3.6
		c-1.8,1.6-4.2,2.3-6.6,1.9c-1.2-0.2-2.3-0.4-3.4-0.8c-1.2-0.4-2.3-1.1-3.1-2c-1-1-1.9-2.2-2.6-3.5c-1-1.9-2.7-3.4-4.8-4.1
		c-0.9-0.3-1.8-0.7-2.7-1.2c-1.3-0.8-2.3-2.1-2.7-3.6c-0.7-1.9-1.5-3.7-2.3-5.5c-1.3-2.5-0.9-5.5,0.8-7.7c0.9-1.1,2.3-1.8,3.7-1.8
		C23.1,205.8,23.5,205.8,23.8,205.8z M23.9,206.9c-0.3,0-0.6,0-0.8,0c-1.5-0.1-2.8,0.7-3.6,1.9c-1.1,1.5-1.4,3.5-0.7,5.2
		c0.9,2.3,2,4.6,2.8,6.9c0.6,1.5,1.8,2.7,3.3,3.3c0.7,0.3,1.3,0.6,2,0.9c1.3,0.5,2.5,1.3,3.4,2.3c0.6,0.9,1.2,1.8,1.8,2.8
		c1.7,2.9,4.7,4.8,8.1,5c2.2,0.2,4.4-0.6,6-2.2c1.1-1,2-2.1,3-3.1c0.8-1.1,1.9-2,3.1-2.6c0.9-0.4,1.9-0.8,2.8-1
		c0.8-0.2,1.7-0.5,2.5-0.8c1-0.4,1.8-1.2,2.1-2.3c0.3-0.9,0.8-1.6,1.4-2.3c1.3-1.4,2.9-2.5,4.3-3.7c1.5-1.1,2.7-2.6,3.4-4.2
		c0.6-1.2,0.4-2.6-0.5-3.6c-0.5-0.5-1.1-1-1.7-1.3c-1.1-0.6-2.3-1.2-3.4-1.8c-1.5-0.6-2.8-1.6-3.9-2.9c-0.9-1.2-2.3-1.8-3.8-1.5
		c-1.7,0.3-3.2,0.9-4.6,1.9c-2.7,1.8-5.6,3.3-8.7,4.3c-4.6,1.4-9.1,1.6-13.6-0.2C27.2,207.2,25.6,206.8,23.9,206.9L23.9,206.9z"/>
	<path id="Path_147" class="st1" d="M220.2,241.1c1.9,0.1,3.6,1,4.7,2.5c0.4,0.5,0.8,1,1.2,1.6c0.9,1,0.9,2.4,0,3.4
		c-1.2,1.6-2.3,3.3-3.3,5c-0.3,0.7-0.8,1.2-1.4,1.7c-1.1,0.9-2.5,1.2-3.8,0.8c-3.2-0.8-5.5-3.5-5.8-6.8c-0.2-1.3,0.1-2.7,0.7-3.9
		c0.1-0.2,0.3-0.4,0.4-0.6c1.7-1.8,3.8-3.1,6.2-3.7C219.5,241.1,219.9,241.1,220.2,241.1z M220.4,242c-0.4,0-0.8,0-1.2,0.1
		c-1.6,0.5-3.2,1.3-4.4,2.5c-0.6,0.4-1.1,1-1.5,1.6c-0.7,1.2-0.8,2.6-0.4,3.9c0.5,2.6,2.6,4.7,5.2,5.2c1,0.3,2,0,2.7-0.7
		c0.5-0.5,1-1.1,1.4-1.7c1-1.7,2-3.3,3.2-4.8c0.5-0.6,0.6-1.5,0-2.2c-0.7-1-1.5-2-2.4-2.9C222.4,242.3,221.4,241.9,220.4,242
		L220.4,242z"/>
	<path id="Path_148" class="st1" d="M267.5,249.7c-2,0.1-4-0.7-5.5-2c-1-0.9-1.9-1.9-2.5-3.1c-0.4-0.7-0.5-1.6-0.5-2.4
		c0-1.5,1.1-2.7,2.6-2.7c1.8-0.1,3.6,0.4,5,1.4c1.1,0.7,2.1,1.6,3,2.6c0.7,0.8,1.2,1.7,1.5,2.7c0.3,1.1-0.1,2.2-1.1,2.8
		C269.3,249.4,268.4,249.7,267.5,249.7z M267.2,248.7c0.1,0,0.1,0,0.2,0c1,0.1,2-0.3,2.5-1.1c0.5-1,0-1.9-0.6-2.8
		c-0.7-1-1.5-1.8-2.4-2.5c-1.3-1.2-3.1-1.9-4.8-1.9c-1.1-0.1-2.1,0.7-2.2,1.8c0,0.2,0,0.5,0.1,0.7c0,0.2,0.1,0.5,0.2,0.7
		c0.6,1.5,1.5,2.7,2.8,3.7C264.1,248.2,265.6,248.7,267.2,248.7L267.2,248.7z"/>
	<path id="Path_149" class="st1" d="M90.8,270.7c-2.8,0.1-5.5-1.1-7.3-3.1c-1.1-1.1-1.5-2.7-1.2-4.2c0.3-1.5,1-2.8,2.1-3.9
		c3.2-3.3,7.4-5.5,11.9-6.3c4-0.7,8.1-0.3,11.9,1.2c1.3,0.5,2.5,1.3,3.4,2.4c0.9,1.1,1.2,2.4,1,3.8c-0.1,0.7-0.7,1.3-1.3,1.6
		c-1.2,0.6-2.5,1-3.8,1.4c-2.1,0.6-4.2,1.1-6.2,1.9c-1.4,0.5-2.7,1.2-3.9,2.2c-0.3,0.2-0.5,0.5-0.7,0.7c-1.2,1.5-3.1,2.4-5,2.4
		C91.2,270.7,91,270.7,90.8,270.7z M99.6,254c-2.3-0.1-4.6,0.3-6.7,1.2c-1.4,0.5-2.7,1.2-3.9,2c-1.8,1.1-3.5,2.4-4.8,4.1
		c-1.4,1.6-1.5,3.9-0.2,5.6c0.6,0.8,1.4,1.5,2.3,1.9c1.3,0.7,2.8,1.1,4.3,1.1c1.9,0.2,3.7-0.5,5-1.9c1-1.1,2.2-2,3.5-2.6
		c1.5-0.7,3.1-1.3,4.7-1.7c2-0.5,4-1.1,6-1.8c2.2-1,2.2-2.2,1.2-4c-0.2-0.4-0.5-0.8-0.9-1.1c-0.8-0.7-1.7-1.2-2.7-1.6
		C104.9,254.3,102.2,253.9,99.6,254L99.6,254z"/>
	<path id="Path_150" class="st1" d="M3.3,172.3c0-0.1,0-0.3,0-0.4c-0.1-1.1,0.5-2.1,1.5-2.5c1-0.4,2.1-0.2,2.9,0.5
		c0.3,0.3,0.6,0.6,0.9,0.9c1.5,1.9,3.7,3.1,6.1,3.3c1,0.1,2,0.2,3,0.1c2.6-0.1,3.3,1.8,2.9,3.7c-0.2,1.1-0.9,2.1-2,2.5
		c-1.6,0.7-3.4,1-5.2,0.8c-1.3-0.1-2.6-0.3-3.8-0.7c-3.2-1-5.6-3.7-6.3-7C3.4,173.2,3.3,172.7,3.3,172.3z M14.2,180.3
		c0.9,0,1.8-0.1,2.7-0.3c1.1-0.2,2-0.8,2.6-1.7c0.6-0.9,0.5-2.1-0.4-2.8c-0.3-0.3-0.8-0.4-1.2-0.4c-0.7,0-1.3,0-2,0
		c-3.2-0.2-6.2-1.2-8.2-3.9c-0.3-0.4-0.7-0.8-1.2-1c-0.7-0.4-1.7-0.1-2.1,0.6c-0.1,0.1-0.1,0.3-0.1,0.4c-0.2,0.6-0.2,1.2,0,1.7
		c0.1,0.6,0.3,1.3,0.6,1.9c0.6,1.5,1.7,2.8,3,3.7C9.8,179.8,12,180.4,14.2,180.3z"/>
	<path id="Path_151" class="st1" d="M206.3,94.6c2.3,0.1,4.6,0.7,6.7,1.8c2.8,1.6,3.4,4.5,2.4,7.4c-0.4,1.2-1.2,2.4-2.2,3.2
		c-1,0.8-2,1.6-3,2.4c-1.5,1-2.8,2.3-3.9,3.9c-1.4,2.4-3.8,3.9-6.5,4.1c-1.8,0.2-3.6-0.4-4.9-1.6c-1.3-1.1-2.4-2.3-2.5-4.1
		c0-1.6,0.4-3.2,1.4-4.5c0.4-0.6,0.8-1.1,1.3-1.6c2.4-2.3,4.5-5,6.2-7.9c0.5-0.9,1.2-1.7,2.1-2.3C204.2,94.8,205.3,94.6,206.3,94.6z
		 M199.2,116.4c0.6,0,1.1-0.1,1.7-0.2c2-0.5,3.7-1.8,4.8-3.6c0.5-0.8,1.1-1.6,1.8-2.2c1.4-1.2,2.8-2.2,4.2-3.4
		c1.5-1,2.6-2.6,3.1-4.4c0.5-2.1-0.4-4.3-2.2-5.4c-1.9-1-4-1.6-6.2-1.8c-1.5-0.1-2.9,0.5-3.7,1.7c-0.6,0.8-1.2,1.6-1.7,2.5
		c-1.2,2.1-2.6,4-4.4,5.6c-0.4,0.3-0.7,0.7-1,1c-0.8,0.8-1.3,1.7-1.8,2.7c-0.7,1.4-0.7,3,0.1,4.3C195,115.2,197,116.4,199.2,116.4z"
		/>
	<path id="Path_152" class="st1" d="M158,85.8c0-1.4,0.4-2.9,1-4.2c0.3-1,1.4-1.6,2.4-1.3c1.1,0.2,2,0.7,2.7,1.5
		c0.7,0.7,1.3,1.4,1.8,2.1c0.6,0.8,0.6,1.9,0.2,2.8c-0.5,1.1-1.1,2.1-1.8,3c-1,1.3-2.9,1.6-4.2,0.6c-0.2-0.1-0.3-0.2-0.4-0.4
		C158.4,89,157.8,87.4,158,85.8z M158.9,85.8c0,1.4,0.6,2.8,1.6,3.7c0.7,0.7,1.9,0.7,2.7,0c0,0,0,0,0.1-0.1c0.8-0.8,1.4-1.7,1.9-2.7
		c0.5-0.9,0.4-1.9-0.2-2.7c-0.6-0.8-1.4-1.6-2.2-2.2c-0.3-0.2-0.7-0.4-1.1-0.5c-0.9-0.2-1.3-0.1-1.7,0.7
		C159.3,83.3,158.9,84.5,158.9,85.8L158.9,85.8z"/>
	<path id="Path_153" class="st1" d="M52.8,68.4c1.8,0,3.6,0,5.3,0c3.6,0,7.1-0.8,10.3-2.2c2.5-1.3,5.4-1.6,8.1-0.9
		c2.8,0.6,5.1,2.7,6,5.4c0.8,2.1,1.3,4.2,1.3,6.5c0,1.2,0.2,2.5,0.4,3.7c0.7,2.5,2.4,4.6,4.7,5.7c2.7,1.3,5.5,2.4,8.4,3.3
		c2.2,0.6,4.3,1.4,6.3,2.4c0.9,0.4,1.6,1,2.3,1.7c1.1,1,1.4,2.6,0.8,4c-0.2,0.5-0.4,1-0.6,1.4c-0.8,1.9-2.9,2.9-4.8,2.4
		c-1.4-0.3-2.8-0.7-4-1.3c-3.3-1.7-6.8-3.2-10.3-4.6c-2.4-1-4.9-1.8-7.5-2.1c-3.4-0.5-6.8,0.4-9.5,2.6c-1.6,1.4-3.2,2.9-4.8,4.3
		c-1.6,1.5-3.3,2.8-5.2,3.8c-2.7,1.5-5.9,1.5-8.6-0.1c-2.6-1.3-4.9-3.2-6.7-5.5c-1.6-1.9-2.3-4.5-1.9-7c0.3-1.8,0.7-3.5,1-5.3
		c0.3-1.6,0.3-3.3-0.1-4.9c-0.3-1.2-0.9-2.2-1.7-3.2c-0.5-0.7-1-1.4-1.4-2.1c-0.9-1.6-1-3.4-0.4-5.1c0.4-0.9,1.2-1.7,2.1-2
		c1.3-0.5,2.6-0.8,4-0.8C48.7,68.3,50.8,68.4,52.8,68.4L52.8,68.4z M48.7,69.2c-0.6,0-1.2,0-1.8,0c-1.2,0-2.4,0.3-3.6,0.7
		c-1.3,0.5-2.2,1.7-2.1,3.1c0,1.3,0.4,2.5,1.1,3.5c0.5,0.7,1,1.4,1.4,2.1c1.3,2,1.9,4.4,1.6,6.8c-0.2,1.8-0.7,3.5-1,5.2
		c-0.2,0.9-0.3,1.9-0.3,2.9c0.1,1.9,0.9,3.7,2.2,5.1c1.8,2.1,4.1,3.9,6.7,5.1c2.1,1,4.6,1,6.7,0c1.6-0.9,3.1-1.9,4.5-3.2
		c1.7-1.5,3.3-3,5-4.5c3-2.8,7.1-4,11.1-3.3c3.4,0.6,6.6,1.6,9.8,3c3,1.2,5.8,2.7,8.7,4c1.1,0.5,2.4,0.9,3.6,1
		c0.8,0.1,1.5-0.1,2.2-0.5c1.1-1,1.8-2.4,1.9-3.9c0-0.3,0-0.6-0.2-0.8c-0.4-0.9-1.1-1.7-2-2.2c-0.8-0.4-1.5-0.8-2.3-1.1
		c-2.3-0.9-4.7-1.7-7.1-2.5c-2.2-0.7-4.2-1.6-6.2-2.6c-2-1-3.7-2.7-4.6-4.8c-0.6-1.5-0.9-3.1-0.9-4.7c0-2.5-0.5-5-1.5-7.2
		c-1.1-2.7-3.7-4.5-6.6-4.5c-2.3-0.2-4.5,0.3-6.6,1.3c-1.6,0.8-3.4,1.3-5.2,1.6c-2.8,0.4-5.5,0.6-8.3,0.6
		C52.8,69.5,50.7,69.2,48.7,69.2L48.7,69.2z"/>
	<path id="Path_154" class="st1" d="M235.4,198.4c0,0.7-0.1,1.4-0.4,2.1c-0.5,1.4-2,2.2-3.5,1.9c-0.7-0.1-1.4-0.3-2.1-0.6
		c-1.4-0.5-3-0.7-4.5-0.4c-1,0.2-2.1,0.1-3.1-0.1c-1.7-0.4-2.3-1.9-1.3-3.3c1.9-2.9,5-4.7,8.4-4.9c1.8-0.1,3.6,0.5,4.9,1.7
		C234.7,195.7,235.3,197,235.4,198.4z M234.3,198.8c0.2-2.2-1.4-4.2-3.6-4.6c-1.6-0.4-3.3-0.2-4.8,0.5c-1.7,0.8-3.2,2-4.4,3.4
		c-0.2,0.2-0.3,0.4-0.4,0.6c-0.4,0.8-0.2,1.3,0.7,1.6c0.2,0.1,0.5,0.1,0.7,0.1c0.9,0.1,1.8,0.1,2.7-0.1c1.6-0.2,3.1,0,4.6,0.6
		c0.6,0.3,1.3,0.4,2,0.5c1.2,0.1,2.2-0.7,2.4-1.9C234.3,199.3,234.3,199,234.3,198.8z"/>
	<path id="Path_155" class="st1" d="M40.6,225.8c-2.8,0.1-5.5-0.4-8.1-1.4c-1.4-0.5-2.6-1.3-3.7-2.3c-2.7-2.7-3.5-5.9-1.1-9.3
		c0.7-0.9,1.7-1.5,2.9-1.5c1.1,0,2.3,0.1,3.4,0.4c2,0.5,4,0.8,6.1,1c2.8,0,5.5-0.8,7.8-2.3c0.6-0.4,1.3-0.8,1.9-1.3
		c1-0.7,2-1.2,3.2-1.4c2.5-0.6,4.5,0.7,4.8,3.6c0.1,1.6-0.1,3.2-0.8,4.6c-2.5,6-7.1,9.1-13.5,9.9c-0.5,0.1-1,0.1-1.5,0.2
		C41.5,225.8,41,225.8,40.6,225.8z M40.5,224.9c1.6,0,3.2-0.2,4.8-0.6c4.9-0.9,8.9-4.3,10.7-8.9c0.7-1.5,1-3.2,0.7-4.8
		c-0.1-1.4-1.3-2.3-2.7-2.2c-1.6,0.1-3.2,0.7-4.4,1.8c-3.5,2.9-8,4-12.4,3.1c-1.7-0.4-3.5-0.7-5.2-1c-0.9-0.2-1.9,0-2.7,0.5
		c-1.5,1.3-2.3,3.3-1.9,5.3c0.6,1.9,1.9,3.6,3.7,4.5C34,224.2,37.2,225,40.5,224.9L40.5,224.9z"/>
	<path id="Path_156" class="st1" d="M102.1,255.8c1.5,0.1,2.9,0.7,3.8,1.9c0.5,0.5,0.6,1.3,0.4,1.9c-0.2,0.9-1,1.4-1.8,1.3
		c0,0,0,0,0,0c-1.5-0.2-3,0-4.4,0.5c-0.5,0.2-1.1,0.3-1.6,0.4c-0.7,0.1-1.3-0.3-1.5-1c0-0.1,0-0.3,0-0.4c0-0.7,0.3-1.3,0.7-1.8
		c0.9-1.4,2.3-2.3,3.9-2.7C101.7,255.8,101.9,255.8,102.1,255.8z M102.1,256.9c-1.6,0-3,0.9-3.8,2.3c-0.3,0.4-0.7,0.9-0.3,1.4
		c0.4,0.4,1,0.2,1.5,0c1.6-0.6,3.3-0.9,5-0.7c0.5,0.1,0.8-0.2,0.8-0.7c0.1-0.4-0.1-0.8-0.4-1.1C104.2,257.3,103.2,256.8,102.1,256.9
		z"/>
	<path id="Path_157" class="st1" d="M70.7,87.1c-1,0-1.9,0-2.8-0.3c-2-0.4-2.7,0.9-2.6,2.5c0.1,0.6,0.1,1.2,0,1.9
		c-0.9,3.6-2.9,6.3-6.5,7.7c-1.5,0.5-3.1,0.5-4.6-0.1c-2.3-0.9-3.1-2.7-3.3-5c-0.1-0.6,0-1.2,0.2-1.8c0.6-2.4,0.4-4.8-0.5-7.1
		c-0.3-0.9-0.6-1.8-0.8-2.7c-0.4-1.6,0-3.4,0.9-4.8c0.6-0.9,1.3-1.7,2-2.5c1.4-1.2,3.3-1.7,5.1-1.3c2.7,0.4,5.5,0,7.9-1.3
		c0.6-0.3,1.3-0.6,1.9-0.8c1.8-0.7,3.8-0.6,5.5,0.3c0.5,0.3,1,0.5,1.4,0.8c0.1,0.1,0.2,0.1,0.3,0.2c1.9,2.5,3.3,5.3,3,8.6
		c-0.1,2.4-1.7,4.5-4,5.3C72.9,87,71.8,87.2,70.7,87.1z M76.9,80.5c0-2.1-0.7-4.2-1.9-5.9c-1.2-1.8-3.3-2.8-5.5-2.6
		c-1,0.2-2,0.5-2.9,0.9c-1.2,0.6-2.5,1.1-3.9,1.5c-1.8,0.4-3.6,0.4-5.4,0.1c-1.4-0.3-2.9,0.2-4,1.1c-0.6,0.5-1.1,1.1-1.5,1.7
		c-1,1.4-1.4,3.1-1.1,4.8c0.3,1.1,0.6,2.1,1,3.2c0.8,2,0.9,4.3,0.4,6.4c-0.1,0.6-0.2,1.3-0.1,2c-0.1,3.7,3.6,5.4,6.6,4.2
		c2.6-1.1,4.7-3.3,5.5-6c0.3-0.6,0.3-1.3,0.2-2c-0.1-0.7-0.1-1.5,0.1-2.2c0.2-1.1,1.1-1.9,2.2-1.9c0.4,0,0.8,0,1.1,0
		c0.8,0.1,1.7,0.2,2.5,0.3c1.1,0.1,2.3,0,3.4-0.5c1.5-0.6,2.6-1.8,3-3.4C76.8,81.7,76.9,81.1,76.9,80.5L76.9,80.5z"/>
	<path id="Path_158" class="st1" d="M45.4,215.3c0.4,0,0.8,0,1.2,0.1c0.5,0,1,0.5,0.9,1c0,0.1,0,0.2-0.1,0.3
		c-0.2,0.6-0.6,1.1-1.1,1.4c-1.5,0.9-3.1,1.6-4.8,2c-0.8,0.2-1.6,0.3-2.4,0.4c-0.8,0.1-1.6,0-2.4-0.2c-0.9-0.2-1.5-1.1-1.3-2
		c0.1-0.4,0.3-0.7,0.6-0.9c0.8-0.8,1.8-1.3,3-1.4c1.2-0.2,2.3-0.3,3.5-0.4C43.6,215.5,44.5,215.3,45.4,215.3z M38.7,219.7
		c2.5-0.2,4.9-1,7.1-2.3c0.3-0.2,0.9-0.4,0.7-0.9s-0.7-0.3-1.1-0.3c-2,0.2-4,0.4-6,0.7c-0.9,0.1-1.8,0.5-2.4,1.1
		c-0.5,0.6-0.5,1,0.2,1.4C37.6,219.7,38.2,219.8,38.7,219.7L38.7,219.7z"/>
	<path id="Path_159" class="st1" d="M63.3,79.6c0-0.7,0.2-1.4,0.4-2c0.6-1.5,2.1-2.3,3.7-1.8c1.9,0.4,3.3,1.8,3.6,3.7
		c0.1,1.9-1,3.6-2.8,4.1c-1.8,0.5-3.7-0.4-4.5-2.1C63.5,80.8,63.3,80.2,63.3,79.6z M70,79.7c0-0.3,0-0.7-0.2-1
		c-0.7-1.2-1.9-2.1-3.3-2.2c-0.8,0-1.5,0.4-1.8,1.2c-0.3,0.6-0.4,1.3-0.4,2c0,1.4,1.4,3.2,3.1,3C68.9,82.5,70,81.2,70,79.7z"/>
</g>
</svg>
