<svg xmlns="http://www.w3.org/2000/svg" xmlns:xlink="http://www.w3.org/1999/xlink" width="941" height="26.293" viewBox="0 0 941 26.293">
  <defs>
    <clipPath id="clip-path">
      <rect id="Rectangle_30" data-name="Rectangle 30" width="188.585" height="26.293" fill="#fff"/>
    </clipPath>
  </defs>
  <g id="Group_101" data-name="Group 101" transform="translate(-503 -1049.195)">
    <g id="Group_98" data-name="Group 98" transform="translate(503 1049.195)">
      <g id="Group_66" data-name="Group 66" transform="translate(0 0)">
        <g id="Group_65" data-name="Group 65" transform="translate(0 0)" clip-path="url(#clip-path)">
          <path id="Path_1076" data-name="Path 1076" d="M165.011,26.293A30.832,30.832,0,0,1,148.3,21.728c-2.473-1.379-3.6-2.008-6.861-2.008s-4.388.629-6.86,2.008a30.828,30.828,0,0,1-16.713,4.565,30.829,30.829,0,0,1-16.713-4.565c-2.472-1.379-3.6-2.008-6.86-2.008s-4.388.629-6.859,2.008a30.827,30.827,0,0,1-16.712,4.565A30.828,30.828,0,0,1,54,21.728c-2.472-1.379-3.6-2.008-6.86-2.008s-4.388.629-6.86,2.008a30.828,30.828,0,0,1-16.713,4.565A30.827,30.827,0,0,1,6.859,21.728C4.387,20.349,3.259,19.72,0,19.72V0A30.825,30.825,0,0,1,16.712,4.565c2.472,1.379,3.6,2.008,6.859,2.008s4.388-.629,6.86-2.008A30.829,30.829,0,0,1,47.145,0,30.828,30.828,0,0,1,63.858,4.565c2.472,1.379,3.6,2.008,6.86,2.008s4.387-.629,6.859-2.008A30.828,30.828,0,0,1,94.29,0,30.828,30.828,0,0,1,111,4.565c2.472,1.379,3.6,2.008,6.86,2.008s4.388-.629,6.86-2.008a32.876,32.876,0,0,1,33.426,0c2.473,1.379,3.6,2.008,6.861,2.008s4.389-.629,6.861-2.008A30.83,30.83,0,0,1,188.585,0V19.72c-3.26,0-4.388.629-6.861,2.008a30.83,30.83,0,0,1-16.713,4.565" fill="#fff"/>
        </g>
      </g>
      <g id="Group_67" data-name="Group 67" transform="translate(187.687 0)">
        <g id="Group_65-2" data-name="Group 65" transform="translate(0 0)" clip-path="url(#clip-path)">
          <path id="Path_1076-2" data-name="Path 1076" d="M165.011,26.293A30.832,30.832,0,0,1,148.3,21.728c-2.473-1.379-3.6-2.008-6.861-2.008s-4.388.629-6.86,2.008a30.828,30.828,0,0,1-16.713,4.565,30.829,30.829,0,0,1-16.713-4.565c-2.472-1.379-3.6-2.008-6.86-2.008s-4.388.629-6.859,2.008a30.827,30.827,0,0,1-16.712,4.565A30.828,30.828,0,0,1,54,21.728c-2.472-1.379-3.6-2.008-6.86-2.008s-4.388.629-6.86,2.008a30.828,30.828,0,0,1-16.713,4.565A30.827,30.827,0,0,1,6.859,21.728C4.387,20.349,3.259,19.72,0,19.72V0A30.825,30.825,0,0,1,16.712,4.565c2.472,1.379,3.6,2.008,6.859,2.008s4.388-.629,6.86-2.008A30.829,30.829,0,0,1,47.145,0,30.828,30.828,0,0,1,63.858,4.565c2.472,1.379,3.6,2.008,6.86,2.008s4.387-.629,6.859-2.008A30.828,30.828,0,0,1,94.29,0,30.828,30.828,0,0,1,111,4.565c2.472,1.379,3.6,2.008,6.86,2.008s4.388-.629,6.86-2.008a32.876,32.876,0,0,1,33.426,0c2.473,1.379,3.6,2.008,6.861,2.008s4.389-.629,6.861-2.008A30.83,30.83,0,0,1,188.585,0V19.72c-3.26,0-4.388.629-6.861,2.008a30.83,30.83,0,0,1-16.713,4.565" fill="#fff"/>
        </g>
      </g>
    </g>
    <g id="Group_99" data-name="Group 99" transform="translate(879.207 1049.195)">
      <g id="Group_66-2" data-name="Group 66" transform="translate(0 0)">
        <g id="Group_65-3" data-name="Group 65" transform="translate(0 0)" clip-path="url(#clip-path)">
          <path id="Path_1076-3" data-name="Path 1076" d="M165.011,26.293A30.832,30.832,0,0,1,148.3,21.728c-2.473-1.379-3.6-2.008-6.861-2.008s-4.388.629-6.86,2.008a30.828,30.828,0,0,1-16.713,4.565,30.829,30.829,0,0,1-16.713-4.565c-2.472-1.379-3.6-2.008-6.86-2.008s-4.388.629-6.859,2.008a30.827,30.827,0,0,1-16.712,4.565A30.828,30.828,0,0,1,54,21.728c-2.472-1.379-3.6-2.008-6.86-2.008s-4.388.629-6.86,2.008a30.828,30.828,0,0,1-16.713,4.565A30.827,30.827,0,0,1,6.859,21.728C4.387,20.349,3.259,19.72,0,19.72V0A30.825,30.825,0,0,1,16.712,4.565c2.472,1.379,3.6,2.008,6.859,2.008s4.388-.629,6.86-2.008A30.829,30.829,0,0,1,47.145,0,30.828,30.828,0,0,1,63.858,4.565c2.472,1.379,3.6,2.008,6.86,2.008s4.387-.629,6.859-2.008A30.828,30.828,0,0,1,94.29,0,30.828,30.828,0,0,1,111,4.565c2.472,1.379,3.6,2.008,6.86,2.008s4.388-.629,6.86-2.008a32.876,32.876,0,0,1,33.426,0c2.473,1.379,3.6,2.008,6.861,2.008s4.389-.629,6.861-2.008A30.83,30.83,0,0,1,188.585,0V19.72c-3.26,0-4.388.629-6.861,2.008a30.83,30.83,0,0,1-16.713,4.565" fill="#fff"/>
        </g>
      </g>
      <g id="Group_67-2" data-name="Group 67" transform="translate(187.687 0)">
        <g id="Group_65-4" data-name="Group 65" transform="translate(0 0)" clip-path="url(#clip-path)">
          <path id="Path_1076-4" data-name="Path 1076" d="M165.011,26.293A30.832,30.832,0,0,1,148.3,21.728c-2.473-1.379-3.6-2.008-6.861-2.008s-4.388.629-6.86,2.008a30.828,30.828,0,0,1-16.713,4.565,30.829,30.829,0,0,1-16.713-4.565c-2.472-1.379-3.6-2.008-6.86-2.008s-4.388.629-6.859,2.008a30.827,30.827,0,0,1-16.712,4.565A30.828,30.828,0,0,1,54,21.728c-2.472-1.379-3.6-2.008-6.86-2.008s-4.388.629-6.86,2.008a30.828,30.828,0,0,1-16.713,4.565A30.827,30.827,0,0,1,6.859,21.728C4.387,20.349,3.259,19.72,0,19.72V0A30.825,30.825,0,0,1,16.712,4.565c2.472,1.379,3.6,2.008,6.859,2.008s4.388-.629,6.86-2.008A30.829,30.829,0,0,1,47.145,0,30.828,30.828,0,0,1,63.858,4.565c2.472,1.379,3.6,2.008,6.86,2.008s4.387-.629,6.859-2.008A30.828,30.828,0,0,1,94.29,0,30.828,30.828,0,0,1,111,4.565c2.472,1.379,3.6,2.008,6.86,2.008s4.388-.629,6.86-2.008a32.876,32.876,0,0,1,33.426,0c2.473,1.379,3.6,2.008,6.861,2.008s4.389-.629,6.861-2.008A30.83,30.83,0,0,1,188.585,0V19.72c-3.26,0-4.388.629-6.861,2.008a30.83,30.83,0,0,1-16.713,4.565" fill="#fff"/>
        </g>
      </g>
    </g>
    <g id="Group_100" data-name="Group 100" transform="translate(1255.415 1049.195)">
      <g id="Group_66-3" data-name="Group 66" transform="translate(0 0)">
        <g id="Group_65-5" data-name="Group 65" transform="translate(0 0)" clip-path="url(#clip-path)">
          <path id="Path_1076-5" data-name="Path 1076" d="M165.011,26.293A30.832,30.832,0,0,1,148.3,21.728c-2.473-1.379-3.6-2.008-6.861-2.008s-4.388.629-6.86,2.008a30.828,30.828,0,0,1-16.713,4.565,30.829,30.829,0,0,1-16.713-4.565c-2.472-1.379-3.6-2.008-6.86-2.008s-4.388.629-6.859,2.008a30.827,30.827,0,0,1-16.712,4.565A30.828,30.828,0,0,1,54,21.728c-2.472-1.379-3.6-2.008-6.86-2.008s-4.388.629-6.86,2.008a30.828,30.828,0,0,1-16.713,4.565A30.827,30.827,0,0,1,6.859,21.728C4.387,20.349,3.259,19.72,0,19.72V0A30.825,30.825,0,0,1,16.712,4.565c2.472,1.379,3.6,2.008,6.859,2.008s4.388-.629,6.86-2.008A30.829,30.829,0,0,1,47.145,0,30.828,30.828,0,0,1,63.858,4.565c2.472,1.379,3.6,2.008,6.86,2.008s4.387-.629,6.859-2.008A30.828,30.828,0,0,1,94.29,0,30.828,30.828,0,0,1,111,4.565c2.472,1.379,3.6,2.008,6.86,2.008s4.388-.629,6.86-2.008a32.876,32.876,0,0,1,33.426,0c2.473,1.379,3.6,2.008,6.861,2.008s4.389-.629,6.861-2.008A30.83,30.83,0,0,1,188.585,0V19.72c-3.26,0-4.388.629-6.861,2.008a30.83,30.83,0,0,1-16.713,4.565" fill="#fff"/>
        </g>
      </g>
    </g>
  </g>
</svg>
